<svg width="153" height="66" viewBox="0 0 153 66" fill="none" xmlns="http://www.w3.org/2000/svg">
<g clip-path="url(#clip0_3045_1609)">
<path d="M107.798 47.3808C108.109 47.3808 108.452 47.7038 108.681 48.2206L108.812 48.5112L109.956 46.9771L109.809 46.8802C109.335 46.5411 108.861 46.3635 108.436 46.3635C107.733 46.3635 107.095 46.7672 106.507 47.5585C105.673 47.0902 104.692 46.8479 103.646 46.8479C100 46.8479 98.3656 49.3833 98.3656 51.9025C98.3656 53.8888 99.2974 55.4875 100.932 56.3595L99.9514 57.9098H103.646C105.722 57.9098 107.177 59.444 107.177 61.6563C107.177 63.352 105.15 65.3221 102.534 65.3221C99.3955 65.3221 97.2866 63.3197 97.2866 60.3644V50.7398C97.2866 49.5932 96.9433 46.9125 93.6901 46.9125C92.3823 46.9125 91.1398 47.5262 90.3388 48.5274V46.6703L90.0282 46.9771C89.7993 47.2032 89.4397 47.5262 88.8348 47.833C88.1809 48.1398 87.5596 48.2529 87.1509 48.3013L86.6442 48.3659L87.1019 48.6404C87.4289 48.8342 87.7231 49.028 87.7231 50.3845V58.3781C87.7231 59.6054 87.4779 59.88 87.0529 60.1707L86.7749 60.3644L86.497 60.1545C86.3009 60.0092 86.121 59.8638 86.0393 59.6377V59.6216C85.9085 59.3471 85.8431 58.9433 85.8431 58.362V46.6864L85.5325 46.9933C85.4017 47.1224 85.0094 47.4777 84.3718 47.833C83.7015 48.1721 83.0967 48.269 82.7043 48.3013L82.1812 48.3336L82.6553 48.6404C82.9495 48.8342 83.2765 49.0442 83.2765 50.4006V58.362C83.2765 59.6216 83.0149 59.88 82.6226 60.1384L82.2466 60.3806L82.0177 60.1707C81.3147 59.5086 80.9714 58.2005 80.6118 56.8279C79.9415 54.2602 79.1895 51.3373 75.7565 51.3373H74.465C75.7728 49.351 77.2768 46.9933 77.9471 45.9597C79.026 44.2803 80.5137 42.3586 81.2003 42.0679L82.0014 41.7288H76.0998L76.7864 42.0679C77.3586 42.3424 77.7673 43.279 77.7673 44.2803C77.7673 44.8293 77.6528 45.2976 77.4076 45.6852C76.8518 46.5572 75.9853 47.8814 75.1025 49.2541C74.3669 50.3845 73.6312 51.5311 73.01 52.4838V43.8281C73.01 42.6008 73.2552 42.3263 73.6476 42.0679L74.1217 41.7449H69.25L69.7568 42.0679C70.1491 42.3263 70.4107 42.5846 70.4107 43.8281V58.4266C70.4107 59.67 70.1491 59.9284 69.7568 60.1868L69.25 60.5098H74.1217L73.6476 60.1868C73.2552 59.9284 73.01 59.6539 73.01 58.4266V53.6627C73.3206 53.1782 73.6803 52.6292 74.089 51.9994H74.3832C76.9499 51.9994 77.2278 54.1633 77.522 56.4564C77.7182 58.0229 77.9307 59.6539 78.977 60.4613L79.026 60.4936H82.1321H82.361H86.6442L86.6115 60.5098H91.4014L90.9764 60.1868C90.96 60.1707 90.9273 60.1545 90.911 60.1384C90.6984 59.993 90.3388 59.7508 90.3388 58.3943V50.1261C90.8619 48.9634 91.9736 48.0914 92.9708 48.0914C94.0661 48.0914 94.6873 49.141 94.6873 50.9659V60.3321C94.6873 64.6116 99.9677 66.0004 102.518 66.0004C106.441 66.0004 109.744 63.9979 109.744 61.6402C109.744 59.1048 107.161 57.28 103.613 57.28H101.063L101.472 56.6179C102.142 56.844 102.845 56.957 103.597 56.957C106.768 56.957 108.894 54.9223 108.894 51.9186C108.894 50.2876 108.207 48.8342 106.997 47.9137C107.292 47.5423 107.537 47.3808 107.798 47.3808ZM103.646 56.3111C102.338 56.3111 100.932 55.1484 100.932 51.8863C100.932 49.8516 101.635 47.4616 103.646 47.4616C105.64 47.4616 106.36 49.8354 106.36 51.8863C106.36 55.1484 104.954 56.3111 103.646 56.3111Z" fill="#6D7D36"/>
<path d="M148.668 60.1696L148.21 60.4925H153L152.575 60.1696C152.559 60.1534 152.526 60.1373 152.51 60.1211C152.297 59.9758 151.938 59.7335 151.938 58.377V50.6741C151.938 47.2182 149.42 46.8468 148.341 46.8468C146.854 46.8468 145.464 47.622 144.696 48.8654C144.173 47.5735 142.995 46.8468 141.41 46.8468C140.396 46.8468 139.334 47.2828 138.042 48.2356V46.6692L137.731 46.976C137.503 47.2021 137.143 47.5251 136.538 47.8319C135.884 48.1387 135.263 48.2518 134.854 48.3002L134.364 48.3648L134.822 48.6393C135.149 48.8331 135.443 49.0269 135.443 50.3834V50.448C135.001 50.8356 134.609 51.1747 134.217 51.4977C133.497 48.5909 131.405 46.8791 128.593 46.8791C124.506 46.8791 122.691 50.3188 122.691 53.7262C122.691 57.1336 124.522 60.5733 128.593 60.5733C132.647 60.5733 134.478 57.1336 134.478 53.7262C134.478 53.484 134.478 53.1933 134.446 52.9672L134.413 52.6604L134.168 52.838C133.432 53.3709 132.827 53.6778 132.157 53.8392L132.026 53.8715V54.0007C131.944 57.5373 130.555 59.9273 128.593 59.9273C126.876 59.9273 125.144 58.0056 125.144 53.7101C125.144 51.4008 125.716 49.4629 126.68 48.381C126.566 48.7039 126.517 49.0754 126.517 49.4629C126.517 51.4331 128.004 53.5647 131.274 53.5647C132.958 53.5647 134.576 52.1436 136.129 50.7548C137.617 49.4468 139.154 48.0903 140.625 48.0903C141.769 48.0903 142.407 49.1077 142.407 50.9648V58.3932C142.407 59.6205 142.162 59.895 141.737 60.1857L141.279 60.5087H146.069L145.644 60.1857C145.628 60.1696 145.595 60.1534 145.578 60.1373C145.366 59.9919 145.006 59.7497 145.006 58.3932V50.6902C145.006 50.5933 145.006 50.4803 144.99 50.3834C144.99 50.3188 144.974 50.2381 144.974 50.1735C145.497 48.9785 146.625 48.0903 147.638 48.0903C148.734 48.0903 149.355 49.14 149.355 50.9648V58.3932C149.338 59.6205 149.077 59.8789 148.668 60.1696ZM131.258 52.9349C129.296 52.9349 127.203 51.8368 127.203 49.4468C127.203 48.4779 127.678 47.5089 128.56 47.5089H128.593C128.904 47.5089 131.634 47.6543 131.993 52.838C131.732 52.8865 131.487 52.9349 131.258 52.9349Z" fill="#6D7D36"/>
<path d="M138.598 60.1373C138.386 59.992 138.026 59.7498 138.026 58.3933V49.5276L137.732 49.7375C137.176 50.1574 136.604 50.658 136.064 51.1263C135.885 51.2878 135.672 51.4493 135.476 51.6592L135.427 51.7077V58.3933C135.427 59.6206 135.182 59.8951 134.757 60.1858L134.299 60.5087H139.089L138.664 60.1858C138.631 60.1696 138.615 60.1535 138.598 60.1373Z" fill="#6D7D36"/>
<path d="M12.4244 41.7288H0.343306L0 46.9125L0.39235 46.1535C1.1934 44.6032 2.89358 42.73 5.0842 42.407V58.4104C5.0842 59.6377 4.83898 59.9123 4.44663 60.1706L3.97254 60.4936H8.92595L8.32108 60.1545C8.09221 60.0253 7.96143 59.8961 7.84699 59.67C7.76525 59.444 7.66717 59.0887 7.66717 58.4104V42.407C9.85778 42.7138 11.558 44.5871 12.359 46.1535L12.7514 46.9125L12.4244 41.7288Z" fill="#6D7D36"/>
<path d="M23.6389 59.637C23.5081 59.3786 23.4591 59.0072 23.4591 58.3774V50.6906C23.4591 49.544 23.0995 46.8795 19.8462 46.8795C18.5384 46.8795 17.3123 47.4931 16.5112 48.4943V41.179L16.2006 41.4858C15.9718 41.7119 15.5958 42.051 15.0072 42.3255C14.3697 42.6646 13.7811 42.7615 13.3398 42.8261L12.8493 42.8907L13.3071 43.1653C13.634 43.359 13.9283 43.5528 13.9283 44.8932V58.3774C13.9283 59.637 13.6667 59.8954 13.2744 60.1538L12.7676 60.4767H17.5902L17.1652 60.1538C16.969 60.0084 16.7892 59.8631 16.6911 59.6208C16.5766 59.3786 16.5112 58.991 16.5112 58.3612V50.1415C17.018 48.9788 18.1787 48.0745 19.1596 48.0745C20.2549 48.0745 20.8761 49.1241 20.8761 50.949V58.3612C20.8761 59.6208 20.6146 59.8792 20.2222 60.1376L19.7154 60.4606H24.5381L24.113 60.1376C23.9168 60.0084 23.737 59.8792 23.6389 59.637Z" fill="#6D7D36"/>
<path d="M36.0966 53.4684L36.0802 53.2746C35.8514 49.2535 33.7752 46.8635 30.5383 46.8635C26.4677 46.8635 24.6367 50.3032 24.6367 53.6945C24.6367 57.1018 26.4677 60.5254 30.5383 60.5254C33.0068 60.5254 34.8705 59.2819 35.786 57.0211L35.8841 56.7789H34.9849L34.9359 56.8919C34.2493 58.4422 32.9088 59.3627 31.3557 59.3627C29.394 59.3627 27.1053 57.877 27.1053 53.6945V53.4684H36.0966ZM30.5547 47.4933C31.5682 47.4933 33.3011 48.1877 33.6444 52.8386H27.1379C27.3505 49.5927 28.6746 47.4933 30.5547 47.4933Z" fill="#6D7D36"/>
<path d="M56.8737 60.1536C56.6775 60.0083 56.4977 59.8629 56.416 59.6368V59.6207C56.2852 59.3623 56.2198 58.9425 56.2198 58.3611V46.1365L55.9092 46.4433C55.7784 46.5725 55.386 46.9278 54.7485 47.283C54.0782 47.6222 53.4733 47.7191 53.081 47.7514L52.5579 47.7837L53.032 48.0905C53.3262 48.2843 53.6532 48.4942 53.6532 49.8507V58.3611C53.6532 59.6207 53.3916 59.8791 52.9993 60.1375L52.5742 60.412C52.4925 57.3276 49.3046 55.0829 44.9234 55.0829H41.6865L42.275 54.1463C43.0761 54.4369 43.9752 54.5823 44.9397 54.5823C49.5172 54.5823 51.5606 51.4333 51.5606 48.3166C51.5606 46.2172 50.6942 44.3924 49.1738 43.2782C49.5008 42.826 49.8278 42.6161 50.1711 42.6161C50.6288 42.6161 51.0539 43.0198 51.3645 43.7142L51.3808 43.7626C51.9039 45.4582 53.1137 45.9104 53.784 46.0073C54.634 46.1526 55.5495 45.8943 55.8928 45.4098C56.3179 44.8446 56.2688 44.1179 56.1544 43.8757C55.1735 41.4372 52.6396 41.2434 51.8876 41.2434C51.25 41.2434 50.6125 41.3564 50.1874 41.5502C49.5989 41.7602 49.0758 42.2123 48.5853 42.9067C47.5227 42.3254 46.3293 42.0347 44.9397 42.0347C40.9999 42.0347 38.3515 44.5701 38.3515 48.3327C38.3515 50.7873 39.5613 52.8544 41.6048 53.8717L40.4277 55.7934H44.9397C47.6044 55.7934 49.4681 57.7474 49.4681 60.5412C49.4681 63.238 47.5718 65.192 44.9397 65.192C41.0162 65.192 39.6103 61.5586 39.6103 58.458V57.7151L37.4688 61.93L37.4851 61.9946C38.1063 64.2715 41.3105 65.9833 44.9234 65.9833C49.4354 65.9833 52.5742 63.7386 52.5742 60.5412C52.5742 60.525 52.5742 60.4927 52.5742 60.4766H57.3151L56.8737 60.1536ZM41.4903 48.3489C41.4903 44.1986 43.2559 42.7129 44.907 42.7129C47.4573 42.7129 48.3565 45.6197 48.3565 48.3489C48.3565 52.4829 46.5745 53.9525 44.907 53.9525C43.2559 53.9525 41.4903 52.4668 41.4903 48.3489Z" fill="#6D7D36"/>
<path d="M82.6875 44.4246C82.6875 45.2644 83.4232 45.9911 84.2896 45.9911C85.156 45.9911 85.8753 45.2967 85.8753 44.4246C85.8753 43.5526 85.1724 42.842 84.2896 42.842C83.4068 42.842 82.6875 43.5526 82.6875 44.4246Z" fill="#6D7D36"/>
<path d="M121.465 58.1029V41.1467L121.154 41.4859C120.876 41.7765 120.468 42.0834 119.994 42.3094C119.356 42.6486 118.767 42.7455 118.326 42.8101L117.852 42.8746L118.293 43.1653C118.588 43.3591 118.882 43.5529 118.882 44.8932V47.9292C118.375 47.3479 117.525 46.8634 116.561 46.8634C113.046 46.8634 111.215 50.5776 111.215 54.2434C111.215 58.1837 113.209 60.5414 116.561 60.5414C117.672 60.5414 118.522 60.17 118.915 59.9439C118.98 60.2023 119.176 60.4284 119.634 60.4284H119.765L122.528 60.17L122.07 59.8631C121.776 59.6371 121.465 59.4433 121.465 58.1029ZM118.882 56.9887C118.882 58.6035 117.868 59.8631 116.561 59.8631C115.482 59.8631 113.683 59.1365 113.683 54.2595C113.683 50.6906 115.089 47.7839 116.838 47.7839C117.721 47.7839 118.571 48.4783 118.882 49.431V56.9887Z" fill="#6D7D36"/>
<path d="M66.635 59.1521C65.9811 59.1521 65.6541 58.7645 65.6541 57.9732V47.5896H68.0246V46.9598H65.6541V43.4071H65.0166L65.0002 43.5685C64.8858 44.7636 64.2482 45.8617 63.3491 46.4753L64.8204 42.3089L64.7223 42.2282C64.1665 41.8083 62.9404 41.3723 61.8941 41.3723C59.5891 41.3723 58.5755 43.0356 58.5591 46.9436H57.4311V47.5896H58.5591V58.3931C58.5591 59.6527 58.2976 59.9272 57.9052 60.1695L57.3984 60.4925H62.2211L61.796 60.1695C61.5835 60.008 61.42 59.8788 61.3219 59.6366C61.2075 59.3943 61.1421 59.0068 61.1421 58.377V47.5734H63.0875V57.6987C63.0875 59.5881 63.8395 60.5409 65.2945 60.5409C66.7331 60.5409 67.8611 59.2974 67.9919 59.1521L68.5314 58.5223L67.7794 58.8614C67.6649 58.9099 67.1418 59.1521 66.635 59.1521ZM62.9404 46.6853L62.8913 46.7014C62.0739 47.0567 61.4527 46.8629 61.2402 46.766C61.2075 46.7499 61.2075 46.7499 61.2075 46.7499C60.995 46.6045 60.8315 46.3461 60.7171 45.8778C60.5209 45.1996 60.4228 44.5536 60.4228 43.9723C60.4228 42.8903 60.7988 42.1636 61.3383 42.1636C61.9595 42.1636 62.9404 43.1971 63.1202 46.0716L63.1529 46.5722C63.0712 46.6207 63.0058 46.653 62.9404 46.6853Z" fill="#6D7D36"/>
<path d="M63.3496 34.3802C63.3496 34.9939 63.8564 35.5106 64.494 35.5106H73.1583V17.0042H63.3496V34.3802Z" fill="#6D7D36"/>
<path d="M79.8281 35.4945H88.4925C89.1137 35.4945 89.6369 34.9939 89.6369 34.3641V17.0042H79.8281V35.4945Z" fill="#6D7D36"/>
<path d="M78.4048 16.9885H74.5957V35.5273H78.4048V16.9885Z" fill="#6D7D36"/>
<path d="M93.6254 3.16495C92.5791 3.16495 91.729 4.00468 91.729 5.03821C91.729 5.63571 92.0233 6.16862 92.4647 6.50774C91.7617 7.37978 90.6664 7.94498 89.4403 7.94498C87.3805 7.94498 85.713 6.3624 85.5822 4.37611C86.5631 4.29536 87.3314 3.50407 87.3314 2.519C87.3314 1.48548 86.4813 0.645742 85.4351 0.645742C84.3888 0.645742 83.5387 1.48548 83.5387 2.519C83.5387 3.19725 83.9147 3.79475 84.4706 4.11773C83.882 5.49037 82.5088 6.44315 80.9067 6.44315C79.1084 6.44315 77.6044 5.23199 77.163 3.58482C77.8497 3.31029 78.3401 2.63204 78.3401 1.8569C78.3401 0.823378 77.5064 -0.000208659 76.4601 -0.0163574C75.4138 -0.0163574 74.5801 0.823378 74.5801 1.8569C74.5801 2.63204 75.0705 3.31029 75.7571 3.58482C75.3157 5.23199 73.8117 6.44315 72.0135 6.44315C70.4114 6.44315 69.0545 5.47422 68.4496 4.11773C69.0054 3.79475 69.3814 3.19725 69.3814 2.519C69.3814 1.48548 68.5314 0.645742 67.4851 0.645742C66.4388 0.645742 65.5887 1.48548 65.5887 2.519C65.5887 3.50407 66.3571 4.29536 67.338 4.37611C67.2072 6.37855 65.5397 7.94498 63.4799 7.94498C62.2538 7.94498 61.1585 7.37978 60.4555 6.50774C60.8969 6.16862 61.1911 5.63571 61.1911 5.03821C61.1911 4.00468 60.3411 3.16495 59.2948 3.16495C58.2485 3.16495 57.3984 4.00468 57.3984 5.03821C57.3984 6.07173 58.2485 6.91146 59.2948 6.91146C59.3602 6.91146 59.4256 6.89531 59.491 6.89531L61.8614 16.1809C61.8614 16.1809 66.3407 14.8244 76.411 14.8244C86.4814 14.8244 90.9607 16.1809 90.9607 16.1809L93.3311 6.89531C93.3965 6.89531 93.4619 6.91146 93.5273 6.91146C94.5736 6.91146 95.4237 6.07173 95.4237 5.03821C95.4237 4.00468 94.6717 3.16495 93.6254 3.16495Z" fill="#6D7D36"/>
</g>
<defs>
<clipPath id="clip0_3045_1609">
<rect width="153" height="66" fill="white"/>
</clipPath>
</defs>
</svg>
