<svg width="50" height="50" viewBox="0 0 50 50" fill="none" xmlns="http://www.w3.org/2000/svg">
<path d="M42.7106 21.8752L42.3943 20.9265L41.8502 21.1078L41.732 21.669L42.7106 21.8752ZM11.4606 41.6668L10.482 41.8728C10.5794 42.3356 10.9877 42.6668 11.4606 42.6668V41.6668ZM7.2939 21.8752L8.27245 21.6692L8.15425 21.1077L7.60992 20.9264L7.2939 21.8752ZM45.8356 14.5835H46.8356C46.8356 14.3183 46.7302 14.0639 46.5427 13.8764C46.3551 13.6889 46.1008 13.5835 45.8356 13.5835V14.5835ZM4.16669 14.5835V13.5835C3.6144 13.5835 3.16669 14.0312 3.16669 14.5835H4.16669ZM45.8356 20.8335L46.1518 21.7822L46.8356 21.5543V20.8335H45.8356ZM4.16669 20.8335H3.16669V21.5544L3.85066 21.7822L4.16669 20.8335ZM22.9167 40.6668H11.4606V42.6668H22.9167V40.6668ZM12.4391 41.4608L8.27245 21.6692L6.31535 22.0812L10.482 41.8728L12.4391 41.4608ZM45.8356 13.5835H22.9189V15.5835H45.8356V13.5835ZM15.625 13.5835H4.16669V15.5835H15.625V13.5835ZM44.8356 14.5835V20.8335H46.8356V14.5835H44.8356ZM45.5193 19.8848L42.3943 20.9265L43.0268 22.8238L46.1518 21.7822L45.5193 19.8848ZM3.16669 14.5835V20.8335H5.16669V14.5835H3.16669ZM3.85066 21.7822L6.97787 22.8239L7.60992 20.9264L4.48271 19.8847L3.85066 21.7822ZM41.732 21.669L40.8544 25.8357L42.8114 26.2479L43.6891 22.0813L41.732 21.669Z" fill="#6D7D36"/>
<path d="M13.5417 20.8334L20.8334 4.16675M31.25 4.16675L36.4584 14.5834" stroke="#6D7D36" stroke-width="2" stroke-linejoin="round"/>
<path d="M27.5343 31.6667V30.6667H26.7515L26.5636 31.4267L27.5343 31.6667ZM35.4167 45.8334L35.217 46.8133L35.4167 46.854L35.6165 46.8133L35.4167 45.8334ZM43.2992 31.6667L44.2699 31.4267L44.082 30.6667H43.2992V31.6667ZM35.4167 28.1667C33.6057 28.1667 32.1949 28.9152 31.0117 29.5291C29.7847 30.1657 28.7869 30.6667 27.5343 30.6667V32.6667C29.3414 32.6667 30.7505 31.9178 31.9327 31.3044C33.1587 30.6683 34.1594 30.1667 35.4167 30.1667V28.1667ZM35.6165 44.8536C32.8253 44.2846 30.6648 42.6852 29.3884 40.4429C28.1089 38.195 27.6823 35.2343 28.5051 31.9068L26.5636 31.4267C25.6349 35.1825 26.0837 38.6801 27.6503 41.4323C29.2201 44.19 31.8766 46.1323 35.217 46.8133L35.6165 44.8536ZM35.4167 30.1667C36.6805 30.1667 37.6826 30.6687 38.9063 31.3042C40.0869 31.9173 41.4934 32.6667 43.2992 32.6667V30.6667C42.0488 30.6667 41.0544 30.1661 39.828 29.5293C38.6447 28.9147 37.2336 28.1667 35.4167 28.1667V30.1667ZM35.6165 46.8133C38.9569 46.1323 41.6133 44.19 43.1831 41.4323C44.7498 38.6801 45.1986 35.1825 44.2699 31.4267L42.3284 31.9068C43.1512 35.2343 42.7246 38.195 41.445 40.4429C40.1686 42.6852 38.0081 44.2846 35.217 44.8536L35.6165 46.8133Z" fill="#6D7D36"/>
</svg>
