<svg width="50" height="50" viewBox="0 0 50 50" fill="none" xmlns="http://www.w3.org/2000/svg">
<path d="M40.625 9.37508H41.625C41.625 8.8228 41.1773 8.37508 40.625 8.37508V9.37508ZM40.625 40.6251V41.6251C41.1773 41.6251 41.625 41.1774 41.625 40.6251H40.625ZM25 4.16675L25.6402 3.39853C25.2693 3.08949 24.7306 3.08949 24.3598 3.39853L25 4.16675ZM45.8333 25.0001L46.6015 25.6403C46.9106 25.2694 46.9106 24.7307 46.6015 24.3599L45.8333 25.0001ZM25 45.8334L24.3598 46.6016C24.7306 46.9107 25.2693 46.9107 25.6402 46.6016L25 45.8334ZM9.37499 9.37508V8.37508C8.8227 8.37508 8.37499 8.8228 8.37499 9.37508H9.37499ZM4.16666 25.0001L3.39844 24.3599C3.0894 24.7307 3.0894 25.2694 3.39844 25.6403L4.16666 25.0001ZM9.37499 40.6251H8.37499C8.37499 41.1774 8.8227 41.6251 9.37499 41.6251V40.6251ZM40.625 18.7501H39.625V19.1121L39.8568 19.3903L40.625 18.7501ZM31.25 9.37508L30.6098 10.1433L30.8879 10.3751H31.25V9.37508ZM18.75 9.37508V10.3751H19.112L19.3902 10.1433L18.75 9.37508ZM9.37499 18.7501L10.1432 19.3903L10.375 19.1121V18.7501H9.37499ZM9.37499 31.2501H10.375V30.888L10.1432 30.6099L9.37499 31.2501ZM18.75 40.6251L19.3902 39.8569L19.112 39.6251H18.75V40.6251ZM31.25 40.6251V39.6251H30.8879L30.6098 39.8569L31.25 40.6251ZM40.625 31.2501L39.8568 30.6099L39.625 30.888V31.2501H40.625ZM39.8568 19.3903L45.0651 25.6403L46.6015 24.3599L41.3932 18.1099L39.8568 19.3903ZM39.625 9.37508V18.7501H41.625V9.37508H39.625ZM24.3598 4.93497L30.6098 10.1433L31.8902 8.60686L25.6402 3.39853L24.3598 4.93497ZM40.625 8.37508H31.25V10.3751H40.625V8.37508ZM18.75 8.37508H9.37499V10.3751H18.75V8.37508ZM19.3902 10.1433L25.6402 4.93497L24.3598 3.39853L18.1098 8.60686L19.3902 10.1433ZM4.93488 25.6403L10.1432 19.3903L8.60677 18.1099L3.39844 24.3599L4.93488 25.6403ZM8.37499 9.37508V18.7501H10.375V9.37508H8.37499ZM8.37499 31.2501V40.6251H10.375V31.2501H8.37499ZM10.1432 30.6099L4.93488 24.3599L3.39844 25.6403L8.60677 31.8903L10.1432 30.6099ZM25.6402 45.0652L19.3902 39.8569L18.1098 41.3933L24.3598 46.6016L25.6402 45.0652ZM18.75 39.6251H9.37499V41.6251H18.75V39.6251ZM40.625 39.6251H31.25V41.6251H40.625V39.6251ZM25.6402 46.6016L31.8902 41.3933L30.6098 39.8569L24.3598 45.0652L25.6402 46.6016ZM41.3932 31.8903L46.6015 25.6403L45.0651 24.3599L39.8568 30.6099L41.3932 31.8903ZM39.625 31.2501V40.6251H41.625V31.2501H39.625Z" fill="#6D7D36"/>
<path d="M31.25 18.75L18.75 31.25" stroke="#6D7D36" stroke-width="2" stroke-linejoin="round"/>
<path d="M30.2285 30.2084H30.206M19.7955 19.7917H19.7731" stroke="#6D7D36" stroke-width="2" stroke-linecap="square" stroke-linejoin="round"/>
</svg>
