<svg width="121" height="54" viewBox="0 0 121 54" fill="none" xmlns="http://www.w3.org/2000/svg">
<g clip-path="url(#clip0_3045_14266)">
<path d="M85.2517 38.7649C85.4974 38.7649 85.7689 39.0292 85.9499 39.452L86.0533 39.6898L86.9583 38.4346L86.8419 38.3554C86.467 38.0779 86.0921 37.9326 85.7559 37.9326C85.2 37.9326 84.6958 38.2629 84.2303 38.9103C83.571 38.5271 82.7953 38.3289 81.9678 38.3289C79.0847 38.3289 77.7918 40.4033 77.7918 42.4645C77.7918 44.0896 78.5288 45.3977 79.8216 46.1112L79.0459 47.3796H81.9678C83.6098 47.3796 84.7604 48.6348 84.7604 50.4449C84.7604 51.8322 83.1573 53.4442 81.0887 53.4442C78.6063 53.4442 76.9385 51.8058 76.9385 49.3879V41.5132C76.9385 40.5751 76.667 38.3818 74.0942 38.3818C73.0599 38.3818 72.0773 38.8839 71.4438 39.703V38.1836L71.1982 38.4346C71.0172 38.6196 70.7327 38.8839 70.2544 39.1349C69.7372 39.3859 69.2459 39.4784 68.9227 39.5181L68.5219 39.5709L68.8839 39.7955C69.1425 39.9541 69.3752 40.1126 69.3752 41.2225V47.7627C69.3752 48.7669 69.1813 48.9915 68.8451 49.2293L68.6254 49.3879L68.4056 49.2161C68.2504 49.0972 68.1082 48.9783 68.0436 48.7933V48.7801C67.9401 48.5555 67.8884 48.2252 67.8884 47.7495V38.1968L67.6428 38.4478C67.5394 38.5535 67.2291 38.8442 66.7248 39.1349C66.1948 39.4124 65.7164 39.4916 65.4061 39.5181L64.9924 39.5445L65.3673 39.7955C65.6 39.9541 65.8586 40.1258 65.8586 41.2357V47.7495C65.8586 48.7801 65.6518 48.9915 65.3415 49.2029L65.0441 49.4011L64.8631 49.2293C64.3072 48.6876 64.0357 47.6174 63.7512 46.4943C63.2212 44.3935 62.6264 42.002 59.9114 42.002H58.89C59.9243 40.3769 61.1138 38.4478 61.6438 37.6022C62.4971 36.2281 63.6737 34.6558 64.2167 34.418L64.8502 34.1405H60.1829L60.7259 34.418C61.1784 34.6426 61.5016 35.4089 61.5016 36.2281C61.5016 36.6774 61.4111 37.0605 61.2172 37.3776C60.7776 38.0911 60.0924 39.1745 59.3942 40.2976C58.8125 41.2225 58.2307 42.1606 57.7394 42.9401V35.8582C57.7394 34.854 57.9333 34.6294 58.2436 34.418L58.6185 34.1537H54.7658L55.1666 34.418C55.4768 34.6294 55.6837 34.8408 55.6837 35.8582V47.8024C55.6837 48.8198 55.4768 49.0312 55.1666 49.2426L54.7658 49.5068H58.6185L58.2436 49.2426C57.9333 49.0312 57.7394 48.8065 57.7394 47.8024V43.9047C57.985 43.5083 58.2694 43.059 58.5927 42.5438H58.8254C60.8552 42.5438 61.075 44.3142 61.3077 46.1904C61.4628 47.4721 61.6309 48.8065 62.4584 49.4672L62.4971 49.4936H64.9536H65.1346H68.5219L68.4961 49.5068H72.2842L71.948 49.2426C71.9351 49.2293 71.9093 49.2161 71.8963 49.2029C71.7283 49.084 71.4438 48.8858 71.4438 47.776V41.0111C71.8575 40.0598 72.7367 39.3463 73.5254 39.3463C74.3916 39.3463 74.8829 40.2051 74.8829 41.6981V49.3615C74.8829 52.8628 79.0588 53.9991 81.0757 53.9991C84.1786 53.9991 86.7902 52.3607 86.7902 50.4317C86.7902 48.3573 84.7475 46.8643 81.942 46.8643H79.9251L80.2483 46.3226C80.7784 46.5075 81.3343 46.6 81.929 46.6C84.4372 46.6 86.1179 44.9352 86.1179 42.4777C86.1179 41.1432 85.5749 39.9541 84.6182 39.201C84.8509 38.8971 85.0449 38.7649 85.2517 38.7649ZM81.9678 46.0715C80.9335 46.0715 79.8216 45.1202 79.8216 42.4513C79.8216 40.7865 80.3776 38.831 81.9678 38.831C83.5451 38.831 84.114 40.7733 84.114 42.4513C84.114 45.1202 83.0021 46.0715 81.9678 46.0715Z" fill="#6C7D36"/>
<path d="M117.573 49.2293L117.211 49.4936H120.999L120.663 49.2293C120.65 49.2161 120.624 49.2029 120.611 49.1897C120.443 49.0708 120.159 48.8726 120.159 47.7627V41.4603C120.159 38.6328 118.168 38.3289 117.314 38.3289C116.138 38.3289 115.039 38.9631 114.431 39.9805C114.018 38.9235 113.087 38.3289 111.833 38.3289C111.031 38.3289 110.191 38.6857 109.169 39.4652V38.1836L108.924 38.4346C108.743 38.6196 108.458 38.8839 107.98 39.1349C107.463 39.3859 106.971 39.4784 106.648 39.5181L106.26 39.5709L106.622 39.7955C106.881 39.9541 107.114 40.1126 107.114 41.2225V41.2753C106.765 41.5924 106.454 41.8699 106.144 42.1342C105.575 39.7559 103.92 38.3554 101.697 38.3554C98.4644 38.3554 97.0293 41.1696 97.0293 43.9575C97.0293 46.7454 98.4773 49.5597 101.697 49.5597C104.903 49.5597 106.351 46.7454 106.351 43.9575C106.351 43.7593 106.351 43.5215 106.325 43.3365L106.299 43.0855L106.105 43.2308C105.523 43.6668 105.045 43.9179 104.515 44.05L104.412 44.0764V44.1821C104.347 47.0757 103.248 49.0312 101.697 49.0312C100.339 49.0312 98.9686 47.4589 98.9686 43.9443C98.9686 42.0549 99.4211 40.4694 100.184 39.5841C100.093 39.8484 100.055 40.1523 100.055 40.4694C100.055 42.0813 101.231 43.8254 103.817 43.8254C105.149 43.8254 106.428 42.6627 107.657 41.5264C108.833 40.4562 110.049 39.3463 111.212 39.3463C112.117 39.3463 112.621 40.1787 112.621 41.6982V47.776C112.621 48.7801 112.427 49.0047 112.091 49.2426L111.729 49.5068H115.517L115.181 49.2426C115.168 49.2293 115.142 49.2161 115.13 49.2029C114.961 49.084 114.677 48.8858 114.677 47.776V41.4735C114.677 41.3943 114.677 41.3018 114.664 41.2225C114.664 41.1696 114.651 41.1036 114.651 41.0507C115.065 40.073 115.957 39.3463 116.759 39.3463C117.625 39.3463 118.116 40.2051 118.116 41.6982V47.776C118.103 48.7801 117.896 48.9915 117.573 49.2293ZM103.804 43.3101C102.253 43.3101 100.598 42.4116 100.598 40.4562C100.598 39.6634 100.973 38.8707 101.671 38.8707H101.697C101.942 38.8707 104.101 38.9896 104.386 43.2308C104.179 43.2705 103.985 43.3101 103.804 43.3101Z" fill="#6C7D36"/>
<path d="M109.609 49.2032C109.441 49.0842 109.157 48.8861 109.157 47.7762V40.5225L108.924 40.6942C108.484 41.0378 108.032 41.4473 107.605 41.8305C107.463 41.9626 107.295 42.0948 107.14 42.2665L107.101 42.3062V47.7762C107.101 48.7804 106.907 49.005 106.571 49.2428L106.209 49.507H109.997L109.661 49.2428C109.635 49.2296 109.622 49.2164 109.609 49.2032Z" fill="#6C7D36"/>
<path d="M9.82584 34.1407H0.271503L0 38.3819L0.31029 37.7609C0.943797 36.4925 2.28839 34.9599 4.02083 34.6956V47.7893C4.02083 48.7935 3.8269 49.0181 3.51661 49.2295L3.14168 49.4938H7.05909L6.58072 49.2163C6.39972 49.1106 6.29629 49.0049 6.20579 48.8199C6.14115 48.6349 6.06357 48.3443 6.06357 47.7893V34.6956C7.79602 34.9467 9.14061 36.4793 9.77412 37.7609L10.0844 38.3819L9.82584 34.1407Z" fill="#6C7D36"/>
<path d="M18.6953 48.7934C18.5918 48.582 18.553 48.2781 18.553 47.7629V41.4736C18.553 40.5355 18.2686 38.3555 15.6958 38.3555C14.6615 38.3555 13.6918 38.8575 13.0583 39.6767V33.6914L12.8127 33.9424C12.6317 34.1274 12.3343 34.4049 11.8689 34.6295C11.3647 34.907 10.8992 34.9862 10.5502 35.0391L10.1623 35.0919L10.5243 35.3166C10.7829 35.4751 11.0156 35.6337 11.0156 36.7303V47.7629C11.0156 48.7934 10.8087 49.0048 10.4984 49.2162L10.0977 49.4805H13.9116L13.5755 49.2162C13.4203 49.0973 13.2781 48.9784 13.2006 48.7802C13.1101 48.582 13.0583 48.2649 13.0583 47.7496V41.0244C13.4591 40.0731 14.3771 39.3332 15.1528 39.3332C16.019 39.3332 16.5103 40.192 16.5103 41.685V47.7496C16.5103 48.7802 16.3034 48.9916 15.9932 49.203L15.5924 49.4673H19.4063L19.0702 49.203C18.9151 49.0973 18.7728 48.9916 18.6953 48.7934Z" fill="#6C7D36"/>
<path d="M28.5455 43.7467L28.5325 43.5882C28.3515 40.2982 26.7096 38.3428 24.1497 38.3428C20.9304 38.3428 19.4824 41.1571 19.4824 43.9317C19.4824 46.7196 20.9304 49.5207 24.1497 49.5207C26.1019 49.5207 27.5758 48.5033 28.2998 46.6535L28.3774 46.4553H27.6663L27.6275 46.5478C27.0845 47.8162 26.0244 48.5693 24.7961 48.5693C23.2447 48.5693 21.4347 47.3538 21.4347 43.9317V43.7467H28.5455ZM24.1626 38.8581C24.9642 38.8581 26.3346 39.4262 26.6062 43.2314H21.4605C21.6286 40.5757 22.6758 38.8581 24.1626 38.8581Z" fill="#6C7D36"/>
<path d="M44.9791 49.2163C44.8239 49.0974 44.6817 48.9785 44.6171 48.7935V48.7803C44.5136 48.5689 44.4619 48.2253 44.4619 47.7497V37.7477L44.2163 37.9988C44.1128 38.1045 43.8025 38.3952 43.2983 38.6858C42.7683 38.9633 42.2899 39.0426 41.9796 39.069L41.5659 39.0954L41.9408 39.3465C42.1735 39.505 42.4321 39.6768 42.4321 40.7866V47.7497C42.4321 48.7803 42.2252 48.9917 41.915 49.2031L41.5788 49.4277C41.5142 46.9041 38.9931 45.0675 35.5282 45.0675H32.9683L33.4337 44.3012C34.0672 44.539 34.7783 44.6579 35.5411 44.6579C39.1611 44.6579 40.7772 42.0815 40.7772 39.5314C40.7772 37.8138 40.092 36.3208 38.8896 35.4091C39.1482 35.0391 39.4068 34.8674 39.6783 34.8674C40.0403 34.8674 40.3764 35.1977 40.6221 35.7658L40.635 35.8055C41.0487 37.1928 42.0055 37.5628 42.5355 37.642C43.2078 37.7609 43.9318 37.5495 44.2033 37.1532C44.5395 36.6907 44.5007 36.0962 44.4102 35.898C43.6345 33.9029 41.6305 33.7443 41.0358 33.7443C40.5316 33.7443 40.0274 33.8368 39.6912 33.9953C39.2258 34.1671 38.8121 34.5371 38.4242 35.1052C37.5838 34.6296 36.64 34.3917 35.5411 34.3917C32.4253 34.3917 30.3308 36.4661 30.3308 39.5447C30.3308 41.553 31.2875 43.2442 32.9036 44.0766L31.9728 45.6489H35.5411C37.6485 45.6489 39.1223 47.2476 39.1223 49.5334C39.1223 51.7399 37.6226 53.3386 35.5411 53.3386C32.4382 53.3386 31.3263 50.3658 31.3263 47.829V47.2212L29.6327 50.6697L29.6456 50.7225C30.1369 52.5855 32.6709 53.9861 35.5282 53.9861C39.0965 53.9861 41.5788 52.1495 41.5788 49.5334C41.5788 49.5202 41.5788 49.4938 41.5788 49.4805H45.3281L44.9791 49.2163ZM32.8131 39.5579C32.8131 36.1622 34.2094 34.9467 35.5152 34.9467C37.5321 34.9467 38.2432 37.3249 38.2432 39.5579C38.2432 42.9403 36.834 44.1426 35.5152 44.1426C34.2094 44.1426 32.8131 42.9271 32.8131 39.5579Z" fill="#6C7D36"/>
<path d="M65.3945 36.3466C65.3945 37.0337 65.9763 37.6282 66.6615 37.6282C67.3468 37.6282 67.9156 37.0601 67.9156 36.3466C67.9156 35.6331 67.3597 35.0518 66.6615 35.0518C65.9634 35.0518 65.3945 35.6331 65.3945 36.3466Z" fill="#6C7D36"/>
<path d="M96.0614 47.5383V33.665L95.8157 33.9425C95.596 34.1803 95.2727 34.4314 94.8978 34.6163C94.3936 34.8938 93.9282 34.9731 93.5791 35.0259L93.2041 35.0788L93.5532 35.3166C93.7859 35.4752 94.0187 35.6337 94.0187 36.7304V39.2143C93.6179 38.7387 92.9456 38.3423 92.1828 38.3423C89.4031 38.3423 87.9551 41.3812 87.9551 44.3805C87.9551 47.6044 89.5324 49.5334 92.1828 49.5334C93.0619 49.5334 93.7342 49.2295 94.0445 49.0445C94.0962 49.2559 94.2514 49.4409 94.6134 49.4409H94.7168L96.9018 49.2295L96.5398 48.9785C96.307 48.7935 96.0614 48.6349 96.0614 47.5383ZM94.0187 46.6266C94.0187 47.9479 93.2171 48.9785 92.1828 48.9785C91.3295 48.9785 89.9073 48.3839 89.9073 44.3937C89.9073 41.4737 91.0192 39.0954 92.4026 39.0954C93.1007 39.0954 93.773 39.6636 94.0187 40.4431V46.6266Z" fill="#6C7D36"/>
<path d="M52.6973 48.3967C52.1802 48.3967 51.9216 48.0796 51.9216 47.4322V38.9365H53.7963V38.4212H51.9216V35.5144H51.4174L51.4044 35.6465C51.3139 36.6243 50.8097 37.5227 50.0986 38.0248L51.2622 34.6159L51.1846 34.5499C50.7451 34.2063 49.7754 33.8496 48.948 33.8496C47.125 33.8496 46.3234 35.2105 46.3105 38.408H45.4184V38.9365H46.3105V47.7757C46.3105 48.8063 46.1037 49.0309 45.7934 49.2291L45.3926 49.4934H49.2066L48.8704 49.2291C48.7023 49.097 48.573 48.9913 48.4955 48.7931C48.405 48.5949 48.3533 48.2778 48.3533 47.7625V38.9233H49.8918V47.2076C49.8918 48.7534 50.4865 49.533 51.6372 49.533C52.7749 49.533 53.667 48.5156 53.7704 48.3967L54.197 47.8814L53.6023 48.1589C53.5118 48.1985 53.0981 48.3967 52.6973 48.3967ZM49.7754 38.1966L49.7366 38.2098C49.0902 38.5005 48.5989 38.3419 48.4308 38.2626C48.405 38.2494 48.405 38.2494 48.405 38.2494C48.2369 38.1305 48.1076 37.9191 48.0171 37.5359C47.862 36.981 47.7844 36.4525 47.7844 35.9768C47.7844 35.0916 48.0818 34.497 48.5084 34.497C48.9997 34.497 49.7754 35.3426 49.9176 37.6945L49.9435 38.1041C49.8788 38.1437 49.8271 38.1701 49.7754 38.1966Z" fill="#6C7D36"/>
<path d="M50.0979 28.1289C50.0979 28.631 50.4986 29.0538 51.0029 29.0538H57.8551V13.9121H50.0979V28.1289Z" fill="#6C7D36"/>
<path d="M63.1311 29.0406H69.9833C70.4746 29.0406 70.8883 28.631 70.8883 28.1157V13.9121H63.1311V29.0406Z" fill="#6C7D36"/>
<path d="M62.0067 13.8994H58.9943V29.0675H62.0067V13.8994Z" fill="#6C7D36"/>
<path d="M74.0429 2.58922C73.2154 2.58922 72.5431 3.27627 72.5431 4.12188C72.5431 4.61075 72.7758 5.04676 73.1249 5.32423C72.569 6.03771 71.7027 6.50015 70.7331 6.50015C69.1041 6.50015 67.7853 5.20531 67.6819 3.58016C68.4576 3.5141 69.0653 2.86668 69.0653 2.06071C69.0653 1.2151 68.393 0.528046 67.5655 0.528046C66.7381 0.528046 66.0658 1.2151 66.0658 2.06071C66.0658 2.61564 66.3632 3.10451 66.8028 3.36876C66.3373 4.49183 65.2513 5.27138 63.9843 5.27138C62.5621 5.27138 61.3727 4.28043 61.0236 2.93274C61.5666 2.70813 61.9545 2.1532 61.9545 1.51899C61.9545 0.673385 61.2951 -0.000459251 60.4677 -0.0136719C59.6402 -0.0136719 58.9809 0.673385 58.9809 1.51899C58.9809 2.1532 59.3687 2.70813 59.9117 2.93274C59.5627 4.28043 58.3732 5.27138 56.9511 5.27138C55.684 5.27138 54.611 4.47862 54.1326 3.36876C54.5722 3.10451 54.8695 2.61564 54.8695 2.06071C54.8695 1.2151 54.1972 0.528046 53.3698 0.528046C52.5424 0.528046 51.8701 1.2151 51.8701 2.06071C51.8701 2.86668 52.4777 3.5141 53.2534 3.58016C53.15 5.21853 51.8313 6.50015 50.2023 6.50015C49.2326 6.50015 48.3664 6.03771 47.8104 5.32423C48.1595 5.04676 48.3922 4.61075 48.3922 4.12188C48.3922 3.27627 47.7199 2.58922 46.8925 2.58922C46.0651 2.58922 45.3928 3.27627 45.3928 4.12188C45.3928 4.96749 46.0651 5.65454 46.8925 5.65454C46.9442 5.65454 46.9959 5.64133 47.0477 5.64133L48.9223 13.2386C48.9223 13.2386 52.4648 12.1287 60.4289 12.1287C68.393 12.1287 71.9355 13.2386 71.9355 13.2386L73.8101 5.64133C73.8618 5.64133 73.9136 5.65454 73.9653 5.65454C74.7927 5.65454 75.465 4.96749 75.465 4.12188C75.465 3.27627 74.8703 2.58922 74.0429 2.58922Z" fill="#6C7D36"/>
</g>
<defs>
<clipPath id="clip0_3045_14266">
<rect width="121" height="54" fill="white"/>
</clipPath>
</defs>
</svg>
