<svg width="50" height="50" viewBox="0 0 50 50" fill="none" xmlns="http://www.w3.org/2000/svg">
<path d="M39.5833 39.5834C39.5833 41.8846 37.7179 43.7501 35.4167 43.7501C33.1155 43.7501 31.25 41.8846 31.25 39.5834C31.25 37.2822 33.1155 35.4167 35.4167 35.4167C37.7179 35.4167 39.5833 37.2822 39.5833 39.5834Z" stroke="#6D7D36" stroke-width="2"/>
<path d="M18.7462 39.5834C18.7462 41.8846 16.8807 43.7501 14.5795 43.7501C12.2784 43.7501 10.4129 41.8846 10.4129 39.5834C10.4129 37.2822 12.2784 35.4167 14.5795 35.4167C16.8807 35.4167 18.7462 37.2822 18.7462 39.5834Z" stroke="#6D7D36" stroke-width="2"/>
<path d="M4.16666 20.8333V39.5479H10.4167M25 11.4583L30.2083 11.4583V26.0416H45.8333V39.5479L39.5833 39.5833M18.75 39.5482H31.25" stroke="#6D7D36" stroke-width="2" stroke-linejoin="round"/>
<path d="M30.2083 15.6248L39.5833 15.6248L45.8333 26.0414" stroke="#6D7D36" stroke-width="2"/>
<path d="M12.5 18.75L18.75 12.5M18.75 12.5L12.5 6.25M18.75 12.5H4.16666" stroke="#6D7D36" stroke-width="2"/>
</svg>
