<svg width="50" height="50" viewBox="0 0 50 50" fill="none" xmlns="http://www.w3.org/2000/svg">
<path d="M39.5833 18.7583L40.1372 17.9257C39.8388 17.7272 39.457 17.7035 39.1364 17.8637L39.5833 18.7583ZM45.8333 22.9167H46.8333C46.8333 22.582 46.6659 22.2695 46.3872 22.0841L45.8333 22.9167ZM45.8333 31.25L46.388 32.0821C46.6662 31.8966 46.8333 31.5844 46.8333 31.25H45.8333ZM35.4166 33.3271H34.4166V33.9443L34.9683 34.221L35.4166 33.3271ZM39.5833 35.4167L39.135 36.3106C39.4562 36.4717 39.839 36.4481 40.138 36.2488L39.5833 35.4167ZM35.4166 20.8396L34.9698 19.945L34.4166 20.2213V20.8396H35.4166ZM36.4166 33.3271V20.8396H34.4166V33.3271H36.4166ZM39.0294 19.5909L45.2794 23.7493L46.3872 22.0841L40.1372 17.9257L39.0294 19.5909ZM44.8333 22.9167V31.25H46.8333V22.9167H44.8333ZM34.9683 34.221L39.135 36.3106L40.0316 34.5228L35.8649 32.4332L34.9683 34.221ZM35.8635 21.7342L40.0302 19.6529L39.1364 17.8637L34.9698 19.945L35.8635 21.7342ZM45.2786 30.418L39.0286 34.5847L40.138 36.2488L46.388 32.0821L45.2786 30.418Z" fill="#6D7D36"/>
<path d="M14.5833 33.3271L15.0316 34.221L15.5833 33.9443V33.3271H14.5833ZM14.5833 20.8396H15.5833V20.2213L15.0302 19.945L14.5833 20.8396ZM10.4166 18.7583L10.8635 17.8637C10.5429 17.7035 10.1611 17.7272 9.86269 17.9257L10.4166 18.7583ZM4.16663 22.9167L3.61269 22.0841C3.33405 22.2695 3.16663 22.582 3.16663 22.9167H4.16663ZM4.16663 31.25H3.16663C3.16663 31.5844 3.33373 31.8966 3.61193 32.0821L4.16663 31.25ZM10.4166 35.4167L9.86193 36.2488C10.1609 36.4481 10.5438 36.4717 10.8649 36.3106L10.4166 35.4167ZM15.5833 33.3271V20.8396H13.5833V33.3271H15.5833ZM9.86269 17.9257L3.61269 22.0841L4.72056 23.7493L10.9706 19.5909L9.86269 17.9257ZM3.16663 22.9167V31.25H5.16663V22.9167H3.16663ZM14.135 32.4332L9.96833 34.5228L10.8649 36.3106L15.0316 34.221L14.135 32.4332ZM15.0302 19.945L10.8635 17.8637L9.96976 19.6529L14.1364 21.7342L15.0302 19.945ZM3.61193 32.0821L9.86193 36.2488L10.9713 34.5847L4.72133 30.418L3.61193 32.0821Z" fill="#6D7D36"/>
<path d="M10.4166 18.75C10.4166 11.8464 16.9458 6.25 25 6.25C33.0541 6.25 39.5833 11.8464 39.5833 18.75" stroke="#6D7D36" stroke-width="2" stroke-linejoin="round"/>
<path d="M39.5833 35.4167V43.7501H25" stroke="#6D7D36" stroke-width="2" stroke-linejoin="round"/>
</svg>
