<?xml version="1.0" encoding="utf-8"?>
<!-- Generator: Adobe Illustrator 23.1.1, SVG Export Plug-In . SVG Version: 6.00 Build 0)  -->
<svg version="1.1" id="Calque_1" xmlns="http://www.w3.org/2000/svg" xmlns:xlink="http://www.w3.org/1999/xlink" x="0px" y="0px"
	 viewBox="0 0 116.5 90.6" style="enable-background:new 0 0 116.5 90.6;" xml:space="preserve">
 <g>
    <path
      class="st0"
      style="fill:#231F20;"
      d="M21.2,90.1v-6c0.1-2-1.3-3.7-3.3-3.8c-0.2,0-0.3,0-0.5,0c-1.3-0.1-2.6,0.6-3.4,1.7c-0.7-1.1-1.9-1.8-3.2-1.7
  c-1.1-0.1-2.2,0.5-2.8,1.4v-1.2H6v9.6h2.1v-5.3c-0.2-1.2,0.7-2.4,1.9-2.5c0.1,0,0.3,0,0.4,0c1.4,0,2.1,0.9,2.1,2.5v5.3h2.1v-5.3
  c-0.2-1.2,0.7-2.4,1.9-2.5c0.1,0,0.3,0,0.4,0c1.4,0,2.1,0.9,2.1,2.5v5.3L21.2,90.1z M52.3,80.6h-3.4v-2.9h-2.1v2.9h-1.9v1.9h1.9
  v4.4c0,2.2,0.9,3.5,3.3,3.5c0.9,0,1.8-0.3,2.6-0.7l-0.6-1.8c-0.6,0.3-1.2,0.5-1.8,0.5c-1,0-1.4-0.6-1.4-1.6v-4.4h3.4L52.3,80.6z
   M70,80.3c-1,0-2,0.5-2.5,1.4v-1.2h-2.1v9.6h2.1v-5.4c0-1.6,0.7-2.5,2-2.5c0.4,0,0.9,0.1,1.3,0.2l0.6-2C71,80.4,70.5,80.3,70,80.3
  L70,80.3z M43.2,81.3c-1.2-0.7-2.5-1-3.9-1c-2.4,0-4,1.2-4,3.1c0,1.6,1.2,2.5,3.3,2.8l1,0.1c1.1,0.2,1.7,0.5,1.7,1
  c0,0.7-0.8,1.2-2.2,1.2c-1.1,0-2.3-0.3-3.2-1l-1,1.6c1.2,0.8,2.7,1.3,4.1,1.2c2.8,0,4.4-1.3,4.4-3.1s-1.3-2.6-3.3-2.9l-1-0.1
  c-0.9-0.1-1.6-0.3-1.6-0.9c0-0.6,0.7-1.1,1.8-1.1c1.1,0,2.1,0.3,3,0.8L43.2,81.3z M98.9,80.3c-1,0-2,0.5-2.5,1.4v-1.2h-2.1v9.6h2.1
  v-5.4c0-1.6,0.7-2.5,2-2.5c0.4,0,0.9,0.1,1.3,0.2l0.6-2C99.9,80.4,99.4,80.3,98.9,80.3L98.9,80.3z M72.1,85.3c-0.1,2.7,2,4.9,4.6,5
  c0.1,0,0.3,0,0.5,0c1.2,0.1,2.5-0.3,3.4-1.1l-1-1.7c-0.7,0.5-1.6,0.9-2.5,0.9c-1.7-0.1-2.9-1.6-2.8-3.3c0.1-1.5,1.3-2.7,2.8-2.8
  c0.9,0,1.8,0.3,2.5,0.9l1-1.7c-1-0.8-2.2-1.2-3.4-1.1c-2.7-0.2-4.9,1.9-5.1,4.5C72.1,85,72.1,85.1,72.1,85.3L72.1,85.3z M91.6,85.3
  v-4.8h-2.1v1.2c-0.7-0.9-1.8-1.4-3-1.4c-2.8,0-5,2.2-5,5s2.2,5,5,5c1.2,0,2.3-0.5,3-1.4v1.2h2.1V85.3z M83.8,85.3
  c0.1-1.6,1.5-2.8,3.1-2.7c1.6,0.1,2.8,1.5,2.7,3.1c-0.1,1.5-1.3,2.7-2.9,2.7c-1.6,0-2.9-1.2-2.9-2.8L83.8,85.3z M58.7,80.3
  c-2.8,0-5,2.3-4.9,5.1c0,2.8,2.3,5,5.1,4.9c1.4,0.1,2.9-0.4,4-1.3l-1-1.5c-0.8,0.6-1.8,1-2.8,1c-1.4,0.1-2.7-0.9-2.9-2.3h7.1
  c0-0.3,0-0.5,0-0.8C63.3,82.3,61.4,80.3,58.7,80.3L58.7,80.3z M58.7,82.2c1.3,0,2.4,1,2.4,2.3v0h-5C56.2,83.2,57.4,82.1,58.7,82.2
  L58.7,82.2z M110.8,85.3v-8.6h-2v5c-0.7-0.9-1.8-1.4-3-1.4c-2.8,0-5,2.2-5,5s2.2,5,5,5c1.2,0,2.3-0.5,3-1.4v1.2h2V85.3z
   M114.3,88.7c0.1,0,0.3,0,0.4,0.1c0.1,0,0.2,0.1,0.3,0.2c0.1,0.1,0.2,0.2,0.2,0.3c0.1,0.2,0.1,0.5,0,0.7c-0.1,0.1-0.1,0.2-0.2,0.3
  c-0.1,0.1-0.2,0.2-0.3,0.2c-0.1,0.1-0.2,0.1-0.4,0.1c-0.4,0-0.7-0.2-0.9-0.6c-0.1-0.2-0.1-0.5,0-0.7c0.1-0.1,0.1-0.2,0.2-0.3
  c0.1-0.1,0.2-0.2,0.3-0.2C114.1,88.7,114.2,88.7,114.3,88.7L114.3,88.7z M114.3,90.4c0.1,0,0.2,0,0.3-0.1l0.2-0.2
  c0.3-0.3,0.3-0.7,0-1l-0.2-0.2c-0.1,0-0.2-0.1-0.3-0.1s-0.2,0-0.3,0.1l-0.2,0.2c-0.3,0.3-0.3,0.7,0,1l0.2,0.2
  C114.1,90.4,114.2,90.4,114.3,90.4L114.3,90.4z M114.4,89.2c0.1,0,0.2,0,0.3,0.1l0.1,0.2l-0.1,0.2l-0.2,0.1l0.3,0.3h-0.2l-0.3-0.3
  h-0.1v0.3H114v-0.9L114.4,89.2z M114.2,89.4v0.2h0.2h0.1v-0.1v-0.1h-0.1L114.2,89.4z M103.2,85.3c0.1-1.6,1.5-2.8,3.1-2.7
  c1.6,0.1,2.8,1.5,2.7,3.1c-0.1,1.5-1.3,2.7-2.9,2.7c-1.6,0-2.9-1.2-2.9-2.8L103.2,85.3z M32.9,85.3v-4.8h-2.1v1.2
  c-0.7-0.9-1.8-1.4-3-1.4c-2.8,0-5,2.2-5,5s2.2,5,5,5c1.2,0,2.3-0.5,3-1.4v1.2h2.1V85.3z M25.2,85.3c0.1-1.6,1.5-2.8,3.1-2.7
  c1.6,0.1,2.8,1.5,2.7,3.1c-0.1,1.5-1.3,2.7-2.9,2.7c-1.6,0-2.9-1.2-2.9-2.8L25.2,85.3L25.2,85.3z"
    />
    <rect x="42.5" y="7.7" class="st1" style="fill:#FF5F00;" width="31.5" height="56.6" />
    <path
      class="st2"
      style="fill:#EB001B;"
      d="M44.5,36c0-11,5.1-21.5,13.8-28.3C42.6-4.6,20-1.9,7.7,13.8C-4.6,29.4-1.9,52,13.8,64.3
  c13.1,10.3,31.4,10.3,44.5,0C49.6,57.5,44.5,47.1,44.5,36z"
    />
    <path
      class="st3"
      style="fill:#F79E1B;"
      d="M116.5,36c0,19.9-16.1,36-36,36c-8.1,0-15.9-2.7-22.2-7.7C73.9,52,76.6,29.4,64.3,13.8
  c-1.8-2.3-3.8-4.3-6.1-6.1c15.6-12.3,38.3-9.6,50.6,6.1C113.8,20.1,116.5,27.9,116.5,36L116.5,36z"
    />
    <path
      class="st3"
      style="fill:#F79E1B;"
      d="M113.1,58.3v-1.2h0.5v-0.2h-1.2v0.2h0.5v1.2H113.1z M115.4,58.3v-1.4H115l-0.4,1l-0.4-1h-0.3v1.4h0.3v-1
  l0.4,0.9h0.3l0.4-0.9v1.1L115.4,58.3z"
    />
  </g>
</svg>
