<?xml version="1.0" encoding="utf-8"?>
<!-- Generator: Adobe Illustrator 23.1.1, SVG Export Plug-In . SVG Version: 6.00 Build 0)  -->
<svg version="1.1" id="Calque_1" xmlns="http://www.w3.org/2000/svg" xmlns:xlink="http://www.w3.org/1999/xlink" x="0px" y="0px"
	 viewBox="0 0 624.1 166.3" style="enable-background:new 0 0 624.1 166.3;" xml:space="preserve">
  <g transform="matrix(2.07675 0 0 -2.07675 -11.153 92.77)">
    <g>
      <g>
        <path
          class="st0"
          style="fill:#009CDE;"
          d="M210.9,22.8c-1.3-8.4-7.7-8.4-13.9-8.4h-3.5l2.5,15.7c0.2,0.9,1,1.6,1.9,1.6h1.6c4.2,0,8.2,0,10.3-2.4
      C211,27.9,211.3,25.7,210.9,22.8 M208.2,44.7h-23.4c-1.6,0-3-1.2-3.2-2.7L172.1-18c-0.2-1.1,0.6-2.1,1.6-2.2c0.1,0,0.2,0,0.3,0
      h12c1.1,0,2.1,0.8,2.2,1.9l2.7,17c0.2,1.6,1.6,2.7,3.2,2.7h7.4c15.4,0,24.3,7.4,26.6,22.2c1,6.5,0,11.5-3,15.1
      C221.9,42.6,216,44.7,208.2,44.7"
        />
        <path
          class="st1"
          style="fill:#003087;"
          d="M44.1,22.8c-1.3-8.4-7.7-8.4-13.9-8.4h-3.5l2.5,15.7c0.2,0.9,1,1.6,1.9,1.6h1.6c4.2,0,8.2,0,10.3-2.4
      C44.2,27.9,44.6,25.7,44.1,22.8 M41.4,44.7H18.1c-1.6,0-3-1.2-3.2-2.7L5.4-18C5.2-19.1,6-20.1,7-20.2c0.1,0,0.2,0,0.3,0h11.2
      c1.6,0,3,1.2,3.2,2.7l2.6,16.2c0.2,1.6,1.6,2.7,3.2,2.7h7.4c15.4,0,24.3,7.5,26.6,22.2c1,6.5,0,11.5-3,15.1
      C55.1,42.6,49.3,44.7,41.4,44.7 M95.7,1.3C94.6-5.1,89.5-9.4,83.1-9.4c-3.2,0-5.8,1-7.5,3c-1.7,2-2.3,4.8-1.8,7.9
      c1,6.3,6.2,10.8,12.5,10.8c3.2,0,5.8-1.1,7.5-3.1C95.5,7.2,96.2,4.4,95.7,1.3 M111.3,23h-11.2c-1,0-1.8-0.7-1.9-1.6l-0.5-3.1
      l-0.8,1.1c-2.4,3.5-7.8,4.7-13.2,4.7c-12.4,0-22.9-9.4-25-22.5c-1.1-6.6,0.4-12.8,4.2-17.2c3.4-4,8.3-5.7,14.1-5.7
      c10,0,15.5,6.4,15.5,6.4L92-18c-0.2-1.1,0.6-2.1,1.6-2.2c0.1,0,0.2,0,0.3,0H104c1.6,0,3,1.2,3.2,2.7l6.1,38.3
      c0.2,1.1-0.6,2.1-1.6,2.2C111.5,23,111.4,23,111.3,23"
        />
        <path
          class="st0"
          style="fill:#009CDE;"
          d="M262.4,1.3c-1.1-6.4-6.2-10.7-12.6-10.7c-3.2,0-5.8,1-7.5,3c-1.7,2-2.3,4.8-1.8,7.9
      c1,6.3,6.2,10.8,12.5,10.8c3.2,0,5.8-1.1,7.5-3.1C262.2,7.2,262.9,4.4,262.4,1.3 M278,23h-11.2c-1,0-1.8-0.7-1.9-1.6l-0.5-3.1
      l-0.8,1.1c-2.4,3.5-7.8,4.7-13.2,4.7c-12.4,0-22.9-9.4-25-22.5c-1.1-6.6,0.5-12.8,4.2-17.2c3.4-4,8.3-5.7,14.1-5.7
      c10,0,15.5,6.4,15.5,6.4l-0.5-3.1c-0.2-1.1,0.5-2.1,1.6-2.2c0.1,0,0.2,0,0.3,0h10.1c1.6,0,3,1.2,3.2,2.7l6.1,38.3
      c0.2,1.1-0.6,2.1-1.6,2.2C278.2,23,278.1,23,278,23"
        />
        <path
          class="st1"
          style="fill:#003087;"
          d="M170.9,23h-11.3c-1.1,0-2.1-0.5-2.7-1.4L141.5-1.2l-6.6,22c-0.4,1.4-1.7,2.3-3.1,2.3h-11.1
      c-1.1,0-1.9-0.9-1.9-2c0-0.2,0-0.4,0.1-0.6l12.4-36.4l-11.7-16.4c-0.6-0.9-0.4-2.1,0.5-2.7c0.3-0.2,0.7-0.4,1.1-0.4h11.2
      c1.1,0,2.1,0.5,2.7,1.4l37.4,54c0.6,0.9,0.4,2.1-0.5,2.7C171.7,22.9,171.3,23,170.9,23"
        />
        <path
          class="st0"
          style="fill:#009CDE;"
          d="M291.2,43l-9.6-61c-0.2-1.1,0.6-2.1,1.6-2.2c0.1,0,0.2,0,0.3,0h9.6c1.6,0,3,1.2,3.2,2.7l9.5,59.9
      c0.2,1.1-0.6,2.1-1.6,2.2c-0.1,0-0.2,0-0.3,0h-10.8C292.2,44.7,291.4,44,291.2,43"
        />
      </g>
    </g>
  </g>
</svg>
