<?xml version="1.0" encoding="utf-8"?>
<!-- Generator: Adobe Illustrator 23.1.1, SVG Export Plug-In . SVG Version: 6.00 Build 0)  -->
<svg version="1.1" id="Calque_1" xmlns="http://www.w3.org/2000/svg" xmlns:xlink="http://www.w3.org/1999/xlink" x="0px" y="0px"
	 viewBox="0 0 122 76.2" style="enable-background:new 0 0 122 76.2;" xml:space="preserve">
    <g>
        <path
          class="st0"
          style="fill:#F1F2F2;"
          d="M122,70.2c0,3.3-2.7,6-6,6H6c-3.3,0-6-2.7-6-6V6c0-3.3,2.7-6,6-6h110c3.3,0,6,2.7,6,6V70.2z"
        />
        <path
          class="st1"
          style="fill:#F58220;"
          d="M33.5,76.2h84.4c2.2,0,4.1-1.8,4.1-4.1V43.6C113.9,48.7,83.4,66.4,33.5,76.2z"
        />

        <radialGradient
          id="SVGID_1_discover"
          cx="0"
          cy="76.2"
          r="1"
          gradientTransform="matrix(6.0061 0 0 -6.0061 62.4823 495.7596)"
          gradientUnits="userSpaceOnUse"
        >
          <stop offset="0" style="stop-color:#FFEEE0" />
          <stop offset="5.618000e-03" style="stop-color:#FFEEE0" />
          <stop offset="0.1096" style="stop-color:#FEE9D7" />
          <stop offset="0.2793" style="stop-color:#FDDBBF" />
          <stop offset="0.4935" style="stop-color:#FBC597" />
          <stop offset="0.744" style="stop-color:#F8A560" />
          <stop offset="1" style="stop-color:#F48120" />
        </radialGradient>
        <path
          class="st2"
          style="fill:url(#SVGID_1_discover);"
          d="M62.5,32.2c-3.4,0-6.1,2.6-6.1,5.9c0,3.4,2.6,6,6.1,6c3.4,0,6.1-2.6,6.1-6C68.6,34.8,65.9,32.2,62.5,32.2z"
        />
        <path
          class="st3"
          style="fill:#001722;"
          d="M27.9,32.4h-3.3v11.4h3.3c1.7,0,3-0.4,4.1-1.3c1.3-1.1,2.1-2.7,2.1-4.4C34.1,34.7,31.5,32.4,27.9,32.4z
        M30.5,40.9c-0.7,0.6-1.6,0.9-3.1,0.9h-0.6v-7.5h0.6c1.4,0,2.3,0.3,3.1,0.9c0.8,0.7,1.2,1.7,1.2,2.8C31.8,39.2,31.3,40.3,30.5,40.9
        z"
        />
        <rect x="35.1" y="32.4" width="2.2" height="11.4" />
        <path
          class="st3"
          style="fill:#001722;"
          d="M42.8,36.8c-1.3-0.5-1.7-0.8-1.7-1.4c0-0.7,0.7-1.3,1.7-1.3c0.7,0,1.2,0.3,1.8,0.9l1.2-1.5
        c-1-0.8-2.1-1.3-3.4-1.3c-2,0-3.6,1.4-3.6,3.3c0,1.6,0.7,2.4,2.8,3.1c0.9,0.3,1.3,0.5,1.5,0.7c0.4,0.3,0.7,0.7,0.7,1.2
        c0,0.9-0.7,1.6-1.7,1.6c-1.1,0-1.9-0.5-2.4-1.5L38.3,42c1,1.5,2.3,2.2,4,2.2c2.3,0,3.9-1.5,3.9-3.8C46,38.5,45.3,37.7,42.8,36.8z"
        />
        <path
          class="st3"
          style="fill:#001722;"
          d="M46.7,38.1c0,3.4,2.6,6,6,6c1,0,1.8-0.2,2.8-0.7v-2.6c-0.9,0.9-1.7,1.2-2.7,1.2c-2.2,0-3.8-1.6-3.8-3.9
        c0-2.2,1.6-3.9,3.7-3.9c1.1,0,1.9,0.4,2.8,1.3v-2.6c-1-0.5-1.8-0.7-2.7-0.7C49.4,32.1,46.7,34.8,46.7,38.1z"
        />
        <polygon
          class="st3"
          style="fill:#001722;"
          points="73.6,40 70.6,32.4 68.1,32.4 73,44.1 74.2,44.1 79.1,32.4 76.7,32.4 	"
        />
        <polygon
          class="st3"
          style="fill:#001722;"
          points="80.1,43.8 86.4,43.8 86.4,41.9 82.3,41.9 82.3,38.8 86.3,38.8 86.3,36.8 82.3,36.8 82.3,34.3
        86.4,34.3 86.4,32.4 80.1,32.4 	"
        />
        <path
          class="st3"
          style="fill:#001722;"
          d="M95.2,35.7c0-2.1-1.5-3.4-4-3.4h-3.3v11.4h2.2v-4.6h0.3l3.1,4.6h2.7l-3.6-4.8C94.3,38.6,95.2,37.5,95.2,35.7z
        M90.8,37.6h-0.6v-3.5h0.7c1.4,0,2.1,0.6,2.1,1.7C92.9,37,92.2,37.6,90.8,37.6z"
        />
        <path
          class="st4"
          style="fill:#231F20;"
          d="M96.8,33.2c0-0.2-0.1-0.3-0.4-0.3h-0.3v1h0.2v-0.4l0.3,0.4h0.3l-0.3-0.4C96.7,33.5,96.8,33.4,96.8,33.2z
        M96.4,33.4L96.4,33.4v-0.3c0.1,0,0.2,0,0.2,0.1C96.6,33.3,96.5,33.4,96.4,33.4z"
        />
        <path
          class="st4"
          style="fill:#231F20;"
          d="M96.5,32.5c-0.5,0-0.9,0.4-0.9,0.9s0.4,0.9,0.9,0.9s0.9-0.4,0.9-0.9C97.3,32.9,97,32.5,96.5,32.5z M96.5,34.1
        c-0.4,0-0.7-0.3-0.7-0.7s0.3-0.7,0.7-0.7s0.7,0.3,0.7,0.7S96.9,34.1,96.5,34.1z"
        />
      </g>
</svg>
