<?xml version="1.0" encoding="utf-8"?>
<!-- Generator: Adobe Illustrator 23.1.1, SVG Export Plug-In . SVG Version: 6.00 Build 0)  -->
<svg version="1.1" id="Calque_1" xmlns="http://www.w3.org/2000/svg" xmlns:xlink="http://www.w3.org/1999/xlink" x="0px" y="0px"
	 viewBox="0 0 328.3 106.5" style="enable-background:new 0 0 328.3 106.5;" xml:space="preserve">
   <g>
    <path
      style="fill:#2566AF;"
      d="M142.3,104.7h-26.8L132.3,1.8h26.8L142.3,104.7z M93,1.8L67.5,72.6l-3-15.2l0,0l-9-46.3c0,0-1.1-9.3-12.7-9.3
		H0.5L0,3.6c0,0,12.9,2.7,28,11.8l23.3,89.4h27.9L121.8,1.8L93,1.8L93,1.8z M303.7,104.7h24.6L306.9,1.8h-21.5
		c-9.9,0-12.4,7.7-12.4,7.7l-40,95.2h27.9l5.6-15.3h34.1L303.7,104.7L303.7,104.7z M274.2,68.3l14.1-38.5l7.9,38.5H274.2z
		 M235.1,26.6l3.8-22.1c0,0-11.8-4.5-24.1-4.5C201.5,0,170,5.8,170,34.1C170,60.6,207,61,207,74.9s-33.2,11.5-44.2,2.7l-4,23.1
		c0,0,12,5.8,30.2,5.8c18.3,0,45.9-9.5,45.9-35.2c0-26.8-37.4-29.2-37.4-40.9C197.6,18.8,223.6,20.3,235.1,26.6L235.1,26.6z"
    />
  </g>
  <path
    style="fill:#E6A540;"
    d="M64.4,57.4l-9-46.3c0,0-1.1-9.3-12.7-9.3H0.5L0,3.6c0,0,20.3,4.2,39.8,20C58.4,38.6,64.4,57.4,64.4,57.4z"
  />
</svg>
