<svg xmlns="http://www.w3.org/2000/svg" width="58.974" height="32.247" viewBox="0 0 58.974 32.247">
  <g id="sell4icon4" transform="translate(-1305.267 -4291.643)">
    <g id="Group_40155" data-name="Group 40155" transform="translate(1305.267 4291.643)">
      <path id="Path_8289" data-name="Path 8289" d="M-78.693-545c-.153-.662-.3-1.325-.459-1.985-.344-1.393-.691-2.786-1.054-4.174a.832.832,0,0,0-.3-.437,11.151,11.151,0,0,1-4.822-7.284,11.213,11.213,0,0,1,3.51-10.712c.408-.389.891-.7,1.325-1.06a.877.877,0,0,0,.287-.413q.747-2.922,1.462-5.853c.06-.245.147-.33.413-.329,2.854.012,5.708.008,8.562.008h.32c.076.3.153.6.228.9.433,1.727.87,3.453,1.292,5.183a.9.9,0,0,0,.4.56,11.34,11.34,0,0,1,4.9,8.052c.028.207.091.286.309.282.681-.013,1.362,0,2.067,0v2.288h-2.3c-.11.559-.191,1.1-.323,1.622a11.313,11.313,0,0,1-4.636,6.7.97.97,0,0,0-.418.617c-.49,2.015-1,4.026-1.5,6.038Zm13.852-16.13a9.23,9.23,0,0,0-9.229-9.193,9.222,9.222,0,0,0-9.191,9.2,9.227,9.227,0,0,0,9.211,9.209A9.228,9.228,0,0,0-64.841-561.127Z" transform="translate(85.56 577.244)"/>
      <path id="Path_8290" data-name="Path 8290" d="M29.354-461.96h2.287v.343c0,1.721-.006,3.441.008,5.162a1.1,1.1,0,0,0,.177.573c.749,1.113,1.516,2.213,2.3,3.348l-1.877,1.3c-.311-.447-.609-.875-.907-1.3-.616-.887-1.235-1.772-1.841-2.666a.879.879,0,0,1-.157-.457c-.01-2-.007-4.008-.006-6.011C29.336-461.761,29.347-461.853,29.354-461.96Z" transform="translate(-18.981 472.349)"/>
    </g>
    <g id="Group_40157" data-name="Group 40157" transform="translate(1319.573 4298.296)">
      <g id="Path_8282" data-name="Path 8282" transform="matrix(0.995, 0.105, -0.105, 0.995, 1.869, 0)">
        <path d="M 10.78715991973877 18.8757381439209 C 7.536310195922852 18.8757381439209 4.761250019073486 17.34453773498535 3.173520088195801 14.6747579574585 C 3.046970129013062 14.46202754974365 2.993979930877686 14.45897769927979 2.865970134735107 14.45159816741943 C 2.441319942474365 14.42723751068115 1.8854900598526 14.37412738800049 1.354470014572144 14.17814826965332 C -0.02427996695041656 13.66990756988525 -0.9925999641418457 12.31191825866699 -0.9999599456787109 10.87589740753174 C -1.00366997718811 10.12016773223877 -0.75996994972229 9.34224796295166 -0.3137299716472626 8.68521785736084 C 0.1777200400829315 7.961627960205078 0.8748900294303894 7.456357955932617 1.649360060691833 7.262477874755859 C 2.353450059890747 7.086297988891602 2.65637993812561 6.731688022613525 3.156739950180054 5.821208000183105 C 4.066880226135254 4.165037631988525 5.285369873046875 2.8854079246521 6.778379917144775 2.017877817153931 C 8.209673881530762 1.186217308044434 9.903759002685547 0.7285054922103882 11.81353855133057 0.657392144203186 C 11.9863977432251 0.6471461057662964 12.16138935089111 0.641947865486145 12.33388042449951 0.641947865486145 C 14.23071002960205 0.641947865486145 16.02791023254395 1.244787812232971 17.53117942810059 2.38527774810791 C 19.04121017456055 3.530887842178345 20.11067962646484 5.111327648162842 20.62398910522461 6.955728054046631 C 20.63542938232422 6.996854782104492 20.6457347869873 7.031652450561523 20.65493583679199 7.061056613922119 C 20.78866386413574 7.045875072479248 20.9425048828125 7.025276660919189 21.01927947998047 6.999222755432129 C 21.02652549743652 6.978798389434814 21.0362663269043 6.945489883422852 21.04537010192871 6.895427703857422 C 21.4006404876709 4.942517757415771 22.46196937561035 3.078887939453125 24.03388023376465 1.647777915000916 C 25.58028984069824 0.2398778647184372 27.52630996704102 -0.6685721278190613 29.51347923278809 -0.9102421402931213 C 30.00315093994141 -0.9698021411895752 30.48152923583984 -1.000002145767212 30.9353199005127 -1.000002145767212 C 32.7021598815918 -1.000002145767212 34.25588989257812 -0.5397321581840515 35.55334854125977 0.3679978549480438 C 36.55876159667969 1.071337819099426 37.30870819091797 2.105687856674194 37.97037124633789 3.018277883529663 L 38.10211944580078 3.199797868728638 L 38.12371826171875 3.229507923126221 C 38.23113632202148 3.377316236495972 38.39193344116211 3.598581552505493 38.46746826171875 3.647269248962402 C 38.47016525268555 3.647443532943726 38.47381210327148 3.647587776184082 38.47848892211914 3.647587776184082 L 38.48994064331055 3.647327899932861 C 38.53210830688477 3.645557880401611 38.57429122924805 3.644677877426147 38.61600875854492 3.644677877426147 C 39.45043182373047 3.644677877426147 40.24826812744141 3.997177839279175 40.86257171630859 4.637248039245605 C 41.39904022216797 5.19622802734375 41.74472045898438 5.924808025360107 41.81095886230469 6.636168003082275 C 41.95650100708008 8.20032787322998 40.9151611328125 10.26216793060303 39.18820190429688 10.72004795074463 C 38.54349136352539 10.89104747772217 38.19123077392578 11.1924877166748 37.79230117797852 11.91462802886963 C 36.0765495300293 15.0200777053833 32.80498123168945 16.94921875 29.25425910949707 16.94925880432129 C 28.34613037109375 16.94927787780762 27.44067001342773 16.82195854187012 26.56303977966309 16.57085800170898 C 23.73835945129395 15.76283740997314 21.84778022766113 13.80765819549561 21.09573936462402 10.91670799255371 C 21.08590888977051 10.87892055511475 21.07645225524902 10.84091472625732 21.06707954406738 10.8029727935791 C 21.06257057189941 10.80309772491455 21.05807495117188 10.80322265625 21.05357933044434 10.80334758758545 C 20.97392845153809 10.80555057525635 20.86811256408691 10.80847930908203 20.78680992126465 10.81545925140381 C 20.27963638305664 13.63529777526855 18.73538970947266 15.8420877456665 16.19672966003418 17.37484741210938 C 14.59352016448975 18.34271812438965 12.6723804473877 18.8757381439209 10.78715991973877 18.8757381439209 Z M 11.72673988342285 4.450478076934814 C 10.05364990234375 4.450478076934814 8.576640129089355 5.118517875671387 7.336730003356934 6.436038017272949 C 6.209000110626221 7.634347915649414 5.706270217895508 9.115298271179199 5.88286018371582 10.71879768371582 C 6.169264793395996 13.31926155090332 8.333600044250488 15.032883644104 11.39798736572266 15.08707141876221 C 13.05090808868408 15.07020282745361 14.67297840118408 14.2155294418335 15.84996032714844 12.74078750610352 C 17.03404998779297 11.2572078704834 17.38025093078613 9.367557525634766 16.77603912353516 7.685937881469727 C 16.20260047912598 6.089937686920166 14.89082050323486 4.967837810516357 13.17704963684082 4.607357978820801 C 12.68208026885986 4.503257751464844 12.19412040710449 4.450478076934814 11.72673988342285 4.450478076934814 Z M 30.09692573547363 2.883461952209473 C 28.01877975463867 2.927932500839233 26.2501163482666 4.148053646087646 25.24159049987793 6.234477996826172 C 24.35788917541504 8.063057899475098 24.4460506439209 9.743348121643066 25.50366020202637 11.22858810424805 C 26.41929054260254 12.51460742950439 27.64908981323242 13.16665744781494 29.15893936157227 13.16666793823242 C 29.43568992614746 13.16666793823242 29.7244701385498 13.14422798156738 30.01725006103516 13.09996795654297 C 32.53258895874023 12.71959781646729 34.19401931762695 11.32407760620117 34.95531845092773 8.952198028564453 C 35.43535995483398 7.456267833709717 35.27408981323242 6.026217937469482 34.50117874145508 4.925538063049316 C 33.62984848022461 3.684711217880249 32.06650543212891 2.960058689117432 30.09692573547363 2.883461952209473 Z" stroke="none"/>
        <path d="M 30.93534851074219 -1.9073486328125e-06 C 30.50857925415039 9.5367431640625e-06 30.07409286499023 0.02894210815429688 29.63420104980469 0.08244705200195312 C 25.9764289855957 0.5272769927978516 22.6879997253418 3.453067779541016 22.02923965454102 7.07432746887207 C 21.87368011474609 7.929867744445801 21.30429077148438 7.99832820892334 20.64108085632324 8.068428039550781 C 19.98809623718262 8.137225151062012 19.80619049072266 7.747167587280273 19.66060066223145 7.223847389221191 C 18.68959999084473 3.734867095947266 15.4614315032959 1.437814712524414 11.86166954040527 1.65629768371582 C 8.407329559326172 1.781957626342773 5.709831237792969 3.251708030700684 4.033119201660156 6.302818298339844 C 3.510879516601562 7.253128051757812 3.029651641845703 7.947927474975586 1.892200469970703 8.232547760009766 C 0.7439994812011719 8.519977569580078 -0.00537872314453125 9.771087646484375 3.0517578125e-05 10.87077808380127 C 0.00518035888671875 11.87609767913818 0.6861495971679688 12.86600780487061 1.700698852539062 13.23999786376953 C 2.083431243896484 13.38124847412109 2.511951446533203 13.42964744567871 2.923500061035156 13.4532585144043 C 3.444599151611328 13.4832878112793 3.769481658935547 13.72061729431152 4.033008575439453 14.16359806060791 C 6.582118988037109 18.44994735717773 12.03195953369141 18.72103691101074 15.67985916137695 16.51877784729004 C 17.90943908691406 15.17263793945312 19.34157943725586 13.22101783752441 19.80484008789062 10.62593841552734 C 19.96836090087891 9.709017753601074 20.66259002685547 9.833288192749023 21.28054046630859 9.793607711791992 C 21.89343643188477 9.754181861877441 21.94945907592773 10.22642803192139 22.06352996826172 10.66494750976562 C 22.72505950927734 13.20795822143555 24.34642028808594 14.89666748046875 26.83811950683594 15.60943794250488 C 30.76761245727539 16.73371696472168 34.94573974609375 14.99895858764648 36.9169807434082 11.43107795715332 C 37.40774154663086 10.54268741607666 37.95326995849609 10.01300811767578 38.93191146850586 9.753447532653809 C 40.07686996459961 9.449877738952637 40.9274787902832 7.934877395629883 40.81526947021484 6.728887557983398 C 40.72457885742188 5.754978179931641 39.7983283996582 4.59304141998291 38.53199005126953 4.646448135375977 C 37.92282867431641 4.672099113464355 37.63750839233398 4.2611083984375 37.29341125488281 3.788018226623535 C 36.61093139648438 2.84971809387207 35.90777969360352 1.836338043212891 34.9800910949707 1.187368392944336 C 33.76588821411133 0.3378810882568359 32.39427185058594 -4.38690185546875e-05 30.93534851074219 -1.9073486328125e-06 M 29.158935546875 14.16666603088379 C 27.35891342163086 14.16666603088379 25.81035232543945 13.38348388671875 24.68907928466797 11.80863761901855 C 23.34111976623535 9.915647506713867 23.36605072021484 7.817197799682617 24.34124946594238 5.799278259277344 C 25.62697982788086 3.139397621154785 27.87817001342773 1.92022705078125 30.10620880126953 1.883108139038086 C 34.75941848754883 2.050058364868164 37.13193130493164 5.442108154296875 35.90747833251953 9.257807731628418 C 35.01097106933594 12.05092811584473 33.02029037475586 13.65721797943115 30.16672134399414 14.08873748779297 C 29.82313537597656 14.14067554473877 29.48688507080078 14.16666603088379 29.158935546875 14.16666603088379 M 11.39397048950195 16.08713722229004 C 7.789970397949219 16.02871704101562 5.228858947753906 13.91531753540039 4.888870239257812 10.82826805114746 C 4.682319641113281 8.952857971191406 5.270118713378906 7.172847747802734 6.608501434326172 5.750707626342773 C 8.461818695068359 3.781377792358398 10.79944801330566 3.085458755493164 13.38289070129395 3.628767967224121 C 17.8386402130127 4.566018104553223 19.52985954284668 9.733218193054199 16.63155937194824 13.36456775665283 C 15.18107032775879 15.1820182800293 13.25613975524902 16.07264709472656 11.39397048950195 16.08713722229004 M 30.93529891967773 -2.000001907348633 L 30.93535041809082 -1.9073486328125e-06 L 30.93529891967773 -2.000001907348633 C 32.91115951538086 -2.000051498413086 34.65776824951172 -1.479022979736328 36.12660980224609 -0.4513816833496094 C 37.26971054077148 0.3482780456542969 38.07207107543945 1.454936981201172 38.77997970581055 2.431327819824219 L 38.93265151977539 2.641617774963379 C 38.93650054931641 2.646917343139648 38.94043731689453 2.65233325958252 38.94443511962891 2.657835006713867 C 41.13204956054688 2.834415435791016 42.64023590087891 4.756433486938477 42.80664825439453 6.543437957763672 C 42.90153121948242 7.563097953796387 42.63574981689453 8.652597427368164 42.05831146240234 9.611408233642578 C 41.41949081420898 10.67211723327637 40.4912109375 11.40912818908691 39.4444694519043 11.68664741516113 C 39.17374038696289 11.75845718383789 38.99478912353516 11.80591773986816 38.66762161254883 12.39815807342529 C 36.77582931518555 15.8222484588623 33.16886138916016 17.94925689697266 29.25424957275391 17.94925689697266 C 28.25300979614258 17.94925689697266 27.25500869750977 17.80896759033203 26.2879695892334 17.53227806091309 C 24.70680046081543 17.07997703552246 23.37335968017578 16.29922866821289 22.32477951049805 15.21176815032959 C 21.82060241699219 14.68888664245605 21.38715553283691 14.09990787506104 21.02683448791504 13.44924068450928 C 20.7545108795166 14.0664644241333 20.42400169372559 14.65012264251709 20.03671073913574 15.19682788848877 C 19.19256973266602 16.388427734375 18.07451057434082 17.40923690795898 16.71359062194824 18.23091697692871 C 14.95661926269531 19.29160690307617 12.85193061828613 19.87572860717773 10.78714942932129 19.87572860717773 C 7.272300720214844 19.87572860717773 4.253662109375 18.25754928588867 2.460468292236328 15.42453575134277 C 2.027256011962891 15.38492488861084 1.518878936767578 15.30475234985352 1.00823974609375 15.11629772186279 C 0.1354293823242188 14.79455757141113 -0.6144790649414062 14.21788787841797 -1.159690856933594 13.44889831542969 C -1.704719543457031 12.68017768859863 -1.995281219482422 11.79221725463867 -1.99993896484375 10.88102722167969 C -2.010410308837891 8.753678321838379 -0.5459518432617188 6.781177520751953 1.406520843505859 6.292417526245117 C 1.685379028320312 6.222638130187988 1.812568664550781 6.190808296203613 2.280349731445312 5.339588165283203 C 4.234287261962891 1.784019470214844 7.513862609863281 -0.1801013946533203 11.76555252075195 -0.3415126800537109 C 11.95442008972168 -0.3524932861328125 12.14548492431641 -0.3580513000488281 12.33386993408203 -0.3580513000488281 C 14.45078086853027 -0.3580513000488281 16.45697975158691 0.3150882720947266 18.13558959960938 1.588607788085938 C 19.20646286010742 2.401046752929688 20.0787467956543 3.408942222595215 20.71933937072754 4.563383102416992 C 22.20423889160156 1.151304244995117 25.56448936462402 -1.437356948852539 29.39274978637695 -1.902921676635742 C 29.92218017578125 -1.967321395874023 30.44118881225586 -1.999992370605469 30.93529891967773 -2.000001907348633 Z M 29.15893936157227 12.16666793823242 C 29.38584899902344 12.16666793823242 29.62432861328125 12.14800834655762 29.86777114868164 12.11120796203613 C 32.03562927246094 11.7833776473999 33.34970855712891 10.68246841430664 34.00317001342773 8.646577835083008 C 34.38523101806641 7.455977439880371 34.27146911621094 6.338527679443359 33.68280029296875 5.500217437744141 C 32.9994010925293 4.527009010314941 31.72440528869629 3.954110145568848 30.08899307250977 3.883963584899902 C 28.41256141662598 3.931399345397949 26.97595977783203 4.944226264953613 26.14192008972168 6.669677734375 C 25.41913032531738 8.165297508239746 25.47677993774414 9.46684741973877 26.31824111938477 10.64853763580322 C 27.04558944702148 11.67011833190918 27.97476959228516 12.16666793823242 29.15893936157227 12.16666793823242 Z M 11.4015007019043 14.08695220947266 C 12.76712608337402 14.06863212585449 14.06856536865234 13.3697338104248 15.0683708190918 12.11699771881104 C 16.03436088562012 10.90667724609375 16.32092094421387 9.37663745880127 15.8349494934082 8.024077415466309 C 15.38150024414062 6.76204776763916 14.33770942687988 5.873377799987793 12.97121047973633 5.5859375 C 12.54391098022461 5.496077537536621 12.12516021728516 5.450488090515137 11.72666931152344 5.450477600097656 C 10.32072067260742 5.450477600097656 9.123069763183594 5.997027397155762 8.064960479736328 7.121367454528809 C 7.144138336181641 8.099818229675293 6.733299255371094 9.305928230285645 6.876850128173828 10.60931777954102 C 7.107780456542969 12.70614242553711 8.840618133544922 14.03703784942627 11.4015007019043 14.08695220947266 Z" stroke="none" fill="#fff"/>
      </g>
      <ellipse id="Ellipse_2" data-name="Ellipse 2" cx="5.114" cy="4.602" rx="5.114" ry="4.602" transform="translate(6.898 5.985)" fill="#fff"/>
    </g>
  </g>
</svg>
