<svg xmlns="http://www.w3.org/2000/svg" width="44.378" height="44.374" viewBox="0 0 44.378 44.374">
  <g id="sell4icon3" transform="translate(2621.931 -253.168)">
    <path id="Path_8263" data-name="Path 8263" d="M-2611.492,370.677q-4.614,0-9.227,0a1.062,1.062,0,0,1-1.139-.684c-.224-.591.078-1.135.788-1.4q4.186-1.544,8.374-3.081c1.239-.456,2.488-.886,3.714-1.375a5.048,5.048,0,0,1,2-.358c1.641.025,3.282.012,4.924.007a3.737,3.737,0,0,0,3.87-3.712,2.731,2.731,0,0,1,.428-1.286q6.943-10.474,13.928-20.92a1.686,1.686,0,0,1,2.738-.263c.457.445.906.9,1.354,1.351a7.28,7.28,0,0,1,.6,9.746,5.407,5.407,0,0,1-2.8,2.053c-2.105.67-4.162,1.491-6.245,2.232a1.68,1.68,0,0,0-.93.757c-2.829,4.653-5.689,9.287-8.5,13.953a5.691,5.691,0,0,1-5.323,2.986C-2605.787,370.646-2608.64,370.677-2611.492,370.677Z" transform="translate(0 -73.145)"/>
    <path id="Path_8264" data-name="Path 8264" d="M-2599.394,279.449l-2.71,3.929c-.128-.2-.229-.347-.323-.5q-3.96-6.483-7.911-12.97a1.751,1.751,0,0,0-.966-.786q-3.751-1.343-7.488-2.725a1.505,1.505,0,0,1-.6-.432,9.593,9.593,0,0,1-2.247-3.73,7.09,7.09,0,0,1,1.678-6.876c.49-.544,1.028-1.046,1.548-1.562a1.7,1.7,0,0,1,2.829.281q5.026,7.532,10.044,15.068c1.245,1.869,2.486,3.74,3.741,5.6a3.2,3.2,0,0,1,.559,1.692A3.677,3.677,0,0,0-2599.394,279.449Z" transform="translate(-0.022 0)"/>
    <path id="Path_8265" data-name="Path 8265" d="M-2485.679,351.778c-.083.133-.161.268-.248.4q-6.133,9.2-12.271,18.4a4.423,4.423,0,0,0-.8,2.406,2.1,2.1,0,0,1-2,2.066c-1.783.041-3.568.011-5.352.008-.025,0-.05-.027-.074-.04a2.076,2.076,0,0,1,1.956-1.467,4,4,0,0,0,3.374-1.916q5.917-8.628,11.869-17.232a6.85,6.85,0,0,1,3.03-2.539c.143-.06.292-.1.438-.155Z" transform="translate(-100.752 -85.948)"/>
    <path id="Path_8266" data-name="Path 8266" d="M-2538.521,290.644a2.084,2.084,0,0,1-1.2-1.84,4.513,4.513,0,0,0-.825-2.449q-6.08-9.1-12.142-18.205c-.122-.183-.242-.368-.445-.677.29.094.451.133.6.2a6.835,6.835,0,0,1,3.03,2.54q4.4,6.4,8.814,12.786,1.546,2.242,3.093,4.484c.2.287.418.559.654.873Z" transform="translate(-60.011 -12.478)"/>
    <path id="Path_8267" data-name="Path 8267" d="M-2594.886,385.128h-1.53v-.516c0-2.66-.019-5.32.007-7.98a9.241,9.241,0,0,0-.926-4.246,6.125,6.125,0,0,1-.6-2.978l5.81,2.11c-.205.178-.363.306-.511.444a6.667,6.667,0,0,0-2.241,4.992c-.023,2.532-.006,5.065-.006,7.6Z" transform="translate(-20.924 -101.39)"/>
    <path id="Path_8268" data-name="Path 8268" d="M-2343.824,455.411l5.776-2.1a5.554,5.554,0,0,1-.524,2.785,10.32,10.32,0,0,0-1.006,4.9c.045,2.658.012,5.317.012,8.013h-1.531v-.5c0-2.421-.017-4.841,0-7.262a6.884,6.884,0,0,0-2.6-5.687A1.421,1.421,0,0,1-2343.824,455.411Z" transform="translate(-242.579 -174.578)"/>
    <path id="Path_8269" data-name="Path 8269" d="M-2377.375,476.717a5.168,5.168,0,0,1,2.76,5.061h-5.847Z" transform="translate(-210.622 -194.991)"/>
    <path id="Path_8270" data-name="Path 8270" d="M-2298.775,496.962c.043-.953.083-1.846.129-2.869.924.363,1.743.64,2.518,1.008a.889.889,0,0,1,.412,1.075,1.006,1.006,0,0,1-.964.781C-2297.344,496.977-2298.009,496.962-2298.775,496.962Z" transform="translate(-281.873 -210.147)"/>
    <path id="Path_8271" data-name="Path 8271" d="M-2584.267,504.818v1.466h-1.474v-1.466Z" transform="translate(-31.567 -219.502)"/>
    <path id="Path_8272" data-name="Path 8272" d="M-2322.336,590.155v-1.463h1.488v1.463Z" transform="translate(-261.322 -292.661)"/>
  </g>
</svg>
