<svg xmlns="http://www.w3.org/2000/svg" width="53.333" height="31.616" viewBox="0 0 53.333 31.616">
  <g id="sell4icon2" transform="translate(1713.186 -164.854)">
    <path id="Path_8259" data-name="Path 8259" d="M-1659.853,275.781c-.051.106-.108.21-.153.318a2.133,2.133,0,0,1-2.692,1.252,46.634,46.634,0,0,1-16.628-9.52c-.631-.569-1.241-1.163-1.865-1.741a6.06,6.06,0,0,0-4.155-1.652c-.954-.015-1.913-.04-2.862.032a6.407,6.407,0,0,0-4.058,2.008,44.922,44.922,0,0,1-14.857,9.674c-1.013.407-2.037.786-3.064,1.155a2.171,2.171,0,0,1-2.879-1.306,2.177,2.177,0,0,1,1.536-2.8c2.582-.8,5.18-1.55,7.741-2.41a14.185,14.185,0,0,0,6.482-4.538q1.956-2.368,3.842-4.793a6.149,6.149,0,0,1,5.227-2.507c1.2.02,2.4.008,3.593,0a6.016,6.016,0,0,1,4.972,2.381c1.275,1.6,2.548,3.207,3.841,4.794a15.069,15.069,0,0,0,7.414,4.957c2.152.664,4.3,1.35,6.465,1.965a2.764,2.764,0,0,1,2.1,1.795Zm-25.41-14a1.258,1.258,0,0,0-1.236-1.269,1.257,1.257,0,0,0-1.276,1.228,1.268,1.268,0,0,0,1.261,1.3A1.269,1.269,0,0,0-1685.262,261.784Z" transform="translate(0 -81.001)"/>
    <path id="Path_8260" data-name="Path 8260" d="M-1551.324,176.7h-1.189c-.2-2,.022-3.84,1.612-5.261.129-.115.246-.245.369-.368a2.755,2.755,0,0,0-.042-4.24,3.043,3.043,0,0,0-4.4.37,3.565,3.565,0,0,0-.7,2.029.93.93,0,0,1-.45.6c-.127.071-.426-.065-.584-.189a.693.693,0,0,1-.15-.471,4.253,4.253,0,0,1,3.727-4.3,4.277,4.277,0,0,1,4.735,3.442,3.657,3.657,0,0,1-1.065,3.423c-.234.233-.464.469-.7.7a3.65,3.65,0,0,0-1.16,2.8C-1551.316,175.719-1551.324,176.2-1551.324,176.7Z" transform="translate(-134.569 0)"/>
  </g>
</svg>
