<svg xmlns="http://www.w3.org/2000/svg" width="39.975" height="38.921" viewBox="0 0 39.975 38.921">
  <g id="sell4icon1" transform="translate(883.157 -340.322)">
    <path id="Path_8243" data-name="Path 8243" d="M-883.157,379.243l1.9-28.485h7.394a10.975,10.975,0,0,1,4.362-8.322,10.4,10.4,0,0,1,6.847-2.1c5.431.231,9.218,4.068,10.193,10.372h7.378c.636,9.551,1.266,19,1.9,28.538Zm11.854-28.595h16.271a8.171,8.171,0,0,0-7.952-7.885A8.173,8.173,0,0,0-871.3,350.649Zm3.912,11.068h8.413v-4.31h-8.413Zm-1.671-2.282-.236-.322c-3.3,0-6.606-.013-9.909.026-.237,0-.47.379-.705.581l.2.3c3.339,0,6.678.011,10.016-.025C-869.481,359.992-869.273,359.629-869.062,359.434Zm22.91.064-.25-.385c-3.316,0-6.633-.008-9.948.021-.188,0-.374.3-.56.464.2.144.4.411.609.413q4.707.036,9.413-.012C-846.641,360-846.4,359.672-846.152,359.5Z" transform="translate(0 0)"/>
    <path id="Path_8244" data-name="Path 8244" d="M-806.112,424.848c1.618,0,3.237-.03,4.853.029.275.01.536.4.8.616l-.21.368c-1.685,0-3.371.028-5.054-.032-.238-.009-.461-.447-.69-.686Z" transform="translate(-59.743 -65.793)"/>
  </g>
</svg>
