<svg xmlns="http://www.w3.org/2000/svg">
<defs>
<font id="Eternalo" horiz-adv-x="164" >
  <font-face 
    font-family="Eternalo"
    font-weight="400"
    font-stretch="normal"
    units-per-em="1000"
    panose-1="2 0 6 0 0 0 0 0 0 0"
    ascent="800"
    descent="-200"
    x-height="485"
    cap-height="677"
    bbox="-93 -232 1917 907"
    underline-thickness="50"
    underline-position="-100"
    unicode-range="U+0020-E000"
  />
<missing-glyph horiz-adv-x="1947" 
d="M683 683v-683h-682q-1 0 -1 1v682h683zM942 679q8 -12 12 -16q13 -11 22 -15v-1l-9 -5q-15 -13 -21 -23l-4 -6l-8 11q-13 16 -21 20l-6 3l18 12q13 12 16 19zM749 665q19 -6 68 -6h21q42 0 61 6q-3 -97 -3 -144h-1q-11 80 -20 100q-8 20 -21 26q-2 1 -4 1v-234
q0 -13 13 -22v-1h-79v1q13 9 13 21v235q-13 -4 -21 -20q-5 -12 -10 -31q-8 -35 -14 -76q-3 95 -3 144zM1457 659v-243q0 -14 9 -21l4 -3v-1h-78v1q12 9 12 20v222q0 15 -8 21q-4 3 -4 4h65zM1098 609h1q23 0 30 -17q4 -14 4 -17q9 21 26 30q9 4 21 4h2q22 0 30 -18
q4 -11 4 -26v-150q0 -14 11 -22l2 -1v-1h-79v1q10 8 12 15q1 2 1 9v130q0 31 -8 39q-2 2 -4 2q-9 0 -15 -25q-3 -10 -3 -22v-125q0 -13 12 -22l1 -1v-1h-78v1q10 9 10 11q3 4 3 11v137q0 27 -9 35l-3 1q-10 0 -16 -24q-2 -14 -2 -27v-119q0 -14 7 -20l6 -5v-1h-79v1
q13 9 13 22v169q0 14 -10 21l-3 2h66v-29q7 18 25 28q11 4 22 4zM1314 609q45 0 58 -37q4 -13 4 -26v-11h-30q21 -8 33 -31q8 -18 8 -36q0 -43 -35 -67q-19 -13 -43 -13h-2q-40 0 -60 41q-12 29 -12 69q0 81 45 105q15 6 34 6zM1553 609q45 0 58 -36q5 -13 5 -38h-30
q21 -9 33 -31q7 -15 7 -36q0 -41 -31 -65q-21 -15 -46 -15h-2q-39 0 -59 38q-14 28 -14 72q0 80 44 104q14 7 35 7zM1702 609q9 0 45 -3h4q11 0 17 3q-17 -88 -19 -96q22 -22 22 -55q0 -39 -34 -60q-19 -10 -41 -10h-2q-6 0 -37 3h-2q-10 0 -22 -3q11 110 12 119
q6 -36 12 -64q15 -48 41 -48h1q20 0 28 23q2 8 2 13v4q0 32 -43 59q-27 22 -28 23q-18 19 -18 39v2v1l-1 1q0 24 19 37q16 12 44 12zM1848 609q9 0 45 -3h4q8 0 17 3l-19 -95q22 -25 22 -53v-5q0 -28 -24 -51q-22 -17 -51 -17h-2q-6 0 -38 3h-1q-10 0 -22 -3v1l11 119h1v-1

<glyph glyph-name="a_b" unicode="ab" horiz-adv-x="799" 
d="M592 488q87 0 132 -70t45 -176q0 -68 -19 -118t-42.5 -73.5t-54.5 -36.5t-45 -15t-25 -2h-1q-31 0 -56.5 13t-47.5 41.5t-35 51t-34 63.5q-21 42 -33.5 64t-33.5 50t-44.5 40.5t-52.5 12.5q-59 0 -113 -56t-54 -146q0 -44 26 -69.5t68 -25.5q23 0 41 10t25 20l7 9v243
q44 0 81 -39v-209q0 -25 4.5 -41t8.5 -19.5t13 -9.5h-87q-8 0 -14 6t-6 14v30q-38 -53 -115 -53q-55 0 -92.5 36t-37.5 104q0 82 71.5 146.5t173.5 64.5v3q0 13 -2 28t-8.5 40t-24.5 41t-45 16q-32 0 -60.5 -25.5t-39.5 -78.5l-55 62q23 22 67.5 38t88.5 16q63 0 111.5 -35
t48.5 -99v-35q37 -29 83 -122v369q0 25 -4.5 41t-8.5 20t-13 10q33 2 63 18q27 15 44 32v-254q8 21 36 38t66 17zM582 9q40 0 66 37t35.5 86.5t9.5 109.5q0 98 -34.5 161.5t-86.5 63.5q-29 0 -52.5 -20t-29.5 -56v-334q41 -48 92 -48zM409 0v131q41 -78 72 -110q-5 1 -14 1
q-22 0 -44 -22h-14z" />
    <glyph glyph-name="a_h" unicode="ah" horiz-adv-x="799" 
d="M490 362v-292q0 -26 6 -43t9 -19.5t11 -8.5h-134q14 10 20.5 24t6.5 47v163q60 98 81 129zM326 114v-44q0 -25 5 -41t8.5 -19.5t12.5 -10.5h-87q-8 0 -14 6t-6 15v12q36 28 81 82zM769 -1h-134q14 10 20.5 24t6.5 47v274q0 127 -53 127q-29 0 -62.5 -30.5t-56.5 -60.5
q-15 -20 -47.5 -74t-64.5 -102t-72 -97.5t-85.5 -79.5t-90.5 -30q-55 0 -92.5 36t-37.5 104q0 82 72 146t173 64v3q0 13 -2 28t-8.5 40t-24.5 41t-45 16q-32 0 -60.5 -25t-39.5 -78l-55 62q23 22 67.5 38t88.5 16q63 0 111.5 -35t48.5 -99v-200q31 40 83 126v286
q0 26 -5 41.5t-8.5 19t-13.5 10.5q27 2 60.5 19t47.5 31v-283q66 83 128 83q52 0 88 -30.5t36 -102.5v-284q0 -10 1 -19t2 -15t3.5 -12t4 -9t4.5 -6l4 -4t5 -3zM78 131q0 -44 26 -70t68 -26q35 0 73 32v266q-59 0 -113 -56t-54 -146z" />
    <glyph glyph-name="a_k" unicode="ak" horiz-adv-x="795" 
d="M497 22q7 -15 20 -22h-134q14 9 20 23t6 47v132q42 31 81 37v-169q0 -34 7 -48zM326 120v-50q0 -25 4.5 -41t8.5 -19.5t13 -9.5h-87q-8 0 -14 6t-6 14v16q26 22 74 76q2 3 7 8zM533 263h30q52 0 84.5 -20t46 -52.5t21 -66.5t19 -69.5t31.5 -54.5h-102q-24 19 -33.5 52
t-10.5 65.5t-6.5 63t-28.5 49.5t-68 20h-3q-46 0 -88.5 -26t-76 -63t-65.5 -74.5t-71.5 -63.5t-81.5 -26q-55 0 -92.5 36t-37.5 104q0 82 71.5 146.5t173.5 64.5v5q0 14 -2.5 30t-9 39.5t-24.5 38.5t-44 15q-32 0 -60.5 -25.5t-40.5 -78.5l-54 62q23 22 67.5 38t88.5 16
q63 0 111.5 -35t48.5 -99v-194q47 49 83 71v335q0 25 -4.5 41t-8.5 20t-13 10q32 2 62 18q27 14 45 32v-426q4 1 14 1.5t15 0.5q105 120 138 160q14 15 14 30q0 22 -28 32h94q-31 -22 -66 -62q-68 -77 -138 -160zM245 74v259q-60 0 -114 -56t-54 -146q0 -44 26.5 -69.5
t68.5 -25.5q32 0 73 38z" />
    <glyph glyph-name="a_p" unicode="ap" horiz-adv-x="798" 
d="M591 488q87 0 132 -69.5t45 -175.5q0 -56 -11.5 -100.5t-31.5 -69.5t-40.5 -42t-43.5 -23.5t-35 -8.5t-22 -2h-3q-31 0 -56.5 13t-47.5 41.5t-35 51t-34 63.5q-21 42 -33.5 64t-33.5 50t-44.5 40.5t-52.5 12.5q-59 0 -113 -56t-54 -146q0 -44 26 -69.5t69 -25.5
q23 0 41 10t25 20l6 9v243q45 0 81 -39v-209q0 -26 4.5 -41t9 -19t13.5 -10h-88q-8 0 -14 6t-6 14v30q-36 -53 -115 -53q-55 0 -92 36t-37 104q0 82 71.5 146.5t172.5 64.5v4q0 14 -2 29.5t-9 39.5t-25 39.5t-44 15.5q-32 0 -60.5 -25.5t-39.5 -78.5l-54 62q22 22 66.5 38
t88.5 16q63 0 111.5 -35t48.5 -99v-35q36 -29 83 -121v166q0 25 -4.5 41t-8.5 20t-13 10q28 2 63 18q28 16 44 33v-52q9 20 37 37t65 17zM581 10q57 0 84 69t27 164q0 97 -34.5 161t-86.5 64q-28 0 -52 -20.5t-30 -55.5v-269q0 -48 26.5 -80.5t65.5 -32.5zM496 -180
q7 -15 20 -22h-134q14 9 20 23t6 47v265q46 -88 81 -119v-146q0 -30 7 -48z" />
    <glyph glyph-name="a_m" unicode="am" horiz-adv-x="1051" 
d="M1021 0h-134q14 9 20.5 23t6.5 47v274q0 57 -19.5 84.5t-49.5 27.5t-59.5 -23t-44.5 -59q1 -7 1 -20v-284q0 -26 6 -42.5t9.5 -20t11.5 -8.5h-134q26 19 26 71v274q0 111 -62 111q-26 0 -56 -21.5t-53 -54.5q-14 -20 -67 -98t-96.5 -139.5t-68.5 -91.5q-47 -53 -128 -53
q-55 0 -92.5 36t-37.5 104q0 82 71.5 146t172.5 64v5q0 15 -2.5 31t-9 39t-24 38t-43.5 15q-33 0 -61 -25t-40 -78l-54 62q23 22 67 38t88 16q63 0 111.5 -35t48.5 -99v-179q37 52 84 121v68q0 25 -5 41t-9 19.5t-13 9.5q36 5 63 19q21 11 45 32v-71q23 34 57 53.5t71 19.5
q96 0 118 -84q20 39 57 61.5t77 22.5q53 0 88.5 -30.5t35.5 -102.5v-284q0 -53 27 -70zM77 131q0 -44 26.5 -70t68.5 -26q47 0 72 25v273q-59 0 -113 -56t-54 -146zM497 21q4 -11 19 -22h-134q14 10 20.5 24t6.5 47v157q48 72 81 117v-274q0 -34 7 -49zM325 105v-35
q0 -25 5 -41t8.5 -19.5t13.5 -10.5h-87q-10 0 -17 9q18 13 77 97z" />
    <glyph glyph-name="a_n" unicode="an" horiz-adv-x="799" 
d="M490 344v-274q0 -26 6 -43t9 -19.5t11 -8.5h-134q14 10 20.5 24t6.5 47v157q48 72 81 117zM326 105v-35q0 -25 5 -41t8.5 -19.5t12.5 -10.5h-87q-10 0 -17 9q20 14 78 97zM769 -1h-134q14 10 20 24t6 47v274q0 110 -61 110q-26 0 -56.5 -20.5t-53.5 -52.5
q-16 -22 -107 -157t-125 -174q-47 -53 -128 -53q-55 0 -92.5 36t-37.5 104q0 82 71.5 146t173.5 64v4q0 14 -2 29.5t-9 39.5t-25 39.5t-44 15.5q-32 0 -60.5 -25t-39.5 -78l-55 62q23 22 67.5 38t88.5 16q63 0 111.5 -35t48.5 -99v-179q15 22 43.5 63.5t39.5 57.5v68
q0 26 -4.5 41t-9 19t-13.5 10q36 5 63 19q20 10 45 32v-71q23 34 57 53.5t71 19.5q53 0 88.5 -30.5t35.5 -102.5v-284q0 -26 6 -42.5t9.5 -20t11.5 -8.5zM77 131q0 -44 26.5 -70t68.5 -26q46 0 73 25v273q-60 0 -114 -56t-54 -146z" />
    <glyph glyph-name="a_r" unicode="ar" horiz-adv-x="724" 
d="M490 347v-277q0 -26 6 -42.5t9.5 -20t11.5 -8.5h-134q14 10 20 24.5t6 46.5v158q1 1 2 2.5t1 2.5q62 92 78 114zM326 105v-35q0 -26 5 -41.5t8.5 -19t13.5 -10.5h-88q-11 0 -16 9q9 8 17 17q25 29 60 80zM599 485q47 0 95 -41l-65 -74q-8 29 -25.5 46t-39.5 17
q-39 0 -74 -52q-183 -274 -232 -331q-45 -53 -128 -53q-55 0 -92.5 36t-37.5 104q0 82 72 146t173 64v4q0 14 -2 29.5t-9 39.5t-25 39.5t-44 15.5q-32 0 -60.5 -25t-39.5 -78l-54 62q22 22 66.5 38t88.5 16q63 0 111.5 -35t48.5 -99v-179q58 84 83 121v66q0 25 -4.5 40.5
t-8.5 19.5t-13 10q35 5 63 18q28 16 44 33v-69q27 38 51.5 54.5t57.5 16.5zM245 60v273q-59 0 -113 -56t-54 -146q0 -44 26.5 -70t68.5 -26q47 0 72 25z" />
    <glyph glyph-name="c_b" unicode="cb" horiz-adv-x="816" 
d="M784 241q0 -12 -1 -26.5t-6 -46t-17.5 -58.5t-31.5 -54t-53 -43t-78 -16q-16 0 -64.5 12.5t-50.5 12.5q-23 0 -45 -22h-13v139q16 37 40 104q28 77 41 104v-225q0 -47 26.5 -80t65.5 -33q30 0 52.5 21.5t33 49.5t16.5 65t7 56.5t1 37.5v3q0 98 -32 160.5t-84 62.5
q-36 0 -64.5 -34.5t-46.5 -86.5t-42 -113t-50 -113t-73 -86.5t-108 -34.5q-99 0 -153 70.5t-54 174.5t54 175t153 71q111 0 168 -91l-52 -35q-16 53 -46 84t-70 31q-60 0 -95.5 -67t-35.5 -168q0 -107 48 -160.5t114 -53.5q33 0 64 22t52 54t37.5 64t24.5 54l8 22v322
q0 25 -4.5 41t-8.5 20t-13 10q32 2 62 18q23 12 45 32v-259q43 60 102 60q87 0 132 -70t45 -176v-1z" />
    <glyph glyph-name="c_h" unicode="ch" horiz-adv-x="824" 
d="M515 326v-256q0 -26 6 -43t9 -19.5t11 -8.5h-134q14 10 20.5 24t6.5 47v66q7 14 40 94.5t41 95.5zM794 -1h-134q14 10 20.5 24t6.5 47v274q0 57 -19.5 84.5t-49.5 27.5h-2q-47 -1 -81.5 -49t-60 -115t-55.5 -134t-83.5 -114t-128.5 -47q-99 0 -153 70.5t-54 174.5
t54 174.5t153 70.5q112 0 168 -91l-52 -34q-35 115 -116 115q-60 0 -95.5 -67t-35.5 -168q0 -107 48 -161t114 -54q31 0 57.5 13.5t44.5 31.5t37 52t29.5 58t27.5 67v317q0 26 -5 41.5t-8.5 19t-13.5 10.5q33 2 63 18q20 10 45 32v-271q51 71 128 71q52 0 88.5 -30.5
t36.5 -102.5v-284q0 -26 6 -43t9 -19.5t11 -8.5z" />
    <glyph glyph-name="c_m" unicode="cm" horiz-adv-x="1076" 
d="M515 324v-254q0 -26 6 -43t9 -19.5t11 -8.5h-134q14 10 20.5 24t6.5 47v64q11 23 42 99t39 91zM1046 -1h-134q14 10 20.5 24t6.5 47v274q0 57 -19.5 84t-49.5 27q-29 0 -58.5 -23t-44.5 -58v-304q0 -53 27 -70h-134q14 9 20.5 23t6.5 47v274q0 57 -19.5 84.5t-49.5 27.5
h-2q-47 -1 -81.5 -49t-60 -115t-55.5 -134t-83.5 -114t-128.5 -47q-99 0 -153 70.5t-54 174.5t54 174.5t153 70.5q112 0 168 -91l-52 -34q-16 53 -46 84t-70 31q-60 0 -95.5 -67t-35.5 -168q0 -107 48 -161t114 -54q31 0 57.5 13.5t44 31t37 52.5t29.5 57.5t28 67.5v115
q0 26 -4.5 41t-9 19t-13.5 10q36 5 63 19q25 12 45 32v-69q51 71 128 71q96 0 119 -84q19 39 56 61.5t78 22.5q52 0 88 -30.5t36 -102.5v-284q0 -26 6 -43t9 -19.5t11 -8.5z" />
    <glyph glyph-name="c_n" unicode="cn" horiz-adv-x="824" 
d="M794 -1h-133q26 19 26 71v273q0 57 -19.5 84.5t-49.5 27.5h-2q-31 -1 -56 -21t-42 -52.5t-35.5 -73.5t-34 -83.5t-38.5 -83.5t-48.5 -73t-65.5 -51.5t-88 -19.5q-100 0 -154 70.5t-54 174.5t54 174.5t154 70.5q112 0 168 -91l-53 -34q-15 53 -45 84t-70 31q-61 0 -96 -67
t-35 -168q0 -107 47.5 -161t113.5 -54q31 0 57.5 13.5t44.5 31t37 51.5t29.5 58.5t27.5 67.5v115q0 25 -4.5 41t-8.5 19.5t-13 9.5q35 5 63 18q28 16 44 33v-70q52 72 129 72q52 0 88 -30.5t36 -102.5v-284q0 -26 6 -43t9 -19.5t11 -8.5zM515 326v-256q0 -26 6 -42.5
t9.5 -20t11.5 -8.5h-134q14 10 20 24.5t6 46.5v66q7 15 40 94.5t41 95.5z" />
    <glyph glyph-name="c_r" unicode="cr" horiz-adv-x="728" 
d="M603 488q46 0 95 -42l-65 -74q-7 25 -27 42.5t-42 17.5q-24 0 -46 -32t-38 -80.5t-41 -105t-52.5 -105t-74 -80.5t-104.5 -32q-100 0 -154 70.5t-54 174.5t54 174.5t154 70.5q111 0 167 -91l-52 -34q-16 54 -45.5 84.5t-69.5 30.5q-61 0 -96 -67t-35 -168
q0 -107 47.5 -161t113.5 -54q58 0 98.5 44t76.5 123v170q0 25 -4.5 41t-8.5 19.5t-13 9.5q35 5 62 18q29 15 45 33v-99q50 102 109 102zM494 298v-228q0 -26 6 -42.5t9.5 -20t11.5 -8.5h-134q14 10 20 24.5t6 46.5v34q10 19 24.5 51.5t25 59.5t20.5 53.5t11 29.5z" />
    <glyph glyph-name="c_p" unicode="cp" horiz-adv-x="834" 
d="M627 487q88 0 132.5 -69.5t44.5 -175.5q0 -19 -2 -41.5t-13 -61.5t-29 -68t-55.5 -51.5t-87.5 -22.5q-24 0 -47 6.5t-34 13.5l-11 7v-156q0 -26 6.5 -43.5t8.5 -19t12 -8.5h-134q14 10 20.5 24t6.5 47v282q6 14 36 93.5t44 107.5v-229q0 -47 26.5 -80t65.5 -33
q37 0 62 29.5t34.5 75.5t12 73t2.5 51v4q0 97 -34 159.5t-87 62.5q-36 0 -64 -34.5t-46 -86.5t-43 -112.5t-53 -112.5t-78 -86.5t-115 -34.5q-99 0 -153.5 70.5t-54.5 174.5t54.5 174.5t153.5 70.5q112 0 168 -91l-53 -34q-15 53 -45 84t-70 31q-60 0 -95.5 -67.5
t-35.5 -167.5q0 -107 48 -161t113 -54q28 0 51.5 8.5t43.5 29t34 38t30 53t24 54.5t24 61v93q0 25 -5 41t-9 19.5t-13 9.5q36 5 63 19q28 14 44 32v-51q43 53 102 53z" />
    <glyph glyph-name="d_e" unicode="de" horiz-adv-x="856" 
d="M205 467q-51 0 -86 -73t-35 -172v-6q0 -25 3 -50.5t12 -66t34 -66t62 -25.5q39 0 65.5 33t26.5 80v258q45 -62 81 -98v-201q0 -25 5 -41t8.5 -19.5t12.5 -10.5l-83 -8h-5q-19 0 -19 22q-38 -26 -92 -26q-51 0 -88.5 20t-55.5 46t-28.5 61t-12.5 54.5t-2 37.5v6
q0 106 50 185.5t137 79.5q50 0 92 -44v123q0 26 -4.5 41t-9 19t-13.5 10q36 5 63 19q25 12 45 32v-345q30 -35 58 -56q10 88 63 144.5t141 56.5q93 0 141.5 -65t54.5 -165q-126 -48 -222 -48q-73 0 -130.5 26.5t-92.5 64.5t-63.5 76t-56 64.5t-56.5 26.5zM630 477
q-6 0 -16 -2t-31.5 -14.5t-38.5 -34.5t-30.5 -69.5t-14.5 -111.5q46 -17 107 -17q64 0 143 20q-3 63 -15.5 112.5t-39 83t-64.5 33.5zM661 27q43 0 79 24.5t56 70.5h20q-24 -58 -71.5 -91.5t-114.5 -33.5q-97 0 -151 67.5t-56 169.5q39 -27 79 -39q11 -84 56 -126t103 -42z
" />
    <glyph glyph-name="d_p" unicode="dp" horiz-adv-x="834" 
d="M532 -181q4 -11 19 -22h-134q14 10 20.5 24t6.5 47v229q44 -70 81 -100v-129q0 -35 7 -49zM626 487q88 0 133 -69.5t45 -175.5q0 -62 -17 -115t-61 -91.5t-110 -38.5q-52 0 -100 48.5t-84.5 117.5t-72 138t-77 117.5t-84.5 48.5q-51 0 -86 -73t-35 -172q0 -25 1 -37
q11 -177 110 -177q39 0 65 33t26 80v260q36 -42 81 -131v-170q0 -25 5 -41t8.5 -19.5t13.5 -10.5l-83 -8h-6q-19 0 -19 22q-37 -26 -91 -26q-87 0 -132.5 52.5t-53.5 135.5q-2 24 -2 37q0 67 20.5 126t64.5 99t103 40q48 0 91 -38v117q0 25 -4.5 41t-8.5 19.5t-13 9.5
q36 5 63 19q28 14 44 32v-344q17 -29 46.5 -86t37.5 -73v180q0 26 -4.5 41t-9 19t-13.5 10q36 5 63 19q26 13 45 32v-52q8 21 35.5 37.5t65.5 16.5zM616 15q40 0 66 35t35.5 83.5t9.5 108.5q0 98 -34.5 161.5t-86.5 63.5q-28 0 -51.5 -20t-29.5 -56v-330q44 -46 91 -46z" />
    <glyph glyph-name="d_s" unicode="ds" horiz-adv-x="771" 
d="M741 127q0 -63 -43.5 -96.5t-122.5 -33.5q-69 0 -117.5 48.5t-74.5 117.5t-49 138t-56 117.5t-80 48.5q-52 0 -87 -73t-35 -172v-5q0 -19 1 -37.5t7 -52.5t17 -58t33.5 -42.5t52.5 -18.5q39 0 65.5 33t26.5 80v246q21 -34 58 -140q7 -21 23 -65v-82q0 -25 5 -41
t8.5 -19.5t12.5 -10.5l-83 -8h-5q-19 0 -19 22q-38 -26 -92 -26q-52 0 -90 22t-56 49.5t-28 65t-11.5 55t-1.5 33.5q0 106 50 185.5t137 79.5q53 0 92 -42v121q0 26 -4.5 41t-9 19t-13.5 10q36 5 63 19q25 12 45 32v-401q46 -130 69 -171q56 -102 146 -102q35 0 60.5 21.5
t25.5 59.5q0 36 -25 65t-60.5 49l-71 40t-60.5 50.5t-25 68.5q0 55 40 87.5t111 32.5q49 0 85 -23.5t45 -60.5l-58 -31q0 47 -19.5 75.5t-52.5 28.5q-29 0 -50 -24.5t-21 -62.5q0 -33 25 -57t60.5 -40.5t71 -35t60.5 -51t25 -78.5z" />
    <glyph glyph-name="e_b" unicode="eb" horiz-adv-x="843" 
d="M630 487q88 0 135.5 -70t47.5 -175q0 -39 -8.5 -78t-27.5 -78.5t-58 -64t-93 -24.5q-23 0 -62.5 12.5t-52.5 12.5q-22 0 -45 -23h-13v185q9 19 25 59q40 94 56 121v-242q0 -48 26.5 -81t65.5 -33q30 0 52.5 24t33 54t16.5 69t7 57t1 30q0 97 -34.5 161t-86.5 64
q-42 0 -76 -48.5t-61 -117.5t-59 -138t-86 -117.5t-125 -48.5q-100 0 -154 70.5t-54 174.5t54 174.5t154 70.5q92 0 140.5 -65t54.5 -165h-326q-1 -5 -1 -15q0 -107 48 -161t114 -54q39 0 70 18t58 61t40 70.5t39 90.5q2 4 3 6.5t2.5 6t2.5 6.5v280q0 25 -4.5 41t-8.5 19.5
t-13 9.5q35 5 62 19q25 12 45 32v-250q42 50 96 50zM208 477q-57 0 -91.5 -59t-39.5 -151h249q-5 93 -34.5 151.5t-83.5 58.5z" />
    <glyph glyph-name="e_h" unicode="eh" horiz-adv-x="843" 
d="M534 316v-246q0 -26 6 -43t9 -19.5t11 -8.5h-134q14 10 20.5 24t6.5 47v90q11 20 47 89q8 17 34 67zM813 -1h-134q14 10 20.5 24t6.5 47v274q0 112 -71 112q-31 0 -61 -34t-54 -85t-56.5 -110.5t-65.5 -110.5t-83 -85t-108 -34q-99 0 -153 70.5t-54 174.5t54 174.5
t153 70.5q93 0 141.5 -65t54.5 -165h-327v-15q0 -107 48 -161t114 -54q35 0 66 17.5t58.5 55.5t45.5 68.5t45 85.5v312q0 26 -5 41.5t-8.5 19t-13.5 10.5q33 2 63 18q20 10 45 32v-286q59 86 128 86q53 0 88.5 -30.5t35.5 -102.5v-284q0 -10 1 -19t2 -15t3.5 -12t4 -9
t4.5 -6l4 -4t5 -3zM207 477q-57 0 -91 -59t-39 -151h249q-5 94 -34.5 152t-84.5 58z" />
    <glyph glyph-name="e_m" unicode="em" horiz-adv-x="1096" 
d="M541 21q6 -11 20 -22h-134q14 10 20 24t6 47v99q7 12 18 34.5t15 30.5q27 60 48 96v-260q0 -30 7 -49zM1066 -1h-134q14 10 20 24t6 47v274q0 57 -19.5 84t-49.5 27q-29 0 -58.5 -23t-44.5 -58q1 -7 1 -20v-284q0 -26 6 -43t9 -19.5t11 -8.5h-133q26 19 26 71v274
q0 112 -69 112q-42 0 -79.5 -47.5t-68.5 -115t-66.5 -134.5t-90.5 -114.5t-124 -47.5q-100 0 -154 70.5t-54 174.5t54 174.5t154 70.5q93 0 141.5 -65t53.5 -165h-326v-15q0 -107 48 -161t113 -54q25 0 47 8t42.5 28.5t34.5 36.5t33.5 51t28.5 52.5t29 59.5v101
q0 25 -4.5 41t-8.5 19.5t-13 9.5q36 5 63 19q24 12 44 32v-78q58 80 129 80q96 0 118 -84q20 39 57 61.5t77 22.5q52 0 88 -30.5t36 -102.5v-284q0 -26 6 -42.5t9.5 -20t11.5 -8.5zM208 477q-57 0 -91.5 -59t-39.5 -151h250q-6 94 -35 152t-84 58z" />
    <glyph glyph-name="e_n" unicode="en" horiz-adv-x="843" 
d="M534 327v-257q0 -26 6 -43t9 -19.5t11 -8.5h-134q14 10 20.5 24t6.5 47v96q78 155 81 161zM813 -1h-134q14 10 20 24t6 47v274q0 112 -69 112q-31 0 -59 -25.5t-50.5 -66t-45.5 -89.5t-49.5 -97.5t-57 -89t-73.5 -66t-94 -25.5q-99 0 -153 70.5t-54 174.5t54 174.5
t153 70.5q93 0 141.5 -65t54.5 -165h-327v-15q0 -107 48 -161t114 -54q19 0 35.5 4.5t33 17t28 21.5t27.5 32t23.5 34t24 42t21.5 40.5t22 44.5v101q0 26 -4.5 41t-9 19t-13.5 10q36 5 63 19q21 11 45 32v-78q58 80 128 80q53 0 88.5 -30.5t35.5 -102.5v-284q0 -10 1 -19
t2 -15t3.5 -12t4 -9t4.5 -6l4 -4t5 -3zM207 477q-57 0 -91 -59t-39 -151h249q-5 94 -34.5 152t-84.5 58z" />
    <glyph glyph-name="e_p" unicode="ep" horiz-adv-x="852" 
d="M639 487q88 0 135 -70t47 -175v-1q0 -12 -1 -25.5t-5.5 -45.5t-17.5 -59t-32 -54.5t-53.5 -43.5t-78.5 -16q-24 0 -46.5 6.5t-33.5 13.5l-11 7v-156q0 -35 7 -49q4 -11 19 -22h-134q14 10 20.5 24t6.5 47v327q55 122 81 166v-239q0 -48 26 -80.5t65 -32.5q38 0 63 32.5
t34 82t11.5 75t2.5 43.5q0 98 -34.5 161.5t-86.5 63.5q-32 0 -62 -35t-52.5 -87t-53 -113t-62 -113t-80 -87t-105.5 -35q-100 0 -154 70.5t-54 174.5t54 174.5t154 70.5q92 0 140.5 -65t54.5 -165h-326v-15q0 -107 47.5 -161t113.5 -54q18 0 34.5 4.5t31.5 15.5t27 21.5
t26 30.5t22.5 33.5t22 40t20 40t20 44t19.5 42.5v65q0 26 -4.5 41t-9 19t-13.5 10q36 5 63 19q26 13 45 32v-48q44 50 97 50zM208 477q-57 0 -91.5 -59t-39.5 -151h250q-6 94 -35 152t-84 58z" />
    <glyph glyph-name="e_r" unicode="er" horiz-adv-x="767" 
d="M539 21q6 -11 20 -22h-134q14 10 20 24t6 47v82q21 37 81 163v-245q0 -30 7 -49zM640 488q48 0 97 -42l-67 -74q-7 25 -27.5 42.5t-42.5 17.5t-45.5 -32t-45 -80.5t-52 -105t-63 -105t-81.5 -80.5t-105 -32q-100 0 -154 70.5t-54 174.5t54 174.5t154 70.5q92 0 140.5 -65
t54.5 -165h-326v-15q0 -107 47.5 -161t113.5 -54q34 0 64.5 17t57.5 50t47 66.5t44 81.5v122q0 25 -4.5 41t-8.5 19.5t-13 9.5q36 5 63 19q24 12 44 32v-88q57 91 108 91zM208 477q-57 0 -91.5 -59t-39.5 -151h250q-6 94 -35 152t-84 58z" />
    <glyph glyph-name="f_f" unicode="ff" horiz-adv-x="449" 
d="M419 661l-47 -138q-5 72 -26.5 111t-45.5 39q-17 0 -28.5 -19t-11.5 -54q0 -34 11 -72q8 -27 20 -35t38 -8h43v-10h-86v-405q0 -34 7 -49q4 -11 19 -22h-134q14 10 20.5 24t6.5 47v405h-83v-405q0 -34 7 -49q4 -11 19 -22h-134q14 10 20.5 24t6.5 47v405h-41v10h41
q0 107 27 156.5t88 49.5q51 0 93 -27q27 27 71 27q59 0 99 -30zM164 485h41q0 90 -22 139t-49 49q-16 0 -27 -19.5t-11 -52.5q0 -35 11 -73q7 -27 19.5 -35t37.5 -8z" />
    <glyph glyph-name="f_i" unicode="fi" horiz-adv-x="342" 
d="M312 -1h-134q14 10 20.5 24t6.5 47v405h-84v-405q0 -30 7 -49q6 -11 20 -22h-134q14 10 20 24t6 47v405h-40v10h40q0 206 115 206q34 0 59 -16t37.5 -38.5t19.5 -45t9 -38.5l1 -16h-73q0 63 -20.5 98t-45.5 35q-19 0 -32 -20t-13 -55q0 -30 10 -67q7 -27 19.5 -35
t37.5 -8h122v-415q0 -34 7 -49q4 -11 19 -22z" />
    <glyph glyph-name="f_t" unicode="ft" horiz-adv-x="402" 
d="M372 475h-86v-389q0 -50 42 -50q10 0 21 3t17 5l6 3q-5 -6 -13 -14t-32.5 -22t-47.5 -14q-74 0 -74 99v379h-83v-405q0 -34 7 -49q4 -11 19 -22h-134q14 10 20.5 24t6.5 47v405h-41v10h41q0 107 27 156.5t88 49.5q59 0 99 -30l-47 -138q-5 74 -25.5 112.5t-44.5 38.5
q-17 0 -29.5 -21t-12.5 -57q0 -22 6 -50q13 -61 73 -61q44 0 69.5 38.5t30.5 91.5h11v-130h86v-10z" />
    <glyph glyph-name="t_t" unicode="tt" horiz-adv-x="402" 
d="M372 475h-86v-389q0 -50 42 -50q10 0 21 3t17 5l6 3q-5 -6 -13 -14t-32.5 -22t-47.5 -14q-74 0 -74 99v379h-83v-389q0 -50 41 -50q10 0 21 3t17 5l6 3q-4 -6 -12.5 -14t-32.5 -22t-47 -14q-74 0 -74 99v379h-41v10q45 7 75.5 44t35.5 86h11v-130q5 -1 14 -1q13 0 27 2
t33.5 10t34.5 21.5t28 38.5t16 59h11v-130h86v-10z" />
    <glyph glyph-name="f_f_i" unicode="ffi" horiz-adv-x="506" 
d="M476 -1h-134q14 10 20.5 24t6.5 47v405h-84v-405q0 -30 7 -49q6 -11 20 -22h-134q14 10 20 24t6 47v405h-83v-405q0 -30 7 -49q6 -13 20 -22h-134q26 19 26 71v405h-40v10h40q0 107 27.5 156.5t88.5 49.5q53 0 94 -28q27 28 69 28q34 0 59 -16t37.5 -38.5t19.5 -45
t9 -38.5l1 -16h-73q0 63 -20.5 98t-45.5 35q-19 0 -32 -20t-13 -55q0 -30 10 -67q7 -27 19.5 -35t37.5 -8h122v-415q0 -34 7 -49q4 -11 19 -22zM164 485h40q0 91 -21.5 140t-48.5 49q-16 0 -27.5 -20t-11.5 -54q0 -30 11 -72q8 -27 20.5 -35t37.5 -8z" />
    <glyph glyph-name="f_f_l" unicode="ffl" horiz-adv-x="507" 
d="M477 -1h-134q14 10 20 24t6 47v405h-83v-405q0 -34 7 -49q4 -11 19 -22h-134q14 10 20.5 24t6.5 47v405h-84v-405q0 -30 7 -49q6 -11 20 -22h-134q26 19 26 71v405h-40v10h40q0 107 27.5 156.5t88.5 49.5q52 0 94 -27q27 27 69 27q64 0 97.5 -52t33.5 -123v-446
q0 -30 7 -49q6 -11 20 -22zM164 485h41q0 91 -21.5 140t-48.5 49q-17 0 -28 -19.5t-11 -54.5q0 -34 11 -72q7 -27 19.5 -35t37.5 -8zM329 485h40v31q0 76 -20 117t-45 41q-18 0 -30.5 -20.5t-12.5 -56.5q0 -32 10 -69q8 -27 20 -35t38 -8z" />
    <glyph glyph-name="f_f_t" unicode="fft" horiz-adv-x="566" 
d="M536 475h-86v-389q0 -50 42 -50q10 0 21 3t17 5l6 3q-4 -6 -12.5 -14t-32.5 -22t-47 -14q-75 0 -75 99v379h-83v-405q0 -30 7 -49q7 -13 20 -22h-134q26 19 26 71v405h-83v-405q0 -34 7 -49q4 -11 19 -22h-134q14 10 20.5 24t6.5 47v405h-41v10h41q0 107 27 156.5
t88 49.5q52 0 94 -27q26 27 71 27q57 0 99 -30l-48 -138q-5 74 -25.5 112.5t-44.5 38.5q-17 0 -29.5 -21t-12.5 -57q0 -22 6 -50q13 -61 74 -61q44 0 69 38t31 92h10v-130h86v-10zM165 485h40q0 91 -21.5 140.5t-48.5 49.5q-16 0 -27.5 -20t-11.5 -54q0 -35 11 -73
q8 -27 20 -35t38 -8z" />
    <glyph glyph-name="i_b" unicode="ib" horiz-adv-x="581" 
d="M114 21q6 -11 20 -22h-134q14 10 20 24.5t6 46.5v294q0 25 -4.5 41t-8.5 19.5t-13 9.5q35 5 63 18q28 16 44 33v-415q0 -32 7 -49zM373 487q88 0 133 -69.5t45 -175.5q0 -63 -17 -115.5t-61 -91t-110 -38.5q-34 0 -82 18q-18 7 -32 7q-22 0 -45 -23h-13v612
q-89 -79 -134 -79h-1q-22 0 -37 15t-15 37q0 21 15 36t37 15q10 0 35.5 -6t42.5 -6q61 0 138 64v-254q8 21 35.5 37.5t65.5 16.5zM363 9q40 0 66 36.5t35.5 86.5t9.5 110q0 98 -34.5 161.5t-86.5 63.5q-28 0 -51.5 -20.5t-29.5 -55.5v-269q0 -48 26 -80.5t65 -32.5z" />
    <glyph glyph-name="i_h" unicode="ih" horiz-adv-x="581" 
d="M551 -1h-134q14 10 20 24t6 47v273q0 57 -19.5 84.5t-49.5 27.5q-29 0 -58 -22.5t-44 -57.5v-305q0 -35 7 -49q4 -11 19 -22h-134q14 10 20.5 24t6.5 47v540q-90 -78 -134 -78h-1q-21 0 -36.5 15t-15.5 37q0 21 15.5 36t36.5 15q10 0 36 -6t43 -6q60 0 137 64v-274
q20 35 55 54.5t73 19.5q52 0 88 -30.5t36 -102.5v-284q0 -32 7 -49q6 -11 20 -22zM115 21q4 -11 19 -22h-134q14 10 20.5 24t6.5 47v294q0 25 -5 41t-9 19.5t-13 9.5q35 5 63 18q28 16 44 33v-415q0 -33 8 -49z" />
    <glyph glyph-name="i_k" unicode="ik" horiz-adv-x="577" 
d="M314 262h30q53 0 85 -20t45.5 -52t21 -66t19.5 -70t32 -55h-103q-28 22 -37 66.5t-8.5 83t-21 69.5t-73.5 34q-18 -21 -33 -39v-143q0 -32 7 -49q6 -11 20 -22h-134q26 19 26 71v540q-90 -78 -133 -78h-1q-21 0 -36 15t-15 37q0 21 15 36t36 15q10 0 35.5 -6t42.5 -6
q60 0 137 64v-458q91 105 168 193q13 16 13 30q0 23 -27 33h93q-29 -20 -66 -63q-73 -83 -138 -160zM115 21q4 -11 19 -22h-134q14 10 20.5 24t6.5 47v294q0 25 -5 41t-9 19.5t-13 9.5q35 5 63 18q27 15 45 33v-415q0 -35 7 -49z" />
    <glyph glyph-name="i_l" unicode="il" horiz-adv-x="328" 
d="M298 -1h-134q14 10 20.5 24t6.5 47v540q-90 -78 -133 -78h-2q-21 0 -36 15t-15 37q0 21 15 36t36 15h1q10 0 35.5 -6t42.5 -6q60 0 137 64v-617q0 -35 7 -49q4 -11 19 -22zM115 21q4 -11 19 -22h-134q14 10 20.5 24t6.5 47v294q0 26 -4.5 41t-9 19t-13.5 10q35 5 63 18
q25 13 45 33v-415q0 -35 7 -49z" />
    <glyph glyph-name="g_i" unicode="gi" horiz-adv-x="619" 
d="M589 -1h-134q14 10 20.5 24t6.5 47v294q0 25 -5 41t-9 19.5t-13 9.5q36 5 63 19q26 13 45 32v-415q0 -34 7 -49q4 -11 19 -22zM106 105h104q96 0 156 -44.5t60 -109.5q0 -66 -58.5 -110t-157.5 -44q-75 0 -136 32.5t-74 80.5l50 103q0 -34 7.5 -66.5t24.5 -64.5t50 -52
t78 -20q59 0 97 40t38 101q0 62 -37 103t-98 41h-122l33 53q-47 22 -72 64.5t-25 96.5q0 77 50 128t136 51q66 0 111 -31q27 68 83.5 123t106.5 55q22 0 37 -15t15 -36q0 -22 -15 -37t-37 -15q-111 0 -183 -80q68 -51 68 -143q0 -77 -50 -128t-136 -51q-44 0 -80 14z
M105 309q0 -74 27.5 -121.5t77.5 -47.5t77.5 47.5t27.5 121.5q0 73 -27.5 121t-77.5 48t-77.5 -48t-27.5 -121z" />
    <glyph glyph-name="g_a" unicode="ga" horiz-adv-x="818" 
d="M761 354v-284q0 -25 5 -41t8.5 -19.5t13.5 -10.5h-87q-9 0 -15 6.5t-6 14.5v30q-35 -53 -114 -53q-55 0 -92.5 36t-37.5 104q0 82 71.5 146t172.5 64v7q0 53 -20.5 87t-58.5 34q-33 0 -61 -25t-40 -77v-1q-48 88 -126 88q-25 0 -45 -8q67 -50 67 -143q0 -77 -49.5 -128
t-136.5 -51q-43 0 -79 14l-24 -39h104q96 0 156 -44.5t60 -109.5q0 -66 -58.5 -110t-157.5 -44q-76 0 -137 32.5t-74 80.5l51 103q0 -34 7.5 -66.5t24.5 -64.5t50 -52t78 -20q59 0 97 40t38 101q0 62 -37.5 103t-97.5 41h-122l32 53q-46 22 -71 64.5t-25 96.5q0 77 49.5 128
t135.5 51q61 0 107 -28q29 39 92 39q55 0 91 -32q54 21 101 21q63 0 111.5 -35t48.5 -99zM210 140q51 0 78 47.5t27 121.5t-27 121.5t-78 47.5q-50 0 -77 -47.5t-27 -121.5t27 -121.5t77 -47.5zM608 35q23 0 41 10t25 20l6 10v258q-59 0 -113 -56t-54 -146q0 -44 26.5 -70
t68.5 -26z" />
    <glyph glyph-name="c_t" unicode="ct" horiz-adv-x="631" 
d="M601 475h-86v-389q0 -50 42 -50q10 0 21 3t17 5l6 3q-4 -6 -12.5 -14t-32.5 -22t-48 -14q-74 0 -74 99v379h-40v10q45 7 75 44t35 86q0 55 -38.5 93.5t-92.5 38.5q-51 0 -85 -40t-34 -92q0 -35 14 -66.5t32.5 -52t41 -48.5t33.5 -52l-52 -34q-16 53 -46 84t-70 31
q-60 0 -95.5 -67t-35.5 -168q0 -107 48 -160.5t114 -53.5q43 0 79 24t56 70h20q-24 -58 -71.5 -91.5t-114.5 -33.5q-99 0 -153 70.5t-54 174.5t54 174.5t153 70.5q28 0 52 -6q-45 69 -45 134q0 61 44 102t115 41q59 0 100.5 -42t41.5 -101v-130h86v-10z" />
    <glyph glyph-name="c_k" unicode="ck" horiz-adv-x="821" 
d="M558 262h30q53 0 85 -20t45.5 -52t21 -66t19.5 -70t32 -55h-103q-28 22 -37 66.5t-8.5 83t-21 69.5t-72.5 34q-9 -11 -34 -38v-144q0 -30 7 -49q6 -11 20 -22h-134q14 10 20 24t6 47v581q0 46 -11.5 71t-49.5 25q-51 0 -85 -40t-34 -92q0 -35 14 -66.5t32.5 -52t41 -48.5
t33.5 -52l-52 -34h-1q-15 53 -45 84t-70 31q-60 0 -95.5 -67t-35.5 -168q0 -106 48 -160t113 -54q44 0 80 24t56 70h19q-24 -57 -71 -91t-114 -34q-99 0 -153 70.5t-54 174.5t54 174.5t153 70.5q27 0 53 -6q-46 68 -46 134q0 61 44 102t115 41q59 0 100.5 -35.5t41.5 -87.5
v-406q91 105 168 193q13 16 13 30q0 23 -27 33h93q-29 -20 -66 -63q-4 -4 -138 -160z" />
    <glyph glyph-name="c_l" unicode="cl" horiz-adv-x="572" 
d="M435 70v578q0 30 -3 48.5t-17.5 34.5t-41.5 16q-51 0 -85 -40t-34 -92q0 -45 22 -81.5t54.5 -73t45.5 -64.5l-53 -34q-35 115 -116 115q-60 0 -95.5 -67t-35.5 -168q0 -107 48 -160.5t114 -53.5q43 0 79 24t56 70h20q-53 -125 -186 -125q-99 0 -153 70.5t-54 174.5
t54 174.5t153 70.5q29 0 53 -6q-45 69 -45 134q0 61 43.5 102t114.5 41q59 0 101 -35.5t42 -87.5l-1 -565q0 -31 8 -49q4 -11 19 -22h-134q14 10 20.5 24t6.5 47z" />
    <glyph glyph-name="s_t" unicode="st" horiz-adv-x="567" 
d="M537 475h-86v-389q0 -50 42 -50q10 0 21 3t17 5l6 3q-4 -6 -12.5 -14t-32.5 -22t-47 -14q-75 0 -75 99v379h-40v10q45 7 75 44t35 86q0 55 -38.5 93.5t-92.5 38.5q-51 0 -85 -40t-34 -92q0 -44 21 -79t46 -68t31 -65l-58 -31q0 48 -19.5 76.5t-52.5 28.5q-29 0 -50 -24.5
t-21 -62.5q0 -33 25 -57t60.5 -40.5t71 -35t60.5 -51.5t25 -79q0 -63 -43 -96.5t-123 -33.5q-140 0 -163 137l65 33q0 -32 3 -55t12 -49.5t30 -40.5t53 -14q35 0 60.5 24t25.5 63q0 36 -25 64.5t-60.5 48.5t-71 40.5t-60.5 50.5t-25 68q0 56 40 88t111 32q21 0 37 -4
q-1 1 -6.5 10.5t-6.5 11.5t-6 10.5t-6.5 12t-5 12t-5 13.5t-4 13.5t-3 15.5t-1.5 15.5t-1 17.5q0 61 44 102t115 41q59 0 100.5 -42t41.5 -101v-130h86v-10z" />
    <glyph glyph-name="h_g" unicode="hg" horiz-adv-x="847" 
d="M493 105h104q96 0 156 -44.5t60 -109.5q0 -63 -77.5 -108.5t-179.5 -45.5q-41 0 -86 11t-89 33.5t-73 63.5t-29 94v344q0 57 -19.5 84.5t-49.5 27.5t-59 -22.5t-44 -57.5v-305q0 -32 7 -49q6 -13 20 -22h-134q14 10 20 24.5t6 46.5v496q0 25 -4.5 41t-8.5 19.5t-13 9.5
q36 5 63 19q28 14 44 32v-274q20 35 55.5 54.5t73.5 19.5q52 0 88 -31t36 -103v-354q0 -82 52 -135.5t144 -53.5q63 0 119.5 42t56.5 99q0 62 -37 103t-98 41h-122l33 53q-47 22 -72 64.5t-25 96.5q0 77 49.5 128t136.5 51q58 0 106 -28q31 46 67 46q21 0 47 -18l-31 -42
q-15 35 -39 35q-20 0 -36 -26q71 -51 71 -146q0 -77 -49.5 -128t-135.5 -51q-44 0 -80 14zM597 478q-51 0 -78 -47.5t-27 -121.5t27 -121.5t78 -47.5q50 0 77 47.5t27 121.5t-27 121.5t-77 47.5z" />
    <glyph glyph-name="n_g" unicode="ng" horiz-adv-x="847" 
d="M493 105h104q96 0 156 -44.5t60 -109.5q0 -63 -77 -108.5t-179 -45.5q-41 0 -86 11t-89.5 33.5t-73.5 63.5t-29 94v344q0 57 -19.5 84.5t-49.5 27.5q-29 0 -58 -22.5t-44 -57.5v-305q0 -26 6 -43t8.5 -19t11.5 -9h-134q14 10 20.5 24t6.5 47v294q0 26 -4.5 41t-9 19
t-13.5 10q35 5 63 18q25 13 45 33v-72q20 35 55 54.5t73 19.5q52 0 88 -30.5t36 -103.5v-354q0 -82 52.5 -135.5t144.5 -53.5q63 0 119 42t56 99q0 62 -37 103t-98 41h-122l33 53q-46 22 -71 64.5t-25 96.5q0 77 49.5 128t135.5 51q60 0 106 -28q31 46 68 46q21 0 46 -18
l-31 -42q-15 35 -38 35q-20 0 -36 -26q71 -51 71 -146q0 -77 -50 -128t-136 -51q-43 0 -80 14zM597 478q-50 0 -77.5 -48t-27.5 -121q0 -74 27.5 -121.5t77.5 -47.5t77.5 47.5t27.5 121.5q0 73 -27.5 121t-77.5 48z" />
    <glyph glyph-name="m_g" unicode="mg" horiz-adv-x="1099" 
d="M745 105h104q96 0 156 -44.5t60 -109.5q0 -63 -77 -108.5t-179 -45.5q-41 0 -86 11t-89.5 33.5t-73.5 63.5t-29 94v344q0 57 -19.5 84.5t-49.5 27.5q-29 0 -58.5 -23t-44.5 -59q1 -6 1 -20v-283q0 -35 7 -49q4 -11 19 -22h-134q14 10 20.5 24t6.5 47v273q0 57 -19.5 84.5
t-49.5 27.5t-59 -22.5t-44 -57.5v-305q0 -32 7 -49q6 -13 20 -22h-134q14 10 20 24.5t6 46.5v294q0 25 -4.5 41t-8.5 19.5t-13 9.5q35 5 63 18q28 16 44 33v-72q21 35 56 54.5t73 19.5q96 0 118 -84q20 39 57 61.5t77 22.5q52 0 88 -31t36 -103v-354q0 -82 52.5 -135.5
t144.5 -53.5q63 0 119 42t56 99q0 62 -37 103t-98 41h-122l33 53q-47 22 -72 64.5t-25 96.5q0 77 50 128t136 51q60 0 106 -28q31 46 68 46q21 0 46 -18l-31 -42q-15 35 -38 35q-20 0 -36 -26q71 -51 71 -146q0 -77 -50 -128t-136 -51q-44 0 -80 14zM849 478
q-50 0 -77.5 -48t-27.5 -121q0 -74 27.5 -121.5t77.5 -47.5t77.5 47.5t27.5 121.5q0 73 -27.5 121t-77.5 48z" />
    <glyph glyph-name="o_r" unicode="or" horiz-adv-x="778" 
d="M550 21q6 -11 20 -22h-134q14 10 20 24t6 47v242q50 50 81 70v-312q0 -32 7 -49zM651 487q47 0 97 -41l-67 -74q-7 24 -26.5 42t-40.5 18q-33 0 -65.5 -18.5t-59.5 -44.5t-54.5 -52t-61.5 -44.5t-69 -18.5q-81 0 -123 44t-42 100q0 40 20 66q-39 -24 -61 -84t-22 -138
q0 -101 35.5 -168t95.5 -67q59 0 94 63.5t37 160.5q37 9 76 38q0 -4 0.5 -13t0.5 -14q0 -104 -54 -174.5t-154 -70.5q-99 0 -153 70.5t-54 174.5t54 174.5t153 70.5q83 0 134.5 -49.5t67.5 -130.5q27 23 53 50v7q0 25 -4.5 41t-8.5 19.5t-13 9.5q35 5 63 18q28 16 44 33v-47
q57 49 108 49zM217 477h-6q-28 0 -44.5 -22t-16.5 -56q0 -52 39.5 -93.5t114.5 -41.5q16 0 34 5q-5 87 -37 144.5t-84 63.5z" />
    <glyph glyph-name="o_m" unicode="om" horiz-adv-x="1105" 
d="M544 383v-313q0 -26 6 -43t8.5 -19t11.5 -9h-134q14 10 20.5 24t6.5 47v243q7 7 21 19q40 36 60 51zM1075 -1h-134q14 10 20.5 24t6.5 47v273q0 57 -19.5 84.5t-49.5 27.5q-29 0 -58.5 -23t-44.5 -59q0 -3 0.5 -9.5t0.5 -10.5v-283q0 -26 6 -43t8.5 -19t11.5 -9h-134
q14 10 20.5 24t6.5 47v273q0 58 -19.5 85t-51.5 27q-31 0 -67 -20.5t-69 -50.5t-66 -59.5t-69.5 -50t-68.5 -20.5q-82 0 -124 43.5t-42 100.5q0 40 20 66q-39 -24 -61 -84t-22 -138q0 -101 35.5 -168t96.5 -67q59 0 94 63.5t37 160.5q36 9 75 38q1 -8 1 -27
q0 -104 -54 -174.5t-153 -70.5q-100 0 -154 70.5t-54 174.5t54 174.5t154 70.5q81 0 132 -48t68 -127q19 15 55 47v5q0 26 -4.5 41t-9 19t-13.5 10q35 5 63 18q25 13 45 33v-56q74 58 129 58q95 0 118 -84q19 39 56 61.5t78 22.5q52 0 88 -31t36 -103v-283q0 -26 6 -43
t8.5 -19t11.5 -9zM208 477h-1q-25 0 -40.5 -22.5t-15.5 -55.5q0 -53 39 -94t115 -41q11 0 33 6q-3 58 -17.5 100t-30.5 61.5t-36.5 31t-29.5 13t-16 1.5z" />
    <glyph glyph-name="o_n" unicode="on" horiz-adv-x="853" 
d="M823 -1h-134q26 19 26 71v273q0 58 -19.5 85t-51.5 27q-37 0 -84 -31.5t-84 -69t-84.5 -69t-86.5 -31.5q-82 0 -124 43.5t-42 100.5q0 40 20 66q-39 -24 -61 -84t-22 -138q0 -101 35.5 -168t95.5 -67q59 0 94 63.5t37 160.5q37 9 76 38q1 -8 1 -27q0 -104 -54 -174.5
t-154 -70.5q-99 0 -153 70.5t-54 174.5t54 174.5t153 70.5q81 0 132.5 -48.5t68.5 -126.5q19 15 55 47v5q0 25 -5 41t-9 19.5t-13 9.5q35 5 63 18q25 13 45 33v-56q74 58 128 58q52 0 88 -30.5t36 -103.5v-283q0 -26 6 -43t9 -19.5t12 -8.5zM207 477q-25 0 -40.5 -22.5
t-15.5 -55.5q0 -53 39 -94t115 -41q9 0 33 6q-3 58 -17.5 100t-31 61.5t-37 31t-29.5 13t-16 1.5zM544 383v-313q0 -26 6 -43t8.5 -19t11.5 -9h-134q14 10 20.5 24t6.5 47v243q4 3 11 9.5t10 9.5z" />
    <glyph glyph-name="s_s" unicode="ss" horiz-adv-x="727" 
d="M697 127q0 -63 -43.5 -96.5t-122.5 -33.5q-48 0 -82.5 26.5t-54 68.5t-35 93t-31 102.5t-35 93.5t-53.5 68.5t-82 26.5q-29 0 -50.5 -24.5t-21.5 -61.5q0 -33 25 -57t60.5 -40.5t71 -35t60.5 -51.5t25 -79q0 -63 -43 -96.5t-123 -33.5q-141 0 -162 137l64 33q0 -32 3 -55
t12 -49.5t30 -40.5t53 -14q35 0 60.5 24t25.5 63q0 36 -25 64.5t-60.5 48.5t-71 40.5t-60.5 50.5t-25 68q0 56 40.5 88t111.5 32q50 0 86 -26.5t56 -68.5t36 -93t31 -102.5t34 -93.5t51.5 -68.5t78.5 -26.5q35 0 60.5 24t25.5 63q0 36 -25 64.5t-60.5 48.5t-71 40.5
t-60.5 50.5t-25 68q0 56 40 88t111 32q49 0 85 -23.5t45 -60.5l-58 -31q0 47 -19.5 75.5t-52.5 28.5q-29 0 -50 -24.5t-21 -61.5q0 -33 25 -57t60.5 -40.5t71 -35t60.5 -51.5t25 -79z" />
    <glyph glyph-name=".notdef" horiz-adv-x="1947" 
d="M683 683v-683h-682q-1 0 -1 1v682h683zM942 679q8 -12 12 -16q13 -11 22 -15v-1l-9 -5q-15 -13 -21 -23l-4 -6l-8 11q-13 16 -21 20l-6 3l18 12q13 12 16 19zM749 665q19 -6 68 -6h21q42 0 61 6q-3 -97 -3 -144h-1q-11 80 -20 100q-8 20 -21 26q-2 1 -4 1v-234
q0 -13 13 -22v-1h-79v1q13 9 13 21v235q-13 -4 -21 -20q-5 -12 -10 -31q-8 -35 -14 -76q-3 95 -3 144zM1457 659v-243q0 -14 9 -21l4 -3v-1h-78v1q12 9 12 20v222q0 15 -8 21q-4 3 -4 4h65zM1098 609h1q23 0 30 -17q4 -14 4 -17q9 21 26 30q9 4 21 4h2q22 0 30 -18
q4 -11 4 -26v-150q0 -14 11 -22l2 -1v-1h-79v1q10 8 12 15q1 2 1 9v130q0 31 -8 39q-2 2 -4 2q-9 0 -15 -25q-3 -10 -3 -22v-125q0 -13 12 -22l1 -1v-1h-78v1q10 9 10 11q3 4 3 11v137q0 27 -9 35l-3 1q-10 0 -16 -24q-2 -14 -2 -27v-119q0 -14 7 -20l6 -5v-1h-79v1
q13 9 13 22v169q0 14 -10 21l-3 2h66v-29q7 18 25 28q11 4 22 4zM1314 609q45 0 58 -37q4 -13 4 -26v-11h-30q21 -8 33 -31q8 -18 8 -36q0 -43 -35 -67q-19 -13 -43 -13h-2q-40 0 -60 41q-12 29 -12 69q0 81 45 105q15 6 34 6zM1553 609q45 0 58 -36q5 -13 5 -38h-30
q21 -9 33 -31q7 -15 7 -36q0 -41 -31 -65q-21 -15 -46 -15h-2q-39 0 -59 38q-14 28 -14 72q0 80 44 104q14 7 35 7zM1702 609q9 0 45 -3h4q11 0 17 3q-17 -88 -19 -96q22 -22 22 -55q0 -39 -34 -60q-19 -10 -41 -10h-2q-6 0 -37 3h-2q-10 0 -22 -3q11 110 12 119
q6 -36 12 -64q15 -48 41 -48h1q20 0 28 23q2 8 2 13v4q0 32 -43 59q-27 22 -28 23q-18 19 -18 39v2v1l-1 1q0 24 19 37q16 12 44 12zM1848 609q9 0 45 -3h4q8 0 17 3l-19 -95q22 -25 22 -53v-5q0 -28 -24 -51q-22 -17 -51 -17h-2q-6 0 -38 3h-1q-10 0 -22 -3v1l11 119h1v-1
q4 -36 11 -61q15 -51 42 -51h1q18 0 27 20q3 9 3 17q0 31 -32 54q-8 6 -19.5 15t-14.5 11q-24 20 -24 49t27 42q16 6 36 6zM903 606h65v-191q0 -11 8 -19l5 -4v-1h-78v1q9 9 10 12q2 3 2 12v165q0 14 -7 20zM1289 543h50v2q0 44 -14 56l-8 2q-17 0 -26 -43q0 -5 -2 -17z
M1529 543h50v3q0 43 -15 55q-6 2 -7 2q-17 0 -26 -43q-2 -14 -2 -17zM1682 581q0 -15 33 -38q4 -3 13.5 -11t13.5 -11l5 -5q0 12 -5 44q-12 43 -37 43q-16 0 -22 -14q-1 -2 -1 -8zM1828 583v-2q0 -16 29 -36q8 -6 33 -26l3 -3q0 20 -8 54q-12 33 -35 33q-15 0 -21 -14
q-1 -2 -1 -6zM141 582q0 -27 4 -199q17 119 34 149q5 10 14 18q8 7 14 8l1 1v-326q0 -17 -16 -29l-2 -2h109q-15 12 -17 23q-1 3 -1 13v322q19 -7 31 -27q7 -12 14 -41q1 -6 2.5 -13.5t4 -18.5t3.5 -18q0 -10 3 -160q17 106 30 140q4 12 13 22q11 11 20 14v-326
q0 -19 -18 -31h109q-18 13 -18 30v327q13 -3 26 -19q10 -15 13 -28q11 -32 23 -120q1 -4 1 -8h1l3 197l1 1q-25 -10 -96 -10q-74 0 -100 7l1 101l1 3q-25 -9 -85 -9h-26q-72 0 -97 9zM1288 535v-25q0 -80 27 -97q8 -5 17 -5h1q24 0 37 25q9 17 9 35q0 48 -48 65q-4 2 -7 2
h-36zM1528 535q-1 -15 -1 -25q0 -81 28 -97q8 -5 16 -5h2q23 0 37 25q8 15 8 35q0 50 -49 66q-3 1 -6 1h-35zM749 371q18 -7 68 -7h21q43 0 61 7l-2 -59h77l1 -1q-7 -7 -7 -15q0 -2 3 -21.5t10 -66t15 -95.5l31 166q3 9 3 17q0 9 -6 15v1h93v-28h1q12 31 45 31h1
q39 0 53 -47q7 -28 7 -61q0 -82 -39 -106q-13 -7 -30 -7h-4q-17 0 -34 9v-75q0 -11 8 -19l5 -4v-1h-78v1q12 9 12 16v266q0 15 -9 21v1q-6 -3 -13 -10q-5 -7 -5 -15q-37 -184 -37 -187h-23q21 -13 21 -42q0 -35 -27 -47q-14 -4 -21 -4q-27 0 -52 17v1l8 69q11 -32 28 -42
q12 -6 23 -6q21 0 27 16q1 3 1 8v1q0 19 -23 27q-10 2 -16 2h-3q-1 0 -3 18q0 2 -2.5 18.5t-9.5 61t-13 86.5q-1 11 -5 17q-9 9 -12 10h-1l-1 -82h-1q-11 82 -20 101q-7 19 -21 25l-4 2v-235q0 -13 13 -22h-79q13 10 13 22v235q-13 -6 -21 -21q-5 -12 -10 -31
q-5 -22 -14 -76q-3 81 -3 145zM1312 315q42 0 57 -35q5 -15 5 -32v-7h-30v-1q23 -9 33 -31q7 -14 7 -34v-3q0 -39 -32 -65q-22 -13 -44 -13h-3q-41 0 -60 39q-13 29 -13 70v2q0 78 44 102q18 8 36 8zM1523 315q10 0 40 -3h8q9 0 16 3v-1l-20 -100q0 32 -9 63q-9 23 -22 29
q-8 2 -10 2q-20 0 -29 -54q-3 -19 -3 -41q0 -62 18 -95q9 -17 24 -17q31 0 43 77q3 10 6 35l12 -119q-12 3 -22 3q-3 0 -34 -3h-5q-36 0 -64 28q-31 37 -31 93q0 69 47 92q18 8 35 8zM1690 315q57 0 78 -56q8 -26 8 -55q0 -79 -48 -103q-15 -7 -37 -7h-2q-55 0 -76 52
q-10 27 -10 58q0 70 38 97q22 14 49 14zM1287 249h50q0 47 -15 57q-4 2 -7 2q-13 0 -22 -28q-6 -22 -6 -31zM1657 209v-10q0 -69 20 -93q7 -5 11 -5h2q17 0 26 37q6 26 6 66q0 78 -21 100q-5 4 -12 4q-19 0 -28 -45q-4 -23 -4 -54zM1117 242v-131q11 -6 20 -6q33 0 33 100v2
q0 4 1 5q-1 1 -1 5v3q0 78 -24 78h-1q-16 0 -23 -25q-5 -17 -5 -31zM1286 241q0 -4 -0.5 -13.5t-0.5 -14.5q0 -99 45 -99h1q23 0 36 23q9 17 9 37q0 52 -54 67h-36zM1689 230q12 -16 27 -24q-15 -8 -27 -26q-9 15 -26 26q3 1 6 3t6.5 5t5.5 4zM1411 137h1q14 0 20 -14
q0 -1 0.5 -3t0.5 -3v-3q0 -14 -14 -19q-2 -1 -7 -1h-2q-8 0 -15 6q-5 7 -5 16q0 14 14 20q2 1 7 1z" />
    <glyph glyph-name=".null" horiz-adv-x="0" 
 />
    <glyph glyph-name="nonmarkingreturn" horiz-adv-x="333" 
 />
    <glyph glyph-name="space" unicode=" " horiz-adv-x="300" 
 />
    <glyph glyph-name="space" unicode="&#xa0;" horiz-adv-x="300" 
 />
    <glyph glyph-name="exclam" unicode="!" horiz-adv-x="138" 
d="M108 53q0 -23 -16 -38.5t-38 -15.5t-38 15.5t-16 38.5t16 38.5t38 15.5t38 -15.5t16 -38.5zM108 677l-46 -497h-17l-45 497h108z" />
    <glyph glyph-name="quotedbl" unicode="&#x22;" horiz-adv-x="195" 
d="M33 676q18 0 27.5 -11t9.5 -27q0 -18 -10.5 -31.5t-27.5 -13.5q11 6 13 23q-6 -3 -12 -3q-13 0 -23 8.5t-10 22.5t10 23t23 9zM111 676q18 0 27.5 -11t9.5 -27q0 -18 -10.5 -31.5t-27.5 -13.5q11 6 13 23q-6 -3 -12 -3q-13 0 -23 8.5t-10 22.5t10 23t23 9z" />
    <glyph glyph-name="numbersign" unicode="#" horiz-adv-x="652" 
d="M617 444h-149l-44 -212h157l-5 -26l-157 -1l-42 -206h-27l42 206h-217l-42 -206h-27l42 206h-148l4 27h150l43 212h-157l5 26h158l42 207h27l-42 -207h216l42 207h27l-42 -206h149zM397 232l44 212h-217l-43 -212h216z" />
    <glyph glyph-name="dollar" unicode="$" horiz-adv-x="473" 
d="M443 178q0 -26 -11 -54.5t-34 -57.5t-65.5 -48.5t-97.5 -21.5v-53h-27v54q-96 5 -147 60t-61 130l69 37q0 -38 6.5 -72t21 -66.5t43 -53.5t68.5 -25v296q-98 45 -132 72q-68 55 -68 139q0 29 10.5 56.5t32 52.5t62 40.5t93.5 15.5h2v53h27v-55q54 -7 95.5 -39t55.5 -76
l-66 -35q0 53 -24 89.5t-61 48.5v-266q99 -47 133 -74q75 -58 75 -147zM92 543q0 -45 30 -74.5t86 -56.5v257h-2q-47 0 -80.5 -35.5t-33.5 -90.5zM235 291v-284q48 3 86.5 41.5t38.5 97.5q0 51 -32.5 83.5t-92.5 61.5z" />
    <glyph glyph-name="percent" unicode="%" horiz-adv-x="595" 
d="M407 676h33l-283 -677h-33zM123 676q61 0 92 -57t31 -139t-31 -139.5t-92 -57.5t-92 57.5t-31 139.5t31 139t92 57zM123 289q37 0 56.5 53.5t19.5 137.5t-19.5 137.5t-56.5 53.5t-57 -54t-20 -137t20 -137t57 -54zM442 392q60 0 91.5 -57.5t31.5 -138.5
q0 -82 -31.5 -139.5t-91.5 -57.5q-61 0 -92 57.5t-31 139.5t31 139t92 57zM442 5q37 0 56.5 53.5t19.5 137.5q0 83 -19.5 136.5t-56.5 53.5t-57 -53.5t-20 -136.5q0 -84 20 -137.5t57 -53.5z" />
    <glyph glyph-name="ampersand" unicode="&#x26;" horiz-adv-x="591" 
d="M561 -1h-136q-2 9 -6.5 23.5t-6.5 21.5q-58 -48 -149 -48q-117 0 -190 64t-73 167q0 77 39.5 130.5t101.5 81.5q-39 52 -39 108q3 63 48 97.5t120 34.5q118 0 155 -78l-74 -54q0 55 -21.5 88.5t-59.5 33.5t-59.5 -33.5t-21.5 -88.5q0 -149 222 -397q4 20 4 46
q0 74 -33 118h129q0 -133 -52 -216q26 -27 51.5 -51.5t37.5 -36.5zM263 11q91 0 131 85q-23 60 -57 114t-55.5 79.5t-65.5 69.5t-51 52q-74 -61 -74 -188q0 -89 52 -150.5t120 -61.5z" />
    <glyph glyph-name="quotesingle" unicode="'" horiz-adv-x="117" 
d="M33 676q18 0 27.5 -11t9.5 -27q0 -18 -10.5 -31.5t-27.5 -13.5q11 6 13 23q-6 -3 -12 -3q-13 0 -23 8.5t-10 22.5t10 23t23 9z" />
    <glyph glyph-name="parenleft" unicode="(" horiz-adv-x="244" 
d="M214 762v-28q-54 0 -93.5 -114.5t-39.5 -281.5t39.5 -282t93.5 -115v-27q-71 0 -121 62.5t-71.5 155.5t-21.5 206t21.5 206t71.5 155.5t121 62.5z" />
    <glyph glyph-name="parenright" unicode=")" horiz-adv-x="244" 
d="M0 -86v27q54 0 93.5 115t39.5 282t-39.5 281.5t-93.5 114.5v28q71 0 121 -62.5t71.5 -155.5t21.5 -206t-21.5 -206t-71.5 -155.5t-121 -62.5z" />
    <glyph glyph-name="asterisk" unicode="*" horiz-adv-x="219" 
d="M189 598l-88 -18l60 -67l-22 -15l-44 77l-45 -77l-22 15l60 67l-88 18l9 26l82 -37l-10 90h27l-9 -90l81 37z" />
    <glyph glyph-name="plus" unicode="+" horiz-adv-x="243" 
d="M213 183v-27h-93v-93h-27v93h-93v27h93v93h27v-93h93z" />
    <glyph glyph-name="comma" unicode="," horiz-adv-x="177" 
d="M56 107q30 0 46.5 -19t16.5 -47q0 -29 -18 -52t-47 -23q19 9 23 39q-11 -6 -21 -6q-23 0 -39.5 15t-16.5 39q0 23 16.5 38.5t39.5 15.5z" />
    <glyph glyph-name="hyphenminus" unicode="-" horiz-adv-x="275" 
d="M0 156v27h245v-27h-245z" />
    <glyph glyph-name="hyphenminus" unicode="&#xad;" horiz-adv-x="275" 
d="M0 156v27h245v-27h-245z" />
    <glyph glyph-name="period" unicode="." horiz-adv-x="138" 
d="M108 53q0 -22 -16 -38t-38 -16t-38 15.5t-16 38.5t16 38.5t38 15.5t38 -16t16 -38z" />
    <glyph glyph-name="slash" unicode="/" horiz-adv-x="196" 
d="M139 677h27l-139 -678h-27z" />
    <glyph glyph-name="zero" unicode="0" horiz-adv-x="458" 
d="M214 680q71 0 121 -50.5t71.5 -125.5t21.5 -166t-21.5 -165.5t-71.5 -125t-121 -50.5t-121 50.5t-71.5 125t-21.5 165.5t21.5 166t71.5 125.5t121 50.5zM214 7q43 0 74 45t45 118.5t14 167.5t-14 167.5t-45 119t-74 45.5t-74 -45.5t-45 -119t-14 -167.5t14 -167.5
t45 -118.5t74 -45z" />
    <glyph glyph-name="one" unicode="1" horiz-adv-x="163" 
d="M107 677v-607q0 -33 6 -47t20 -23h-133q14 9 20 23t6 47v486q0 52 -26 71z" />
    <glyph glyph-name="two" unicode="2" horiz-adv-x="409" 
d="M51 80h249q34 0 49 7t25 22v-110h-374q9 42 42.5 93t74.5 99t80.5 98t66 105.5t26.5 106.5q0 76 -24.5 121.5t-72.5 45.5q-47 0 -73.5 -42.5t-31.5 -103.5l-85 44q25 50 76 82t114 32q86 0 136 -48.5t50 -130.5q0 -56 -23.5 -103t-62.5 -83.5t-81 -69.5t-87.5 -76.5
t-73.5 -88.5z" />
    <glyph glyph-name="three" unicode="3" horiz-adv-x="427" 
d="M361 677l-162 -199q89 -4 143.5 -72.5t54.5 -168.5q0 -101 -61.5 -170.5t-155.5 -69.5q-58 0 -111.5 33t-68.5 81l59 38q4 -57 38 -98.5t83 -41.5q53 0 90 66.5t37 161.5q0 98 -32.5 166.5t-83.5 68.5v8l92 116h-185q-34 0 -49 -6.5t-25 -21.5v109h337z" />
    <glyph glyph-name="four" unicode="4" horiz-adv-x="449" 
d="M409 137h-58v-67q0 -53 26 -70h-133q14 9 20 23t6 47v67h-270v54q96 111 138.5 227t42.5 259h97q0 -44 -8 -85t-30 -86t-37.5 -74t-54.5 -79t-54 -68.5t-63 -73.5q-11 -13 -17 -20h256v257l81 40v-297h68z" />
    <glyph glyph-name="five" unicode="5" horiz-adv-x="408" 
d="M378 244q0 -102 -55.5 -174.5t-152.5 -72.5q-57 0 -106 32.5t-64 81.5l58 38q5 -59 34.5 -99.5t77.5 -40.5q56 0 87.5 69t31.5 166q0 90 -35.5 149.5t-106.5 59.5q-83 0 -121 -74h-10l20 298h237q33 0 48 7t26 22v-110h-307l-12 -192q42 74 142 74q92 0 150 -70.5
t58 -163.5z" />
    <glyph glyph-name="six" unicode="6" horiz-adv-x="432" 
d="M226 394q84 0 130 -54t46 -141t-52 -144.5t-144 -57.5t-149 75t-57 228q0 157 63.5 268.5t160.5 111.5q101 0 160 -94l-59 -38q-11 52 -37.5 88t-63.5 36q-32 0 -56 -38t-37.5 -101.5t-20 -122t-9.5 -124.5q12 49 45 78.5t80 29.5zM206 5q51 0 79 52t28 132t-28 132.5
t-79 52.5t-79 -52.5t-28 -132.5t28 -132t79 -52z" />
    <glyph glyph-name="seven" unicode="7" horiz-adv-x="374" 
d="M74 677h270q-9 -37 -41 -165t-45.5 -189t-28 -154t-14.5 -159v-11h-133q30 80 108.5 280.5t118.5 316.5h-309v110q10 -15 25 -22t49 -7z" />
    <glyph glyph-name="eight" unicode="8" horiz-adv-x="437" 
d="M297 382q52 -24 81 -72.5t29 -110.5q0 -87 -54 -144.5t-150 -57.5q-95 0 -149 57.5t-54 144.5q0 62 28.5 110.5t80.5 72.5q-75 45 -75 136q0 69 47 115.5t122 46.5q76 0 122.5 -46.5t46.5 -115.5q0 -91 -75 -136zM203 670q-37 0 -59 -42.5t-22 -100.5t22 -100.5t59 -42.5
t59 42t22 101t-22 101t-59 42zM203 5q46 0 71 52t25 132t-25 132.5t-71 52.5t-71 -52.5t-25 -132.5t25 -132t71 -52z" />
    <glyph glyph-name="nine" unicode="9" horiz-adv-x="432" 
d="M176 282q-84 0 -130 54.5t-46 141.5t52 144.5t144 57.5t149 -75t57 -228q0 -157 -63.5 -268.5t-160.5 -111.5q-102 0 -159 93l58 38q11 -51 37.5 -87t63.5 -36q32 0 56 38t37.5 101.5t20 122t9.5 123.5q-11 -49 -44.5 -78.5t-80.5 -29.5zM196 672q-51 0 -79 -52.5
t-28 -132.5q0 -79 28 -131.5t79 -52.5t79 52.5t28 131.5q0 80 -28 132.5t-79 52.5z" />
    <glyph glyph-name="colon" unicode=":" horiz-adv-x="138" 
d="M108 53q0 -22 -16 -38t-38 -16t-38 15.5t-16 38.5t16 38.5t38 15.5t38 -16t16 -38zM108 366q0 -22 -16 -38t-38 -16t-38 16t-16 38t16 38t38 16t38 -16t16 -38z" />
    <glyph glyph-name="semicolon" unicode=";" horiz-adv-x="177" 
d="M108 366q0 -22 -16 -38t-38 -16t-38 16t-16 38t16 38t38 16t38 -16t16 -38zM56 107q30 0 46.5 -19t16.5 -47q0 -29 -18 -52t-47 -23q19 9 23 39q-11 -6 -21 -6q-23 0 -39.5 15t-16.5 39q0 23 16.5 38.5t39.5 15.5z" />
    <glyph glyph-name="less" unicode="&#x3c;" horiz-adv-x="227" 
d="M197 235l-136 -66l136 -66l-11 -24l-186 90l186 90z" />
    <glyph glyph-name="equal" unicode="=" horiz-adv-x="254" 
d="M0 216v27h224v-27h-224zM0 96v27h224v-27h-224z" />
    <glyph glyph-name="greater" unicode="&#x3e;" horiz-adv-x="227" 
d="M0 103l136 66l-136 66l11 24l186 -90l-186 -90z" />
    <glyph glyph-name="question" unicode="?" horiz-adv-x="406" 
d="M376 497q0 -47 -18 -84.5t-45 -62t-54.5 -47.5t-49.5 -54t-27 -69h-20q3 33 17 62.5t31.5 53t35 49.5t29.5 65t12 87q0 77 -24.5 122.5t-72.5 45.5q-47 0 -73.5 -42.5t-31.5 -103.5l-85 44q25 50 76 82t114 32q85 0 135.5 -48.5t50.5 -131.5zM230 53q0 -23 -16 -38.5
t-38 -15.5t-38 15.5t-16 38.5t16 38.5t38 15.5t38 -15.5t16 -38.5z" />
    <glyph glyph-name="at" unicode="@" horiz-adv-x="820" 
d="M448 704q138 0 228 -90.5t90 -224.5q0 -17 -4 -51q-10 -71 -35.5 -127t-59 -88t-69 -48.5t-70.5 -16.5q-42 0 -69.5 24t-27.5 66q0 11 1 17q-40 -48 -110 -48q-44 0 -72.5 26t-28.5 75q0 7 2 25q11 75 83.5 132.5t164.5 57.5v5q2 20 2 30q0 37 -15 58.5t-43 21.5
q-29 0 -57.5 -22.5t-45.5 -70.5l-41 56q23 19 65 33.5t82 14.5q51 0 89 -26.5t38 -76.5q0 -12 -1 -18l-39 -273q-1 -7 -1 -18q0 -52 41 -52q44 0 91.5 64.5t64.5 178.5q4 27 4 58q0 121 -70.5 199.5t-191.5 78.5q-136 0 -234.5 -97t-118.5 -239q-4 -27 -4 -59
q0 -121 70 -199t191 -78q68 0 136 27l12 -26q-74 -31 -152 -31q-137 0 -227.5 90t-90.5 224q0 28 4 52q22 151 144.5 258.5t274.5 107.5zM436 188l33 232q-53 0 -109 -50.5t-68 -131.5q-1 -6 -1 -16q0 -33 20 -51.5t54 -18.5q20 0 38 9t25 18z" />
    <glyph glyph-name="A" unicode="A" horiz-adv-x="466" 
d="M390 77q17 -59 46 -77h-144q19 15 19 45q0 14 -5 32q-3 12 -16.5 58.5l-22.5 77.5h-173q-6 -20 -14 -50.5t-13.5 -51t-9.5 -34.5q-3 -12 -3 -22q0 -39 40 -55h-94q32 21 47 77l162 600h10q129 -450 171 -600zM97 223h168l-87 303z" />
    <glyph glyph-name="B" unicode="B" horiz-adv-x="441" 
d="M259 400q67 -14 109.5 -69t42.5 -129q0 -85 -55 -143.5t-138 -58.5h-218q14 9 20.5 23t6.5 47v537q0 26 -6.5 43t-8.5 18.5t-12 8.5h218q59 0 100.5 -41t41.5 -100q0 -48 -28.5 -85.5t-72.5 -50.5zM168 667h-61v-263h61q52 0 81.5 37.5t29.5 94.5q0 56 -29.5 93.5
t-81.5 37.5zM330 202q0 83 -42.5 137.5t-119.5 54.5h-61v-384h61q77 0 119.5 54.5t42.5 137.5z" />
    <glyph glyph-name="C" unicode="C" horiz-adv-x="480" 
d="M435 155h15q-29 -73 -82 -115.5t-126 -42.5q-114 0 -178 98t-64 243q0 146 64 244t178 98q128 0 194 -127l-58 -31q-20 69 -55 108.5t-81 39.5q-74 0 -117.5 -95t-43.5 -237q0 -133 56 -215.5t135 -82.5q117 0 163 115z" />
    <glyph glyph-name="D" unicode="D" horiz-adv-x="481" 
d="M0 677h210q114 0 177.5 -97t63.5 -242q0 -144 -63.5 -241t-177.5 -97h-210q14 9 20 23t6 47v537q0 10 -1 19t-2 15t-3 11.5t-3.5 8.5t-4.5 6.5t-4.5 4t-4.5 2.5zM107 10h73q75 0 132.5 95.5t57.5 232.5t-57.5 233t-132.5 96h-73v-657z" />
    <glyph glyph-name="E" unicode="E" horiz-adv-x="423" 
d="M108 10h63q74 0 136 36t86 91l-12 -137h-381q14 9 20.5 23t6.5 47v537q0 26 -6 42.5t-9 19t-12 8.5h360l11 -112q-23 45 -75.5 73.5t-124.5 28.5h-63v-283h62q119 0 150 102v-215q-31 103 -150 103h-62v-364z" />
    <glyph glyph-name="F" unicode="F" horiz-adv-x="400" 
d="M108 667v-313h62q119 0 150 102v-215q-30 102 -150 102h-62v-273q0 -25 4.5 -41t8.5 -19.5t13 -9.5h-134q14 9 20.5 23t6.5 47v537q0 26 -6 42.5t-9 19t-12 8.5h360l10 -112q-22 44 -75 73t-125 29h-62z" />
    <glyph glyph-name="G" unicode="G" horiz-adv-x="506" 
d="M332 384h144q-14 -10 -20 -24.5t-6 -46.5v-138q0 -74 -60.5 -126t-148.5 -52q-76 0 -132 47.5t-82.5 123.5t-26.5 170q0 145 63.5 243.5t177.5 98.5q129 0 195 -127l-58 -31q-20 69 -55 108.5t-82 39.5q-74 0 -117 -95t-43 -237t43 -236.5t117 -94.5q52 0 90 32.5
t38 108.5v165q0 13 -2 23.5t-4.5 16.5t-7.5 12.5t-7 8t-9 6.5z" />
    <glyph glyph-name="H" unicode="H" horiz-adv-x="457" 
d="M401 607v-537q0 -33 6 -47t20 -23h-134q14 9 20.5 23t6.5 47v304h-212v-304q0 -33 6 -47t20 -23h-134q14 9 20.5 23t6.5 47v537q0 33 -6.5 47t-20.5 23h134q-14 -9 -20 -23t-6 -47v-223h212v223q0 33 -6.5 47t-20.5 23h134q-14 -9 -20 -23t-6 -47z" />
    <glyph glyph-name="I" unicode="I" 
d="M107 607v-537q0 -33 6.5 -47t20.5 -23h-134q14 9 20 23t6 47v537q0 33 -6 47t-20 23h134q-14 -9 -20.5 -23t-6.5 -47z" />
    <glyph glyph-name="J" unicode="J" 
d="M27 607q0 31 -7 48q-7 15 -20 22h134q-14 -9 -20 -23t-6 -47v-506q0 -73 -34 -112.5t-90 -43.5q25 24 34 54t9 92v516z" />
    <glyph glyph-name="K" unicode="K" horiz-adv-x="468" 
d="M156 323h59q52 0 86.5 -26t51 -67.5t27 -84t24.5 -84.5t34 -61h-103q-24 18 -35 58.5t-15.5 82t-13 81.5t-34.5 65.5t-73 25.5h-14q-24 -37 -42 -66v-177q0 -33 6 -47t20 -23h-134q14 9 20.5 23t6.5 47v537q0 33 -6.5 47t-20.5 23h134q-14 -9 -20 -23t-6 -47v-341
q24 38 88 137.5t84 131.5q14 22 14 55q0 29 -10.5 53.5t-28.5 33.5h155q-38 -16 -121 -146q-84 -133 -133 -208z" />
    <glyph glyph-name="L" unicode="L" horiz-adv-x="403" 
d="M108 10h42q75 0 137 36t86 91l-13 -137h-360q9 6 13.5 10t9 19t4.5 41v537q0 33 -6.5 47t-20.5 23h134q-14 -9 -19 -22q-7 -14 -7 -48v-597z" />
    <glyph glyph-name="M" unicode="M" horiz-adv-x="572" 
d="M516 607v-537q0 -33 6 -47t20 -23h-134q9 6 13.5 10t9 19t4.5 41v574l-174 -644h-11q-205 614 -208 621v-551q0 -14 2 -25t4 -17.5t6.5 -12t6 -7t7.5 -4.5l6 -4h-74q13 8 18 13t9.5 19t4.5 38v537q0 14 -2 25t-4 17.5t-6.5 12t-6 7t-7.5 5.5l-6 3h111q24 -83 69 -214.5
t78 -221.5l34 -90l143 526h107q-9 -6 -13 -9.5t-8.5 -19.5t-4.5 -41z" />
    <glyph glyph-name="N" unicode="N" horiz-adv-x="433" 
d="M329 677h74q-13 -8 -18 -13t-9.5 -19t-4.5 -38v-607h-10l-319 620v-550q0 -35 8 -49q6 -9 23 -21h-73q13 8 18 13t9.5 19t4.5 38v537q0 23 -11 43t-21 27h104l257 -501v431q0 14 -2 25t-4 17.5t-6.5 12t-6 7t-7.5 5.5z" />
    <glyph glyph-name="O" unicode="O" horiz-adv-x="513" 
d="M241 680q114 0 178 -98t64 -244q0 -145 -64 -243t-178 -98q-76 0 -132 47.5t-82.5 123.5t-26.5 170q0 145 63.5 243.5t177.5 98.5zM241 7q74 0 117.5 94.5t43.5 236.5t-43.5 237t-117.5 95t-117 -95t-43 -237t43 -236.5t117 -94.5z" />
    <glyph glyph-name="P" unicode="P" horiz-adv-x="440" 
d="M0 677h218q83 0 137.5 -58.5t54.5 -143.5t-54.5 -143.5t-137.5 -58.5h-111v-203q0 -55 27 -70h-134q14 9 20 23t6 47v537q0 10 -1 19t-2 15t-3 11.5t-3.5 8.5t-4.5 6.5t-4.5 4t-4.5 2.5zM329 475q0 83 -42.5 137.5t-119.5 54.5h-60v-384h60q77 0 119.5 54.5t42.5 137.5z
" />
    <glyph glyph-name="Q" unicode="Q" horiz-adv-x="638" 
d="M502 -81q31 0 57.5 7.5t37.5 15.5l11 8q-1 -4 -3.5 -11t-12 -25t-21 -31.5t-32 -24.5t-44.5 -11q-31 0 -60 15.5t-51 37.5t-43.5 44t-47 37.5t-51.5 15.5h-2q-16 0 -36 3t-59 22.5t-68.5 52t-53 101.5t-23.5 162q0 145 63.5 243.5t177.5 98.5t177.5 -98t63.5 -244
q0 -129 -51.5 -223t-145.5 -114q27 -7 60.5 -28.5t71 -37.5t85.5 -16zM81 338q0 -142 43 -236.5t117 -94.5t117 94.5t43 236.5t-43 237t-117 95t-117 -95t-43 -237z" />
    <glyph glyph-name="R" unicode="R" horiz-adv-x="471" 
d="M264 278q46 -11 75 -48.5t39 -78t26 -86t37 -65.5h-102q-24 18 -35 54t-15.5 72t-13 70t-34.5 55.5t-73 21.5h-60v-203q0 -54 26 -70h-134q14 9 20.5 23t6.5 47v537q0 26 -6 42.5t-9 19t-12 8.5h219q83 0 137.5 -58.5t54.5 -143.5q0 -72 -41 -127t-106 -70zM168 667h-60
v-384h60q77 0 119.5 54.5t42.5 137.5t-42.5 137.5t-119.5 54.5z" />
    <glyph glyph-name="S" unicode="S" horiz-adv-x="473" 
d="M443 178q0 -26 -11.5 -55t-35 -58.5t-68 -48.5t-102.5 -19q-104 0 -159.5 56t-66.5 135l69 37q0 -40 7 -75.5t23.5 -69t49 -53.5t77.5 -20q51 0 93 38.5t42 101.5q0 50 -36.5 86t-88 58.5t-103 47.5t-88 69t-36.5 107q0 29 10.5 56t32 52.5t61.5 41t93 15.5
q62 0 113.5 -33.5t67.5 -83.5l-66 -35q0 63 -33.5 102.5t-81.5 39.5q-47 0 -80.5 -36t-33.5 -90q0 -46 36 -79.5t87.5 -56.5t103.5 -49t88 -71.5t36 -109.5z" />
    <glyph glyph-name="T" unicode="T" horiz-adv-x="477" 
d="M437 677l10 -153q-26 50 -73.5 93t-109.5 49v-596q0 -30 7 -49q7 -14 20 -21h-134q14 9 20 23t6 47v596q-61 -6 -109.5 -49t-73.5 -93l10 153h427z" />
    <glyph glyph-name="U" unicode="U" horiz-adv-x="433" 
d="M329 677h74q-13 -8 -18 -13t-9.5 -19t-4.5 -38v-435q0 -71 -50.5 -121.5t-121.5 -50.5q-72 0 -122.5 50.5t-50.5 121.5v435q0 33 -6 47t-20 23h134q-9 -6 -13.5 -10t-9 -19t-4.5 -41v-420q0 -71 39.5 -109t97.5 -38t87.5 44t29.5 103v420q0 14 -2 25t-4 17.5t-6.5 12
t-6 7t-7.5 5.5z" />
    <glyph glyph-name="V" unicode="V" horiz-adv-x="466" 
d="M0 677h144q-19 -15 -19 -45q0 -15 5 -32l128 -449q90 337 121 449q3 12 3 22q0 39 -40 55h94q-32 -23 -47 -77l-162 -600h-10q-129 450 -171 600q-17 59 -46 77z" />
    <glyph glyph-name="W" unicode="W" horiz-adv-x="737" 
d="M613 677h94q-33 -23 -46 -77l-163 -600h-10q-79 276 -134 467l-126 -467h-11q-129 450 -171 600q-17 59 -46 77h144q-18 -15 -18 -46q0 -18 4 -31l128 -449q47 173 91 336q-18 64 -32 113q-17 59 -46 77h144q-19 -15 -19 -45q0 -14 5 -32l128 -449q91 337 121 449
q3 12 3 22q0 40 -40 55z" />
    <glyph glyph-name="X" unicode="X" horiz-adv-x="458" 
d="M380 66q20 -49 48 -66h-143q16 10 16 31q0 13 -8 35l-104 258q-94 -193 -125 -258q-8 -16 -8 -30q0 -25 33 -36h-89q17 9 27.5 22t25.5 44l130 270l-110 273q-21 50 -48 68h143q-16 -11 -16 -33q0 -16 8 -35l81 -199q72 149 96 199q9 18 9 31q0 29 -34 37h89
q-27 -16 -53 -68l-102 -212q100 -248 134 -331z" />
    <glyph glyph-name="Y" unicode="Y" horiz-adv-x="454" 
d="M258 21q5 -12 19 -21h-134q14 9 20.5 23t6.5 47v271q-92 198 -123 264q-24 52 -47 72h134q-9 -7 -9 -27t11 -45l109 -234l112 234q5 9 5 23q0 35 -32 49h94q-32 -21 -56 -72l-117 -246v-289q0 -34 7 -49z" />
    <glyph glyph-name="Z" unicode="Z" horiz-adv-x="414" 
d="M91 10h93q72 0 124.5 28.5t75.5 73.5l-10 -112h-374l271 667h-51q-72 0 -124.5 -28.5t-75.5 -73.5l10 112h333z" />
    <glyph glyph-name="bracketleft" unicode="[" horiz-adv-x="197" 
d="M167 734h-86v-793h86v-27h-167v847h167v-27z" />
    <glyph glyph-name="backslash" unicode="\" horiz-adv-x="196" 
d="M27 677l139 -678h-27l-139 678h27z" />
    <glyph glyph-name="bracketright" unicode="]" horiz-adv-x="197" 
d="M0 -59h86v793h-86v27h167v-847h-167v27z" />
    <glyph glyph-name="asciicircum" unicode="^" horiz-adv-x="180" 
d="M150 588h-21l-54 73l-55 -73h-20l56 89h38z" />
    <glyph glyph-name="underscore" unicode="_" horiz-adv-x="321" 
d="M0 -28v27h291v-27h-291z" />
    <glyph glyph-name="grave" unicode="`" horiz-adv-x="116" 
d="M0 677h30l56 -89h-20z" />
    <glyph glyph-name="a" unicode="a" horiz-adv-x="382" 
d="M325 354v-283q0 -26 4.5 -41.5t9 -20t13.5 -9.5h-87q-9 0 -15 6t-6 14v31q-35 -53 -114 -53q-56 0 -93 35.5t-37 103.5q0 83 71.5 147t172.5 64v6q0 54 -20.5 88t-58.5 34q-33 0 -61 -25t-40 -78l-54 61q21 22 66 38t89 16q63 0 111.5 -35t48.5 -99zM244 76v257
q-59 0 -113 -55.5t-54 -145.5q0 -44 26.5 -70t68.5 -26q23 0 41 10t25 20z" />
    <glyph glyph-name="b" unicode="b" horiz-adv-x="416" 
d="M209 488q88 0 132.5 -69.5t44.5 -175.5q0 -46 -10 -87.5t-31 -78t-58.5 -58t-87.5 -21.5q-33 0 -83 18q-18 7 -32 7q-21 0 -44 -23h-13v567q0 25 -5 41t-9 19.5t-13 9.5q36 5 63 19q26 13 45 32v-254q8 20 35.5 37t65.5 17zM199 10q40 0 66 36.5t35.5 86.5t9.5 110
q0 98 -34.5 161.5t-86.5 63.5q-29 0 -52 -20.5t-29 -55.5v-269q0 -48 26 -80.5t65 -32.5z" />
    <glyph glyph-name="c" unicode="c" horiz-adv-x="422" 
d="M373 123h19q-23 -58 -70.5 -91.5t-114.5 -33.5q-99 0 -153 70.5t-54 174.5t54 174.5t153 70.5q112 0 168 -91l-52 -34q-16 53 -46 84t-70 31q-60 0 -95.5 -67t-35.5 -168q0 -107 48 -161t114 -54q43 0 79 24.5t56 70.5z" />
    <glyph glyph-name="d" unicode="d" horiz-adv-x="417" 
d="M387 10l-83 -8h-4q-21 0 -21 22q-37 -26 -91 -26q-97 0 -142.5 64t-45.5 161q0 67 20.5 126t64.5 99t103 40q31 0 56 -16.5t35 -37.5v133q0 25 -4.5 41t-8.5 19.5t-13 9.5q36 5 63 19q28 14 44 32v-607q0 -26 5 -41.5t8.5 -19t13.5 -10.5zM188 10q39 0 65 32.5t26 79.5
v280q-9 29 -32 47.5t-49 18.5q-51 0 -86 -73t-35 -172q0 -59 9.5 -104.5t35.5 -77t66 -31.5z" />
    <glyph glyph-name="e" unicode="e" horiz-adv-x="433" 
d="M403 258h-326v-15q0 -107 47.5 -161t113.5 -54q43 0 79.5 24.5t56.5 70.5h19q-23 -58 -70.5 -91.5t-114.5 -33.5q-100 0 -154 70.5t-54 174.5t54 174.5t154 70.5q92 0 140.5 -65t54.5 -165zM208 478q-57 0 -91.5 -59t-39.5 -151h250q-6 94 -35 152t-84 58z" />
    <glyph glyph-name="f" unicode="f" horiz-adv-x="285" 
d="M255 661l-48 -137q-4 72 -25.5 111t-45.5 39q-17 0 -28.5 -19t-11.5 -54q0 -33 11 -72q7 -27 19.5 -35t37.5 -8h43v-11h-85v-404q0 -35 7 -49q4 -11 19 -22h-134q14 9 20.5 23.5t6.5 47.5v404h-41v11h41q0 107 27 156t88 49q59 0 99 -30z" />
    <glyph glyph-name="g" unicode="g" horiz-adv-x="461" 
d="M107 106h103q96 0 156 -44.5t60 -109.5q0 -66 -58.5 -110t-157.5 -44q-75 0 -136 32t-74 81l51 102q0 -33 7.5 -65.5t24.5 -65t49.5 -52t77.5 -19.5q60 0 98 40t38 101t-37.5 102.5t-98.5 41.5h-121l32 53q-46 21 -71 64t-25 96q0 77 49.5 128t135.5 51q61 0 107 -27
q29 45 66 45q24 0 48 -18l-31 -42q-15 35 -39 35q-20 0 -36 -26q71 -49 71 -146q0 -77 -49.5 -127.5t-136.5 -50.5q-43 0 -79 14zM210 479q-50 0 -77 -48t-27 -122t27 -121.5t77 -47.5q51 0 78 47.5t27 121.5t-27 122t-78 48z" />
    <glyph glyph-name="h" unicode="h" horiz-adv-x="417" 
d="M387 0h-134q14 9 20.5 23.5t6.5 47.5v273q0 57 -19.5 84.5t-49.5 27.5q-29 0 -58.5 -23t-44.5 -58v-304q0 -35 7 -49q4 -11 19 -22h-134q14 9 20.5 23.5t6.5 47.5v496q0 26 -4.5 41t-9 19t-13.5 10q36 5 63 19q25 12 45 32v-274q20 35 55 54.5t73 19.5q52 0 88.5 -30.5
t36.5 -103.5v-283q0 -35 7 -49q4 -11 19 -22z" />
    <glyph glyph-name="i" unicode="i" 
d="M0 0q14 9 20.5 23.5t6.5 47.5v293q0 25 -5 41t-9 20t-13 10q33 2 63 18q27 15 44 32v-414q0 -33 8 -49q4 -11 19 -22h-134zM107 584q0 -21 -15 -36t-36 -15t-36.5 15t-15.5 36q0 22 15.5 37t36.5 15t36 -15t15 -37z" />
    <glyph glyph-name="j" unicode="j" 
d="M108 -46q0 -73 -34 -112.5t-90 -43.5q25 24 34 54t9 92v420q0 26 -4.5 41.5t-9 20t-13.5 9.5q33 2 63 18q23 12 45 32v-531zM108 584q0 -21 -15 -36t-37 -15q-21 0 -36 15t-15 36q0 22 15 37t36 15q22 0 37 -15t15 -37z" />
    <glyph glyph-name="k" unicode="k" horiz-adv-x="412" 
d="M149 263h31q53 0 85 -20t45.5 -52.5t21 -66.5t19 -69.5t31.5 -54.5h-102q-28 22 -37 66.5t-8.5 82.5t-21 69t-73.5 34q-14 -15 -33 -38v-143q0 -31 7 -49q6 -13 20 -22h-134q14 9 20 23.5t6 47.5v496q0 25 -4.5 41t-8.5 19.5t-13 9.5q35 5 63 19t44 32v-458
q103 117 168 193q13 16 13 30q0 22 -27 32h93q-28 -18 -66 -62q-15 -17 -65 -74.5t-74 -85.5z" />
    <glyph glyph-name="l" unicode="l" 
d="M0 0q14 9 20 23.5t6 47.5v496q0 25 -4.5 41t-8.5 19.5t-13 9.5q35 5 63 19t44 32v-617q0 -31 7 -49q6 -13 20 -22h-134z" />
    <glyph glyph-name="m" unicode="m" horiz-adv-x="669" 
d="M639 0h-134q14 9 20.5 23.5t6.5 47.5v273q0 57 -19.5 84.5t-49.5 27.5t-59.5 -23t-44.5 -59q1 -6 1 -20v-283q0 -31 7 -49q6 -13 20 -22h-134q14 9 20 23.5t6 47.5v273q0 57 -19.5 84.5t-49.5 27.5q-29 0 -58 -23t-44 -58v-304q0 -35 7 -49q4 -11 19 -22h-134
q14 9 20.5 23.5t6.5 47.5v293q0 25 -5 41t-9 20t-13 10q33 2 63 18q27 15 45 33v-72q20 35 55 54.5t73 19.5q96 0 118 -84q20 39 57 61.5t77 22.5q52 0 88.5 -30.5t36.5 -103.5v-283q0 -35 7 -49q4 -11 19 -22z" />
    <glyph glyph-name="n" unicode="n" horiz-adv-x="416" 
d="M386 0h-134q14 9 20.5 23.5t6.5 47.5v273q0 57 -19.5 84.5t-49.5 27.5q-29 0 -58.5 -23t-44.5 -58v-304q0 -35 7 -49q4 -11 19 -22h-133q14 9 20 23.5t6 47.5v293q0 25 -4.5 41t-8.5 20t-13 10q32 2 62 18q25 13 45 33v-72q20 35 55 54.5t73 19.5q52 0 88.5 -30.5
t36.5 -103.5v-283q0 -35 7 -49q4 -11 19 -22z" />
    <glyph glyph-name="o" unicode="o" horiz-adv-x="446" 
d="M208 488q99 0 153.5 -70.5t54.5 -174.5t-54.5 -174.5t-153.5 -70.5t-153.5 70.5t-54.5 174.5t54.5 174.5t153.5 70.5zM208 8q60 0 95.5 67t35.5 168t-35.5 168t-95.5 67t-95.5 -67t-35.5 -168t35.5 -168t95.5 -67z" />
    <glyph glyph-name="p" unicode="p" horiz-adv-x="417" 
d="M209 488q88 0 133 -69.5t45 -175.5q0 -63 -17 -115.5t-61 -91t-110 -38.5q-24 0 -46.5 6.5t-33.5 13.5l-11 6v-156q0 -34 7 -48q5 -13 19 -22h-134q14 9 20.5 23t6.5 47v496q0 26 -4.5 41.5t-9 20t-13.5 9.5q30 2 63 18q25 13 45 33v-52q9 21 36.5 37.5t64.5 16.5z
M199 10q40 0 66 36.5t35.5 86.5t9.5 110q0 98 -34.5 161.5t-86.5 63.5q-28 0 -51.5 -20.5t-29.5 -55.5v-269q0 -48 26 -80.5t65 -32.5z" />
    <glyph glyph-name="q" unicode="q" horiz-adv-x="416" 
d="M386 -202h-134q14 9 20.5 23t6.5 47v156q-38 -26 -92 -26q-96 0 -141.5 64t-45.5 161q0 106 50 185.5t137 79.5q45 0 89 -23q15 -9 31 -9q29 0 40 30h13v-618q0 -34 7 -48q5 -13 19 -22zM187 10q39 0 65.5 32.5t26.5 79.5v280q-10 29 -32.5 47.5t-49.5 18.5
q-51 0 -86 -73t-35 -172q0 -92 26.5 -152.5t84.5 -60.5z" />
    <glyph glyph-name="r" unicode="r" horiz-adv-x="342" 
d="M216 488q46 0 96 -41l-66 -74q-7 25 -26.5 42.5t-41.5 17.5q-25 0 -44.5 -28.5t-25.5 -90.5v-243q0 -35 7 -49q4 -11 19 -22h-134q14 9 20.5 23.5t6.5 47.5v293q0 25 -5 41t-9 20t-13 10q33 2 63 18q24 13 45 32v-107q12 48 42 79t66 31z" />
    <glyph glyph-name="s" unicode="s" horiz-adv-x="358" 
d="M328 128q0 -63 -43 -96.5t-123 -33.5q-139 0 -162 137l64 33q0 -32 3 -55t12 -49.5t30 -40.5t53 -14q35 0 61 24t26 62q0 36 -25 65t-60.5 49t-71.5 40t-61 50.5t-25 68.5q0 55 40.5 87.5t111.5 32.5q48 0 84.5 -24t45.5 -60l-58 -31q0 47 -19.5 75.5t-52.5 28.5
q-29 0 -50.5 -24.5t-21.5 -62.5q0 -33 25 -57t60.5 -40.5t71 -35t60.5 -51t25 -78.5z" />
    <glyph glyph-name="t" unicode="t" horiz-adv-x="238" 
d="M122 475v-389q0 -50 42 -50q10 0 21 3t17 5l6 3q-5 -5 -13 -13.5t-32.5 -22t-47.5 -13.5q-74 0 -74 98v379h-41v10q45 7 75.5 44.5t35.5 86.5h11v-131h86v-10h-86z" />
    <glyph glyph-name="u" unicode="u" horiz-adv-x="417" 
d="M387 13q-52 -6 -75 -8h-3q-30 0 -30 30v39q-21 -35 -56 -55.5t-72 -20.5q-52 0 -88.5 31.5t-36.5 104.5v283q0 25 -4.5 41t-8.5 20t-13 10h107v-344q0 -57 19.5 -84.5t49.5 -27.5q29 0 58.5 23t44.5 58v304q0 25 -4.5 41t-8.5 20t-13 10h107v-415q0 -29 6 -41t21 -19z
" />
    <glyph glyph-name="v" unicode="v" horiz-adv-x="407" 
d="M284 485h93q-29 -17 -49 -75l-130 -410h-11q-106 307 -141 409q-9 23 -13 33t-13.5 24t-19.5 19h134q-12 -9 -12 -30q0 -15 9 -46l97 -281q67 211 90 281q4 12 4 25q0 41 -38 51z" />
    <glyph glyph-name="w" unicode="w" horiz-adv-x="572" 
d="M449 485h93q-32 -20 -48 -75l-111 -410h-11q-54 159 -98 287l-77 -287h-11q-105 307 -141 409q-13 36 -19 47q-12 22 -26 29h134q-13 -9 -13 -30q0 -18 10 -46l90 -269q24 86 46 166q-27 78 -36 103q-22 65 -45 76h134q-12 -9 -12 -30q0 -15 9 -46l90 -269q54 196 76 269
q4 12 4 26q0 40 -38 50z" />
    <glyph glyph-name="x" unicode="x" horiz-adv-x="393" 
d="M318 70q27 -57 45 -70h-133q12 6 12 23q0 20 -13 47l-68 147q-67 -111 -90 -147q-9 -16 -9 -30q0 -29 31 -40h-93q27 17 60 70l96 158q-65 141 -87 188q-25 56 -45 70h134q-11 -9 -11 -27q0 -16 11 -43l51 -110q51 83 68 110q10 17 10 33q0 29 -32 37h93q-30 -20 -60 -70
l-74 -121q79 -169 104 -225z" />
    <glyph glyph-name="y" unicode="y" horiz-adv-x="407" 
d="M284 486h93q-30 -18 -48 -75l-131 -410q-14 -43 -28 -73.5t-36 -62.5t-53 -49t-69 -17l32 100q8 -2 21 -2q88 0 122 104q-106 307 -141 409q-22 65 -46 76h134q-12 -9 -12 -30q0 -15 9 -46l97 -281q68 211 90 281q4 12 4 26q0 40 -38 50z" />
    <glyph glyph-name="z" unicode="z" horiz-adv-x="364" 
d="M95 10h81q54 0 95.5 30.5t62.5 77.5v-118h-334l234 475h-66q-102 0 -150 -89l12 99h299z" />
    <glyph glyph-name="braceleft" unicode="{" horiz-adv-x="315" 
d="M162 478q-7 -56 -30.5 -86.5t-69.5 -53.5q46 -23 69.5 -53t30.5 -86q34 -258 123 -258v-27q-87 0 -140 88t-68 226q-5 45 -23.5 69t-53.5 41q35 17 53.5 41t23.5 69q15 138 68 226t140 88v-28q-27 0 -48.5 -24.5t-36 -65.5t-23.5 -81t-15 -85z" />
    <glyph glyph-name="bar" unicode="|" horiz-adv-x="57" 
d="M0 677h27v-678h-27v678z" />
    <glyph glyph-name="braceright" unicode="}" horiz-adv-x="315" 
d="M123 198q7 56 30.5 86.5t69.5 53.5q-45 22 -69 52.5t-31 86.5q-34 257 -123 257v28q87 0 140 -88t68 -226q5 -45 23.5 -69t53.5 -41q-35 -17 -53.5 -41.5t-23.5 -68.5q-15 -138 -68 -226t-140 -88v27q88 0 123 257z" />
    <glyph glyph-name="asciitilde" unicode="~" horiz-adv-x="188" 
d="M0 338q16 30 46 30q10 0 21 -6q8 -4 24 -20.5t28 -17.5h2q13 0 37 14q-14 -30 -45 -30q-12 0 -22 7q-3 2 -18 17q-16 20 -35 20q-15 0 -38 -14z" />
    <glyph glyph-name="exclamdown" unicode="&#xa1;" horiz-adv-x="138" 
d="M0 393q0 23 16 38.5t38 15.5t38 -15.5t16 -38.5t-16 -38.5t-38 -15.5t-38 15.5t-16 38.5zM0 -231l45 497h17l46 -497h-108z" />
    <glyph glyph-name="cent" unicode="&#xa2;" horiz-adv-x="423" 
d="M373 124h20q-52 -125 -185 -125q-57 0 -98 23l-26 -56l-24 12l27 59q-87 66 -87 207q0 104 54 174.5t154 70.5q44 0 79 -15l21 48l25 -11l-22 -49q39 -22 64 -64l-52 -34q-10 33 -28 63l-162 -353q44 -45 105 -45q43 0 79 24.5t56 70.5zM76 244q0 -91 38 -147l162 353
q-31 29 -68 29q-61 0 -96.5 -67t-35.5 -168z" />
    <glyph glyph-name="sterling" unicode="&#xa3;" horiz-adv-x="481" 
d="M186 9h42q75 0 137 36.5t86 91.5l-13 -138h-360q9 6 13.5 10t9 19t4.5 41v257l-105 1v27l105 -1v141q0 86 47 135.5t127 49.5q61 0 102.5 -32.5t57.5 -84.5l-66 -35q0 66 -24 104t-70 38q-44 0 -68.5 -47t-24.5 -128v-142l174 -1v-27l-174 1v-316z" />
    <glyph glyph-name="currency" unicode="&#xa4;" horiz-adv-x="211" 
d="M181 169q0 -30 -17 -53l12 -12l-20 -19l-12 12q-22 -18 -53 -18t-54 18l-12 -12l-19 19l12 12q-18 25 -18 53q0 29 18 54l-12 12l19 19l12 -12q25 18 54 18q28 0 53 -18l12 12l20 -19l-12 -12q17 -23 17 -54zM123 118q11 8 19 19q9 15 9 32q0 19 -9 32q-6 10 -19 19
q-15 9 -32 9q-19 0 -32 -9q-12 -7 -19 -19q-9 -13 -9 -32q0 -17 9 -31q8 -13 19 -20q16 -9 32 -9q14 0 32 9z" />
    <glyph glyph-name="yen" unicode="&#xa5;" horiz-adv-x="454" 
d="M251 359v-54l141 -1v-27l-141 1v-110l141 -1v-27l-141 1v-72q0 -34 7 -48q7 -15 20 -22h-134q14 9 20 23t6 47v73l-138 1v27l138 -1v109l-138 1v27l138 -1v36q-92 197 -122 263q-28 57 -48 72h134q-9 -8 -9 -25q0 -21 12 -47l109 -233l111 233q5 10 5 24q0 34 -31 48h93
q-32 -21 -56 -72z" />
    <glyph glyph-name="brokenbar" unicode="&#xa6;" horiz-adv-x="57" 
d="M27 677v-187h-27v187h27zM0 186h27v-187h-27v187z" />
    <glyph glyph-name="section" unicode="&#xa7;" horiz-adv-x="341" 
d="M258 228q53 -41 53 -105q0 -43 -37.5 -85t-114.5 -42q-74 0 -112.5 39.5t-46.5 94.5l49 26q0 -63 25 -108t85 -45q35 0 64.5 27t29.5 71q0 59 -82 99l-7 3.5l-7 3.5q-61 28 -79 39q-61 37 -70 92q-2 14 -2 22q0 66 59 98q-59 40 -59 105q0 45 33.5 80.5t105.5 35.5
q44 0 79.5 -23.5t46.5 -58.5l-46 -24q0 44 -23.5 71.5t-56.5 27.5t-56.5 -25t-23.5 -63q0 -33 25.5 -56.5t61.5 -39.5t72 -34t61.5 -50t25.5 -77q0 -24 -13 -52t-40 -47zM65 380q0 -26 17.5 -47t38 -32t57.5 -28t55 -28q20 25 20 60q0 23 -9.5 41t-28.5 31.5t-37 22.5
t-46 21.5t-44 21.5q-23 -25 -23 -63z" />
    <glyph glyph-name="dieresis" unicode="&#xa8;" horiz-adv-x="220" 
d="M145 588q-18 0 -31 13t-13 31q0 19 13 32t31 13q19 0 32 -13t13 -32q0 -18 -13 -31t-32 -13zM44 588q-18 0 -31 13t-13 31q0 19 13 32t31 13q19 0 32 -13t13 -32q0 -18 -13 -31t-32 -13z" />
    <glyph glyph-name="copyright" unicode="&#xa9;" horiz-adv-x="710" 
d="M340 -2q-141 0 -240.5 99.5t-99.5 240.5q0 140 99.5 240t240.5 100q140 0 240 -100t100 -240q0 -141 -100 -240.5t-240 -99.5zM340 648q-128 0 -219 -91t-91 -219t91 -219t219 -91t218.5 91t90.5 219t-90.5 219t-218.5 91zM473 222h9q-40 -100 -132 -100q-73 0 -113 62
t-40 154q0 93 40 155t113 62q82 0 123 -81l-36 -19q-29 94 -87 94q-47 0 -74.5 -60.5t-27.5 -150.5q0 -84 35.5 -136.5t85.5 -52.5q74 0 104 73z" />
    <glyph glyph-name="ordfeminine" unicode="&#xaa;" horiz-adv-x="170" 
d="M129 625v-112q0 -19 11 -28h-35q-8 0 -8 8v12q-15 -21 -45 -21q-22 0 -37 14.5t-15 40.5q0 33 28.5 58.5t68.5 25.5v2q0 49 -32 49q-13 0 -24 -10t-15 -31l-22 24q23 21 62 21q25 0 44 -13.5t19 -39.5zM97 515v102q-23 0 -44.5 -22t-21.5 -58q0 -17 10.5 -27.5
t26.5 -10.5q9 0 16.5 4t9.5 8z" />
    <glyph glyph-name="guillemotleft" unicode="&#xab;" horiz-adv-x="238" 
d="M44 169l60 -65l-19 -19l-85 84l85 85l19 -19zM148 169l60 -65l-19 -19l-85 84l85 85l19 -19z" />
    <glyph glyph-name="logicalnot" unicode="&#xac;" horiz-adv-x="297" 
d="M267 183v-76h-27v49h-240v27h267z" />
    <glyph glyph-name="registered" unicode="&#xae;" horiz-adv-x="710" 
d="M340 -2q-141 0 -240.5 99.5t-99.5 240.5q0 140 99.5 240t240.5 100q140 0 240 -100t100 -240q0 -141 -100 -240.5t-240 -99.5zM340 648q-128 0 -219 -91t-91 -219t91 -219t219 -91t218.5 91t90.5 219t-90.5 219t-218.5 91zM386 300q38 -9 56 -43t29.5 -76t27.5 -58h-65
q-18 14 -25.5 45.5t-9.5 58.5t-19.5 48.5t-53.5 21.5h-38v-129q0 -32 16 -45h-85q17 12 17 45v341q0 35 -17 44h139q53 0 87.5 -37t34.5 -91q0 -46 -26 -80.5t-68 -44.5zM326 547h-38v-244h38q48 0 75.5 34.5t27.5 87.5t-27.5 87.5t-75.5 34.5z" />
    <glyph glyph-name="macron" unicode="&#xaf;" horiz-adv-x="122" 
d="M92 622h-92v20h92v-20z" />
    <glyph glyph-name="degree" unicode="&#xb0;" horiz-adv-x="119" 
d="M44 588q-18 0 -31 13t-13 31q0 19 13 32t31 13q19 0 32 -13t13 -32q0 -18 -13 -31t-32 -13zM44 656q-10 0 -17 -7t-7 -17t7 -17t17 -7t17 7t7 17t-7 17t-17 7z" />
    <glyph glyph-name="plusminus" unicode="&#xb1;" horiz-adv-x="243" 
d="M213 183v-27h-93v-93h-27v93h-93v27h93v93h27v-93h93zM0 -28v27h213v-27h-213z" />
    <glyph glyph-name="twosuperior" unicode="&#xb2;" horiz-adv-x="139" 
d="M109 628q0 -25 -16.5 -44t-41.5 -38.5t-36 -38.5h71q16 0 22 9l-1 -32h-107q4 19 43.5 67.5t39.5 76.5q0 48 -27 48q-28 0 -30 -42l-25 13q16 32 55 32q24 0 38.5 -14t14.5 -37z" />
    <glyph glyph-name="threesuperior" unicode="&#xb3;" horiz-adv-x="144" 
d="M104 678l-47 -57q26 -1 41.5 -20.5t15.5 -48.5t-17.5 -49t-44.5 -20q-17 0 -32.5 9.5t-19.5 23.5l17 11q2 -16 11.5 -28t23.5 -12q15 0 25.5 19t10.5 46q0 29 -9 48.5t-24 19.5v2l27 33h-54q-15 0 -21 -8v31h97z" />
    <glyph glyph-name="acute" unicode="&#xb4;" horiz-adv-x="116" 
d="M86 677l-66 -89h-20l56 89h30z" />
    <glyph glyph-name="mu" unicode="&#xb5;" horiz-adv-x="417" 
d="M108 119q5 -45 20 -63q20 -24 47 -24h17q17 2 44 23q27 22 43 58v304q0 27 -3 41q-4 14 -10 19q-4 4 -12 10q-1 0 -1 1h107v-415q0 -31 7 -42q6 -12 20 -18q-61 -7 -75 -8h-3q-12 0 -21 6q-9 7 -9 24v39q-23 -37 -57 -56q-35 -20 -71 -20q-23 0 -43 7v-134q0 -36 7 -49
q7 -15 19 -22h-134q12 7 20 21q7 13 7 50v546q0 29 -4 41q-4 13 -9 19q-4 4 -12 10q-1 0 -2 1h107v-315z" />
    <glyph glyph-name="paragraph" unicode="&#xb6;" horiz-adv-x="354" 
d="M324 677v-27h-59v-651h-27v678h86zM134 677h88v-678h-27v409h-61q-56 0 -95 39t-39 95t39 95.5t95 39.5z" />
    <glyph glyph-name="periodcentered" unicode="&#xb7;" horiz-adv-x="138" 
d="M108 235q0 -22 -16 -38t-38 -16t-38 15.5t-16 38.5t16 38.5t38 15.5t38 -16t16 -38z" />
    <glyph glyph-name="periodcentered" unicode="&#x2219;" horiz-adv-x="138" 
d="M108 235q0 -22 -16 -38t-38 -16t-38 15.5t-16 38.5t16 38.5t38 15.5t38 -16t16 -38z" />
    <glyph glyph-name="cedilla" unicode="&#xb8;" horiz-adv-x="106" 
d="M57 14l-10 -17q29 -12 29 -38q0 -17 -14.5 -29.5t-35.5 -12.5q-15 0 -26 7l8 18q8 -5 18 -5q12 0 21 6.5t9 15.5q0 8 -9 14.5t-21 6.5h-2l13 34h20z" />
    <glyph glyph-name="onesuperior" unicode="&#xb9;" horiz-adv-x="68" 
d="M31 678v-174q0 -16 7 -20h-38q7 4 7 20v140q0 16 -7 20z" />
    <glyph glyph-name="ordmasculine" unicode="&#xba;" horiz-adv-x="152" 
d="M61 679q30 0 45.5 -28.5t15.5 -69.5t-15.5 -69.5t-45.5 -28.5t-45.5 28.5t-15.5 69.5t15.5 69.5t45.5 28.5zM61 486q19 0 28.5 27t9.5 68q0 95 -38 95t-38 -95q0 -41 9.5 -68t28.5 -27z" />
    <glyph glyph-name="guillemotright" unicode="&#xbb;" horiz-adv-x="238" 
d="M164 169l-60 66l19 19l85 -85l-85 -84l-19 19zM60 169l-60 66l19 19l85 -85l-85 -84l-19 19z" />
    <glyph glyph-name="onequarter" unicode="&#xbc;" horiz-adv-x="495" 
d="M321 676h33l-283 -677h-32zM62 678v-350q0 -30 15 -40h-77q15 9 15 40v280q0 31 -15 40zM459 78h-33v-39q0 -28 15 -40h-77q15 9 15 40v39h-155v31q104 119 104 279h56q0 -31 -10 -63.5t-20.5 -55t-36.5 -57.5t-39 -50t-46 -53h147l1 148l46 23v-171h39z" />
    <glyph glyph-name="onehalf" unicode="&#xbd;" horiz-adv-x="527" 
d="M322 676h32l-282 -677h-33zM62 678v-350q0 -30 15 -40h-77q15 9 15 40v280q0 31 -15 40zM308 45h144q31 0 42 17v-63h-215q6 29 34 67.5t57 70.5t52.5 73t23.5 77q0 44 -14 70t-42 26q-27 0 -42 -24.5t-18 -58.5l-49 25q14 28 43.5 46.5t65.5 18.5q49 0 78 -28t29 -75
q0 -39 -21.5 -72.5t-49.5 -54.5t-63.5 -52.5t-54.5 -62.5z" />
    <glyph glyph-name="threequarters" unicode="&#xbe;" horiz-adv-x="598" 
d="M208 678l-93 -115q51 -2 82 -41.5t31 -96.5q0 -59 -35 -99t-89 -40q-34 0 -64.5 19t-39.5 47l34 22q2 -33 22 -57t48 -24q30 0 51.5 38.5t21.5 93.5q0 56 -19 95.5t-48 39.5v4l53 67h-106q-32 0 -43 -16v63h194zM424 676h33l-283 -677h-33zM562 78h-34v-39q0 -29 16 -40
h-77q15 10 15 40v39h-155v31q104 121 104 279h55q0 -38 -11 -74t-39 -77t-44 -60.5t-57 -67.5h147v148l46 23v-171h40z" />
    <glyph glyph-name="questiondown" unicode="&#xbf;" horiz-adv-x="406" 
d="M0 -53q0 48 18 85t45 62t54.5 48t49.5 54t27 69h20q-3 -33 -17 -62.5t-31.5 -53t-35 -50t-29.5 -65.5t-12 -87q0 -76 24.5 -121.5t72.5 -45.5q47 0 74 42.5t31 103.5l85 -44q-25 -50 -76 -82t-114 -32q-85 0 -135.5 48.5t-50.5 130.5zM146 392q0 22 16 38t38 16t38 -16
t16 -38t-16 -38t-38 -16t-38 16t-16 38z" />
    <glyph glyph-name="Agrave" unicode="&#xc0;" horiz-adv-x="466" 
d="M390 77q17 -59 46 -77h-144q19 15 19 45q0 14 -5 32q-3 12 -16.5 58.5l-22.5 77.5h-173q-6 -20 -14 -50.5t-13.5 -51t-9.5 -34.5q-3 -12 -3 -22q0 -39 40 -55h-94q32 21 47 77l162 600h10q129 -450 171 -600zM97 223h168l-87 303zM157 907h30l56 -89h-20z" />
    <glyph glyph-name="Aacute" unicode="&#xc1;" horiz-adv-x="466" 
d="M390 77q17 -59 46 -77h-144q19 15 19 45q0 14 -5 32q-3 12 -16.5 58.5l-22.5 77.5h-173q-6 -20 -14 -50.5t-13.5 -51t-9.5 -34.5q-3 -12 -3 -22q0 -39 40 -55h-94q32 21 47 77l162 600h10q129 -450 171 -600zM97 223h168l-87 303zM271 907l-66 -89h-20l56 89h30z" />
    <glyph glyph-name="Acircumflex" unicode="&#xc2;" horiz-adv-x="466" 
d="M390 77q17 -59 46 -77h-144q19 15 19 45q0 14 -5 32q-3 12 -16.5 58.5l-22.5 77.5h-173q-6 -20 -14 -50.5t-13.5 -51t-9.5 -34.5q-3 -12 -3 -22q0 -39 40 -55h-94q32 21 47 77l162 600h10q129 -450 171 -600zM97 223h168l-87 303zM289 818h-21l-54 73l-55 -73h-20l56 89
h38z" />
    <glyph glyph-name="Atilde" unicode="&#xc3;" horiz-adv-x="466" 
d="M390 77q17 -59 46 -77h-144q19 15 19 45q0 14 -5 32q-3 12 -16.5 58.5l-22.5 77.5h-173q-6 -20 -14 -50.5t-13.5 -51t-9.5 -34.5q-3 -12 -3 -22q0 -39 40 -55h-94q32 21 47 77l162 600h10q129 -450 171 -600zM97 223h168l-87 303zM248 832q-12 0 -22 7q-3 2 -18 17
q-16 20 -35 20q-15 0 -38 -14q16 30 46 30q11 0 21 -6q8 -4 24 -20.5t28 -17.5h2q13 0 37 14q-14 -30 -45 -30z" />
    <glyph glyph-name="Adieresis" unicode="&#xc4;" horiz-adv-x="466" 
d="M390 77q17 -59 46 -77h-144q19 15 19 45q0 14 -5 32q-3 12 -16.5 58.5l-22.5 77.5h-173q-6 -20 -14 -50.5t-13.5 -51t-9.5 -34.5q-3 -12 -3 -22q0 -39 40 -55h-94q32 21 47 77l162 600h10q129 -450 171 -600zM97 223h168l-87 303zM264 818q-18 0 -31 13t-13 31
q0 19 13 32t31 13q19 0 32 -13t13 -32q0 -18 -13 -31t-32 -13zM163 818q-18 0 -31 13t-13 31q0 19 13 32t31 13q19 0 32 -13t13 -32q0 -18 -13 -31t-32 -13z" />
    <glyph glyph-name="Aring" unicode="&#xc5;" horiz-adv-x="466" 
d="M390 77q17 -59 46 -77h-144q19 15 19 45q0 14 -5 32q-3 12 -16.5 58.5l-22.5 77.5h-173q-6 -20 -14 -50.5t-13.5 -51t-9.5 -34.5q-3 -12 -3 -22q0 -39 40 -55h-94q32 21 47 77l162 600h10q129 -450 171 -600zM97 223h168l-87 303zM214 818q-18 0 -31 13t-13 31
q0 19 13 32t31 13q19 0 32 -13t13 -32q0 -18 -13 -31t-32 -13zM214 886q-10 0 -17 -7t-7 -17t7 -17t17 -7t17 7t7 17t-7 17t-17 7z" />
    <glyph glyph-name="AE" unicode="&#xc6;" horiz-adv-x="663" 
d="M178 525q0 -2 -2 -8t-4.5 -16.5t-5.5 -21.5q-7 -23 -31 -117q-7 -26 -20 -73.5t-18 -65.5h168q-14 47 -40 139q-19 69 -33 117h-1v3h-1v3l-1 1v1q0 1 -1 2v2q0 1 -1 2v1q-2 7 -4 14.5t-3.5 11.5t-1.5 5zM347 231q10 -34 24 -85t19 -69q12 -44 33 -67q69 3 124 36
q60 35 86 91l-13 -137h-380q11 7 19 21q7 13 7 49v143h-172q-3 -9 -37 -136q-3 -12 -3 -22q0 -38 40 -55h-94q35 26 47 77q18 72 42 157q28 105 54 200q19 72 47 172v4h1v3h1v4q1 0 1 1v3h1v3q1 1 1 2v1q0 1 1 1v3l1 1v2q0 1 1 1v2q3 9 5.5 18.5t4 14t1.5 6.5v1h10v-1
q1 -3 21 -70q8 -30 26 -92v93q0 28 -4 40q-5 15 -10 20q-7 7 -10 9q-1 1 -2 1h360l10 -112q-22 43 -73 73q-53 29 -127 29h-63v-283h63q62 0 99 27t50 75v-215q-13 47 -50 76q-37 27 -99 27h-63v-143z" />
    <glyph glyph-name="Ccedilla" unicode="&#xc7;" horiz-adv-x="480" 
d="M233 -3q-74 3 -124 47q-54 46 -81 125q-28 77 -28 169q0 93 28 170q27 79 81 125q53 47 133 47q67 0 116 -34q48 -34 78 -93l-58 -31q-20 68 -54 108t-82 40q-51 0 -87 -45q-35 -44 -55 -120q-19 -73 -19 -167q0 -90 27 -158q25 -66 70 -103q43 -37 94 -37q61 0 101 31
q39 29 62 84h15q-29 -72 -80 -115q-52 -42 -121 -43q29 -14 29 -38q0 -17 -14 -29q-14 -13 -36 -13q-15 0 -26 7l8 18q8 -5 18 -5q13 0 21 7q9 6 9 15q0 7 -9 15q-9 6 -21 6h-2z" />
    <glyph glyph-name="Egrave" unicode="&#xc8;" horiz-adv-x="423" 
d="M108 10h63q74 0 136 36t86 91l-12 -137h-381q14 9 20.5 23t6.5 47v537q0 26 -6 42.5t-9 19t-12 8.5h360l11 -112q-23 45 -75.5 73.5t-124.5 28.5h-63v-283h62q119 0 150 102v-215q-31 103 -150 103h-62v-364zM140 907h30l56 -89h-20z" />
    <glyph glyph-name="Eacute" unicode="&#xc9;" horiz-adv-x="423" 
d="M108 10h63q74 0 136 36t86 91l-12 -137h-381q14 9 20.5 23t6.5 47v537q0 26 -6 42.5t-9 19t-12 8.5h360l11 -112q-23 45 -75.5 73.5t-124.5 28.5h-63v-283h62q119 0 150 102v-215q-31 103 -150 103h-62v-364zM254 907l-66 -89h-20l56 89h30z" />
    <glyph glyph-name="Ecircumflex" unicode="&#xca;" horiz-adv-x="423" 
d="M108 10h63q74 0 136 36t86 91l-12 -137h-381q14 9 20.5 23t6.5 47v537q0 26 -6 42.5t-9 19t-12 8.5h360l11 -112q-23 45 -75.5 73.5t-124.5 28.5h-63v-283h62q119 0 150 102v-215q-31 103 -150 103h-62v-364zM272 818h-21l-54 73l-55 -73h-20l56 89h38z" />
    <glyph glyph-name="Edieresis" unicode="&#xcb;" horiz-adv-x="423" 
d="M108 10h63q74 0 136 36t86 91l-12 -137h-381q14 9 20.5 23t6.5 47v537q0 26 -6 42.5t-9 19t-12 8.5h360l11 -112q-23 45 -75.5 73.5t-124.5 28.5h-63v-283h62q119 0 150 102v-215q-31 103 -150 103h-62v-364zM247 818q-18 0 -31 13t-13 31q0 19 13 32t31 13q19 0 32 -13
t13 -32q0 -18 -13 -31t-32 -13zM146 818q-18 0 -31 13t-13 31q0 19 13 32t31 13q19 0 32 -13t13 -32q0 -18 -13 -31t-32 -13z" />
    <glyph glyph-name="Igrave" unicode="&#xcc;" 
d="M107 607v-537q0 -33 6.5 -47t20.5 -23h-134q14 9 20 23t6 47v537q0 33 -6 47t-20 23h134q-14 -9 -20.5 -23t-6.5 -47zM10 907h30l56 -89h-20z" />
    <glyph glyph-name="Iacute" unicode="&#xcd;" 
d="M107 607v-537q0 -33 6.5 -47t20.5 -23h-134q14 9 20 23t6 47v537q0 33 -6 47t-20 23h134q-14 -9 -20.5 -23t-6.5 -47zM124 907l-66 -89h-20l56 89h30z" />
    <glyph glyph-name="Icircumflex" unicode="&#xce;" 
d="M107 607v-537q0 -33 6.5 -47t20.5 -23h-134q14 9 20 23t6 47v537q0 33 -6 47t-20 23h134q-14 -9 -20.5 -23t-6.5 -47zM142 818h-21l-54 73l-55 -73h-20l56 89h38z" />
    <glyph glyph-name="Idieresis" unicode="&#xcf;" 
d="M107 607v-537q0 -33 6.5 -47t20.5 -23h-134q14 9 20 23t6 47v537q0 33 -6 47t-20 23h134q-14 -9 -20.5 -23t-6.5 -47zM117 818q-18 0 -31 13t-13 31q0 19 13 32t31 13q19 0 32 -13t13 -32q0 -18 -13 -31t-32 -13zM16 818q-18 0 -31 13t-13 31q0 19 13 32t31 13
q19 0 32 -13t13 -32q0 -18 -13 -31t-32 -13z" />
    <glyph glyph-name="Eth" unicode="&#xd0;" horiz-adv-x="481" 
d="M107 325v-315h73q76 3 133 96t57 232q0 140 -57 233t-133 96h-73v-315h91v-27h-91zM26 352v255q0 28 -4 40q-5 15 -10 20q-7 7 -10 9l-2 1h210q118 -5 180 -102q61 -98 61 -237q0 -138 -61 -235q-61 -98 -180 -103h-210q12 7 20 21q6 13 6 49v255h-119v27h119z" />
    <glyph glyph-name="Ntilde" unicode="&#xd1;" horiz-adv-x="433" 
d="M329 677h74q-13 -8 -18 -13t-9.5 -19t-4.5 -38v-607h-10l-319 620v-550q0 -35 8 -49q6 -9 23 -21h-73q13 8 18 13t9.5 19t4.5 38v537q0 23 -11 43t-21 27h104l257 -501v431q0 14 -2 25t-4 17.5t-6.5 12t-6 7t-7.5 5.5zM236 832q-12 0 -22 7q-3 2 -18 17q-16 20 -35 20
q-15 0 -38 -14q16 30 46 30q11 0 21 -6q8 -4 24 -20.5t28 -17.5h2q13 0 37 14q-14 -30 -45 -30z" />
    <glyph glyph-name="Ograve" unicode="&#xd2;" horiz-adv-x="513" 
d="M241 680q114 0 178 -98t64 -244q0 -145 -64 -243t-178 -98q-76 0 -132 47.5t-82.5 123.5t-26.5 170q0 145 63.5 243.5t177.5 98.5zM241 7q74 0 117.5 94.5t43.5 236.5t-43.5 237t-117.5 95t-117 -95t-43 -237t43 -236.5t117 -94.5zM184 907h30l56 -89h-20z" />
    <glyph glyph-name="Oacute" unicode="&#xd3;" horiz-adv-x="513" 
d="M241 680q114 0 178 -98t64 -244q0 -145 -64 -243t-178 -98q-76 0 -132 47.5t-82.5 123.5t-26.5 170q0 145 63.5 243.5t177.5 98.5zM241 7q74 0 117.5 94.5t43.5 236.5t-43.5 237t-117.5 95t-117 -95t-43 -237t43 -236.5t117 -94.5zM298 907l-66 -89h-20l56 89h30z" />
    <glyph glyph-name="Ocircumflex" unicode="&#xd4;" horiz-adv-x="513" 
d="M241 680q114 0 178 -98t64 -244q0 -145 -64 -243t-178 -98q-76 0 -132 47.5t-82.5 123.5t-26.5 170q0 145 63.5 243.5t177.5 98.5zM241 7q74 0 117.5 94.5t43.5 236.5t-43.5 237t-117.5 95t-117 -95t-43 -237t43 -236.5t117 -94.5zM316 818h-21l-54 73l-55 -73h-20l56 89
h38z" />
    <glyph glyph-name="Otilde" unicode="&#xd5;" horiz-adv-x="513" 
d="M241 680q114 0 178 -98t64 -244q0 -145 -64 -243t-178 -98q-76 0 -132 47.5t-82.5 123.5t-26.5 170q0 145 63.5 243.5t177.5 98.5zM241 7q74 0 117.5 94.5t43.5 236.5t-43.5 237t-117.5 95t-117 -95t-43 -237t43 -236.5t117 -94.5zM275 832q-12 0 -22 7q-3 2 -18 17
q-16 20 -35 20q-15 0 -38 -14q16 30 46 30q10 0 21 -6q8 -4 24 -20.5t28 -17.5h2q13 0 37 14q-14 -30 -45 -30z" />
    <glyph glyph-name="Odieresis" unicode="&#xd6;" horiz-adv-x="513" 
d="M241 680q114 0 178 -98t64 -244q0 -145 -64 -243t-178 -98q-76 0 -132 47.5t-82.5 123.5t-26.5 170q0 145 63.5 243.5t177.5 98.5zM241 7q74 0 117.5 94.5t43.5 236.5t-43.5 237t-117.5 95t-117 -95t-43 -237t43 -236.5t117 -94.5zM291 818q-18 0 -31 13t-13 31
q0 19 13 32t31 13q19 0 32 -13t13 -32q0 -18 -13 -31t-32 -13zM190 818q-18 0 -31 13t-13 31q0 19 13 32t31 13q19 0 32 -13t13 -32q0 -18 -13 -31t-32 -13z" />
    <glyph glyph-name="multiply" unicode="&#xd7;" horiz-adv-x="200" 
d="M170 235l-66 -66l66 -65l-19 -20l-66 66l-66 -66l-19 20l66 65l-66 66l19 19l66 -66l66 66z" />
    <glyph glyph-name="Oslash" unicode="&#xd8;" horiz-adv-x="513" 
d="M483 338q0 -91 -25 -165.5t-78 -123.5t-125 -53v-53h-27v53q-108 6 -168 103.5t-60 238.5q0 140 60 237.5t168 103.5v53h27v-53q108 -6 168 -103.5t60 -237.5zM81 338q0 -135 39.5 -228t107.5 -103v661q-68 -9 -107.5 -102.5t-39.5 -227.5zM255 668v-661q68 10 107.5 103
t39.5 228q0 134 -39.5 227.5t-107.5 102.5z" />
    <glyph glyph-name="Ugrave" unicode="&#xd9;" horiz-adv-x="433" 
d="M329 677h74q-13 -8 -18 -13t-9.5 -19t-4.5 -38v-435q0 -71 -50.5 -121.5t-121.5 -50.5q-72 0 -122.5 50.5t-50.5 121.5v435q0 33 -6 47t-20 23h134q-9 -6 -13.5 -10t-9 -19t-4.5 -41v-420q0 -71 39.5 -109t97.5 -38t87.5 44t29.5 103v420q0 14 -2 25t-4 17.5t-6.5 12
t-6 7t-7.5 5.5zM144 907h30l56 -89h-20z" />
    <glyph glyph-name="Uacute" unicode="&#xda;" horiz-adv-x="433" 
d="M329 677h74q-13 -8 -18 -13t-9.5 -19t-4.5 -38v-435q0 -71 -50.5 -121.5t-121.5 -50.5q-72 0 -122.5 50.5t-50.5 121.5v435q0 33 -6 47t-20 23h134q-9 -6 -13.5 -10t-9 -19t-4.5 -41v-420q0 -71 39.5 -109t97.5 -38t87.5 44t29.5 103v420q0 14 -2 25t-4 17.5t-6.5 12
t-6 7t-7.5 5.5zM258 907l-66 -89h-20l56 89h30z" />
    <glyph glyph-name="Ucircumflex" unicode="&#xdb;" horiz-adv-x="433" 
d="M329 677h74q-13 -8 -18 -13t-9.5 -19t-4.5 -38v-435q0 -71 -50.5 -121.5t-121.5 -50.5q-72 0 -122.5 50.5t-50.5 121.5v435q0 33 -6 47t-20 23h134q-9 -6 -13.5 -10t-9 -19t-4.5 -41v-420q0 -71 39.5 -109t97.5 -38t87.5 44t29.5 103v420q0 14 -2 25t-4 17.5t-6.5 12
t-6 7t-7.5 5.5zM276 818h-21l-54 73l-55 -73h-20l56 89h38z" />
    <glyph glyph-name="Udieresis" unicode="&#xdc;" horiz-adv-x="433" 
d="M329 677h74q-13 -8 -18 -13t-9.5 -19t-4.5 -38v-435q0 -71 -50.5 -121.5t-121.5 -50.5q-72 0 -122.5 50.5t-50.5 121.5v435q0 33 -6 47t-20 23h134q-9 -6 -13.5 -10t-9 -19t-4.5 -41v-420q0 -71 39.5 -109t97.5 -38t87.5 44t29.5 103v420q0 14 -2 25t-4 17.5t-6.5 12
t-6 7t-7.5 5.5zM251 818q-18 0 -31 13t-13 31q0 19 13 32t31 13q19 0 32 -13t13 -32q0 -18 -13 -31t-32 -13zM150 818q-18 0 -31 13t-13 31q0 19 13 32t31 13q19 0 32 -13t13 -32q0 -18 -13 -31t-32 -13z" />
    <glyph glyph-name="Yacute" unicode="&#xdd;" horiz-adv-x="454" 
d="M258 21q5 -12 19 -21h-134q14 9 20.5 23t6.5 47v271q-92 198 -123 264q-24 52 -47 72h134q-9 -7 -9 -27t11 -45l109 -234l112 234q5 9 5 23q0 35 -32 49h94q-32 -21 -56 -72l-117 -246v-289q0 -34 7 -49zM269 907l-66 -89h-20l56 89h30z" />
    <glyph glyph-name="Thorn" unicode="&#xde;" horiz-adv-x="440" 
d="M134 0h-134q11 7 19 21q7 13 7 49v725q0 36 -7 49q-8 14 -19 21h133q-11 -7 -19 -21q-7 -13 -7 -49v-118h111q84 0 138 -59q54 -58 54 -143t-54 -143q-54 -59 -138 -59h-111v-203q0 -25 5 -40t10 -20q4 -7 10 -9zM167 283q80 0 121 56t41 136q0 78 -41 136
q-41 56 -121 56h-60v-384h60z" />
    <glyph glyph-name="germandbls" unicode="&#xdf;" horiz-adv-x="441" 
d="M369 330q42 -56 42 -130q-1 -84 -61.5 -142.5t-144.5 -58.5h-34v10q75 1 117 55.5t42 136.5t-42 136.5t-117 55.5v10q51 1 80 39q28 35 28 93q0 57 -29 94t-82 37h-60v-667h-108q14 9 20.5 23t6.5 47v526q0 34 23.5 57.5t57.5 23.5h111q59 0 100 -41t41 -100
q0 -48 -28 -85t-73 -51q67 -13 110 -69z" />
    <glyph glyph-name="agrave" unicode="&#xe0;" horiz-adv-x="382" 
d="M325 354v-283q0 -26 4.5 -41.5t9 -20t13.5 -9.5h-87q-9 0 -15 6t-6 14v31q-35 -53 -114 -53q-56 0 -93 35.5t-37 103.5q0 83 71.5 147t172.5 64v6q0 54 -20.5 88t-58.5 34q-33 0 -61 -25t-40 -78l-54 61q21 22 66 38t89 16q63 0 111.5 -35t48.5 -99zM244 76v257
q-59 0 -113 -55.5t-54 -145.5q0 -44 26.5 -70t68.5 -26q23 0 41 10t25 20zM105 677h30l56 -89h-20z" />
    <glyph glyph-name="aacute" unicode="&#xe1;" horiz-adv-x="382" 
d="M325 354v-283q0 -26 4.5 -41.5t9 -20t13.5 -9.5h-87q-9 0 -15 6t-6 14v31q-35 -53 -114 -53q-56 0 -93 35.5t-37 103.5q0 83 71.5 147t172.5 64v6q0 54 -20.5 88t-58.5 34q-33 0 -61 -25t-40 -78l-54 61q21 22 66 38t89 16q63 0 111.5 -35t48.5 -99zM244 76v257
q-59 0 -113 -55.5t-54 -145.5q0 -44 26.5 -70t68.5 -26q23 0 41 10t25 20zM219 677l-66 -89h-20l56 89h30z" />
    <glyph glyph-name="acircumflex" unicode="&#xe2;" horiz-adv-x="382" 
d="M325 354v-283q0 -26 4.5 -41.5t9 -20t13.5 -9.5h-87q-9 0 -15 6t-6 14v31q-35 -53 -114 -53q-56 0 -93 35.5t-37 103.5q0 83 71.5 147t172.5 64v6q0 54 -20.5 88t-58.5 34q-33 0 -61 -25t-40 -78l-54 61q21 22 66 38t89 16q63 0 111.5 -35t48.5 -99zM244 76v257
q-59 0 -113 -55.5t-54 -145.5q0 -44 26.5 -70t68.5 -26q23 0 41 10t25 20zM237 588h-21l-54 73l-55 -73h-20l56 89h38z" />
    <glyph glyph-name="atilde" unicode="&#xe3;" horiz-adv-x="382" 
d="M325 354v-283q0 -26 4.5 -41.5t9 -20t13.5 -9.5h-87q-9 0 -15 6t-6 14v31q-35 -53 -114 -53q-56 0 -93 35.5t-37 103.5q0 83 71.5 147t172.5 64v6q0 54 -20.5 88t-58.5 34q-33 0 -61 -25t-40 -78l-54 61q21 22 66 38t89 16q63 0 111.5 -35t48.5 -99zM244 76v257
q-59 0 -113 -55.5t-54 -145.5q0 -44 26.5 -70t68.5 -26q23 0 41 10t25 20zM196 602q-12 0 -22 7q-3 2 -18 17q-16 20 -35 20q-15 0 -38 -14q16 30 46 30q11 0 21 -6q8 -4 24 -20.5t28 -17.5h2q13 0 37 14q-14 -30 -45 -30z" />
    <glyph glyph-name="adieresis" unicode="&#xe4;" horiz-adv-x="382" 
d="M325 354v-283q0 -26 4.5 -41.5t9 -20t13.5 -9.5h-87q-9 0 -15 6t-6 14v31q-35 -53 -114 -53q-56 0 -93 35.5t-37 103.5q0 83 71.5 147t172.5 64v6q0 54 -20.5 88t-58.5 34q-33 0 -61 -25t-40 -78l-54 61q21 22 66 38t89 16q63 0 111.5 -35t48.5 -99zM244 76v257
q-59 0 -113 -55.5t-54 -145.5q0 -44 26.5 -70t68.5 -26q23 0 41 10t25 20zM212 588q-18 0 -31 13t-13 31q0 19 13 32t31 13q19 0 32 -13t13 -32q0 -18 -13 -31t-32 -13zM111 588q-18 0 -31 13t-13 31q0 19 13 32t31 13q19 0 32 -13t13 -32q0 -18 -13 -31t-32 -13z" />
    <glyph glyph-name="aring" unicode="&#xe5;" horiz-adv-x="382" 
d="M325 354v-283q0 -26 4.5 -41.5t9 -20t13.5 -9.5h-87q-9 0 -15 6t-6 14v31q-35 -53 -114 -53q-56 0 -93 35.5t-37 103.5q0 83 71.5 147t172.5 64v6q0 54 -20.5 88t-58.5 34q-33 0 -61 -25t-40 -78l-54 61q21 22 66 38t89 16q63 0 111.5 -35t48.5 -99zM244 76v257
q-59 0 -113 -55.5t-54 -145.5q0 -44 26.5 -70t68.5 -26q23 0 41 10t25 20zM162 588q-18 0 -31 13t-13 31q0 19 13 32t31 13q19 0 32 -13t13 -32q0 -18 -13 -31t-32 -13zM162 656q-10 0 -17 -7t-7 -17t7 -17t17 -7t17 7t7 17t-7 17t-17 7z" />
    <glyph glyph-name="ae" unicode="&#xe6;" horiz-adv-x="644" 
d="M337 13l2 -2q3 -4 11 -10q1 0 2 -1h-87q-9 0 -15 6t-6 14v31q-14 -20 -41 -36q-29 -17 -73 -17q-53 0 -91 34q-39 34 -39 105q0 53 32 102q30 46 88 79q48 26 108 30l6 16l8 18q-3 33 -18 59q-20 35 -59 35q-29 0 -58 -23q-30 -25 -43 -80l-54 61q20 20 67 38
q42 16 88 16q36 0 75 -14q26 -10 49 -31q3 2 7 5.5t7 5.5q46 34 115 34q65 0 108 -32q42 -32 63 -84q20 -51 25 -114h-289v-163q19 -29 48 -45q37 -22 76 -22q41 0 78 24q36 22 57 71h19q-23 -57 -68 -90q-47 -35 -117 -35q-45 0 -81 15zM317 401q8 -22 8 -47v-86h212
q-3 62 -16 106q-14 48 -39 76t-64 28q-57 0 -92 -59zM244 100l-10 22q-23 57 -23 121q0 46 12 88q-25 -4 -52 -21q-39 -22 -66 -68q-28 -44 -28 -110q0 -44 27 -70q26 -26 68 -26q20 0 33 6q11 5 22 14q7 6 13 14l2 4l1 1l1 1v24z" />
    <glyph glyph-name="ccedilla" unicode="&#xe7;" horiz-adv-x="422" 
d="M198 -2q-63 3 -106 34q-46 34 -69 90q-23 57 -23 121t23 121q23 56 69 90t115 34q59 0 101 -24q42 -25 67 -67l-52 -34q-17 53 -45 84t-71 31q-61 0 -96 -69q-35 -70 -35 -166q0 -78 24 -124t62 -69q37 -22 76 -22q40 0 78 24q36 22 57 71h19q-23 -57 -68 -90
q-46 -34 -109 -35l-1 -1q29 -14 29 -38q0 -17 -14 -29q-14 -13 -36 -13q-15 0 -26 7l8 18q8 -5 18 -5q13 0 21 7q9 6 9 15q0 7 -9 15q-9 6 -21 6h-2z" />
    <glyph glyph-name="egrave" unicode="&#xe8;" horiz-adv-x="433" 
d="M403 258h-326v-15q0 -107 47.5 -161t113.5 -54q43 0 79.5 24.5t56.5 70.5h19q-23 -58 -70.5 -91.5t-114.5 -33.5q-100 0 -154 70.5t-54 174.5t54 174.5t154 70.5q92 0 140.5 -65t54.5 -165zM208 478q-57 0 -91.5 -59t-39.5 -151h250q-6 94 -35 152t-84 58zM150 677h30
l56 -89h-20z" />
    <glyph glyph-name="eacute" unicode="&#xe9;" horiz-adv-x="433" 
d="M403 258h-326v-15q0 -107 47.5 -161t113.5 -54q43 0 79.5 24.5t56.5 70.5h19q-23 -58 -70.5 -91.5t-114.5 -33.5q-100 0 -154 70.5t-54 174.5t54 174.5t154 70.5q92 0 140.5 -65t54.5 -165zM208 478q-57 0 -91.5 -59t-39.5 -151h250q-6 94 -35 152t-84 58zM264 677
l-66 -89h-20l56 89h30z" />
    <glyph glyph-name="ecircumflex" unicode="&#xea;" horiz-adv-x="433" 
d="M403 258h-326v-15q0 -107 47.5 -161t113.5 -54q43 0 79.5 24.5t56.5 70.5h19q-23 -58 -70.5 -91.5t-114.5 -33.5q-100 0 -154 70.5t-54 174.5t54 174.5t154 70.5q92 0 140.5 -65t54.5 -165zM208 478q-57 0 -91.5 -59t-39.5 -151h250q-6 94 -35 152t-84 58zM282 588h-21
l-54 73l-55 -73h-20l56 89h38z" />
    <glyph glyph-name="edieresis" unicode="&#xeb;" horiz-adv-x="433" 
d="M403 258h-326v-15q0 -107 47.5 -161t113.5 -54q43 0 79.5 24.5t56.5 70.5h19q-23 -58 -70.5 -91.5t-114.5 -33.5q-100 0 -154 70.5t-54 174.5t54 174.5t154 70.5q92 0 140.5 -65t54.5 -165zM208 478q-57 0 -91.5 -59t-39.5 -151h250q-6 94 -35 152t-84 58zM257 588
q-18 0 -31 13t-13 31q0 19 13 32t31 13q19 0 32 -13t13 -32q0 -18 -13 -31t-32 -13zM156 588q-18 0 -31 13t-13 31q0 19 13 32t31 13q19 0 32 -13t13 -32q0 -18 -13 -31t-32 -13z" />
    <glyph glyph-name="igrave" unicode="&#xec;" 
d="M0 0q14 9 20.5 23.5t6.5 47.5v293q0 25 -5 41t-9 20t-13 10q33 2 63 18q27 15 44 32v-414q0 -33 8 -49q4 -11 19 -22h-134zM21 677h30l56 -89h-20z" />
    <glyph glyph-name="iacute" unicode="&#xed;" 
d="M0 0q14 9 20.5 23.5t6.5 47.5v293q0 25 -5 41t-9 20t-13 10q33 2 63 18q27 15 44 32v-414q0 -33 8 -49q4 -11 19 -22h-134zM99 677l-66 -89h-20l56 89h30z" />
    <glyph glyph-name="icircumflex" unicode="&#xee;" 
d="M0 0q14 9 20.5 23.5t6.5 47.5v293q0 25 -5 41t-9 20t-13 10q33 2 63 18q27 15 44 32v-414q0 -33 8 -49q4 -11 19 -22h-134zM132 588h-21l-54 73l-55 -73h-20l56 89h38z" />
    <glyph glyph-name="idieresis" unicode="&#xef;" 
d="M0 0q14 9 20.5 23.5t6.5 47.5v293q0 25 -5 41t-9 20t-13 10q33 2 63 18q27 15 44 32v-414q0 -33 8 -49q4 -11 19 -22h-134zM115 588q-18 0 -31 13t-13 31q0 19 13 32t31 13q19 0 32 -13t13 -32q0 -18 -13 -31t-32 -13zM14 588q-18 0 -31 13t-13 31q0 19 13 32t31 13
q19 0 32 -13t13 -32q0 -18 -13 -31t-32 -13z" />
    <glyph glyph-name="eth" unicode="&#xf0;" horiz-adv-x="432" 
d="M196 5q53 0 80 54t27 130q0 77 -27 131t-80 54q-52 0 -79 -54q-28 -53 -28 -131q0 -77 28 -130q27 -54 79 -54zM260 656q12 -7 35 -28q51 -54 79 -139t28 -189q0 -108 -27 -174q-28 -67 -74 -98t-105 -31q-64 0 -107 27q-44 27 -66 73q-23 48 -23 102q0 83 45 139
q44 56 131 56q47 0 81 -29q32 -31 44 -79q-2 56 -9 122q-9 75 -20 126q-13 56 -35 95l-103 -124l-24 13l111 134q-18 20 -43 20q-40 0 -65 -37t-36 -87l-58 38q26 43 64 68q38 26 95 26q29 0 57 -11l100 120l24 -13z" />
    <glyph glyph-name="ntilde" unicode="&#xf1;" horiz-adv-x="416" 
d="M386 0h-134q14 9 20.5 23.5t6.5 47.5v273q0 57 -19.5 84.5t-49.5 27.5q-29 0 -58.5 -23t-44.5 -58v-304q0 -35 7 -49q4 -11 19 -22h-133q14 9 20 23.5t6 47.5v293q0 25 -4.5 41t-8.5 20t-13 10q32 2 62 18q25 13 45 33v-72q20 35 55 54.5t73 19.5q52 0 88.5 -30.5
t36.5 -103.5v-283q0 -35 7 -49q4 -11 19 -22zM227 602q-12 0 -22 7q-3 2 -18 17q-16 20 -35 20q-15 0 -38 -14q16 30 46 30q10 0 21 -6q8 -4 24 -20.5t28 -17.5h2q13 0 37 14q-14 -30 -45 -30z" />
    <glyph glyph-name="ograve" unicode="&#xf2;" horiz-adv-x="446" 
d="M208 488q99 0 153.5 -70.5t54.5 -174.5t-54.5 -174.5t-153.5 -70.5t-153.5 70.5t-54.5 174.5t54.5 174.5t153.5 70.5zM208 8q60 0 95.5 67t35.5 168t-35.5 168t-95.5 67t-95.5 -67t-35.5 -168t35.5 -168t95.5 -67zM151 677h30l56 -89h-20z" />
    <glyph glyph-name="oacute" unicode="&#xf3;" horiz-adv-x="446" 
d="M208 488q99 0 153.5 -70.5t54.5 -174.5t-54.5 -174.5t-153.5 -70.5t-153.5 70.5t-54.5 174.5t54.5 174.5t153.5 70.5zM208 8q60 0 95.5 67t35.5 168t-35.5 168t-95.5 67t-95.5 -67t-35.5 -168t35.5 -168t95.5 -67zM265 677l-66 -89h-20l56 89h30z" />
    <glyph glyph-name="ocircumflex" unicode="&#xf4;" horiz-adv-x="446" 
d="M208 488q99 0 153.5 -70.5t54.5 -174.5t-54.5 -174.5t-153.5 -70.5t-153.5 70.5t-54.5 174.5t54.5 174.5t153.5 70.5zM208 8q60 0 95.5 67t35.5 168t-35.5 168t-95.5 67t-95.5 -67t-35.5 -168t35.5 -168t95.5 -67zM283 588h-21l-54 73l-55 -73h-20l56 89h38z" />
    <glyph glyph-name="otilde" unicode="&#xf5;" horiz-adv-x="446" 
d="M208 488q99 0 153.5 -70.5t54.5 -174.5t-54.5 -174.5t-153.5 -70.5t-153.5 70.5t-54.5 174.5t54.5 174.5t153.5 70.5zM208 8q60 0 95.5 67t35.5 168t-35.5 168t-95.5 67t-95.5 -67t-35.5 -168t35.5 -168t95.5 -67zM242 602q-12 0 -22 7q-3 2 -18 17q-16 20 -35 20
q-15 0 -38 -14q16 30 46 30q11 0 21 -6q8 -4 24 -20.5t28 -17.5h2q13 0 37 14q-14 -30 -45 -30z" />
    <glyph glyph-name="odieresis" unicode="&#xf6;" horiz-adv-x="446" 
d="M208 488q99 0 153.5 -70.5t54.5 -174.5t-54.5 -174.5t-153.5 -70.5t-153.5 70.5t-54.5 174.5t54.5 174.5t153.5 70.5zM208 8q60 0 95.5 67t35.5 168t-35.5 168t-95.5 67t-95.5 -67t-35.5 -168t35.5 -168t95.5 -67zM258 588q-18 0 -31 13t-13 31q0 19 13 32t31 13
q19 0 32 -13t13 -32q0 -18 -13 -31t-32 -13zM157 588q-18 0 -31 13t-13 31q0 19 13 32t31 13q19 0 32 -13t13 -32q0 -18 -13 -31t-32 -13z" />
    <glyph glyph-name="divide" unicode="&#xf7;" horiz-adv-x="321" 
d="M198 53q0 -22 -16 -38t-38 -16t-38 15.5t-16 38.5t16 38.5t38 15.5t38 -16t16 -38zM198 366q0 -22 -16 -38t-38 -16t-38 16t-16 38t16 38t38 16t38 -16t16 -38zM0 198v27h291v-27h-291z" />
    <glyph glyph-name="oslash" unicode="&#xf8;" horiz-adv-x="445" 
d="M344 511l-24 -54q47 -31 71 -87.5t24 -125.5q0 -104 -54 -174.5t-153 -70.5q-48 0 -89 19l-23 -52l-25 12l25 53q-47 31 -71.5 87.5t-24.5 125.5q0 104 54 174.5t154 70.5q48 0 88 -19l24 52zM77 244q0 -106 37 -172l169 370q-32 37 -75 37q-61 0 -96 -67t-35 -168z
M208 9q60 0 95.5 67t35.5 168q0 107 -38 172l-169 -370q34 -37 76 -37z" />
    <glyph glyph-name="ugrave" unicode="&#xf9;" horiz-adv-x="417" 
d="M387 13q-52 -6 -75 -8h-3q-30 0 -30 30v39q-21 -35 -56 -55.5t-72 -20.5q-52 0 -88.5 31.5t-36.5 104.5v283q0 25 -4.5 41t-8.5 20t-13 10h107v-344q0 -57 19.5 -84.5t49.5 -27.5q29 0 58.5 23t44.5 58v304q0 25 -4.5 41t-8.5 20t-13 10h107v-415q0 -29 6 -41t21 -19z
M136 677h30l56 -89h-20z" />
    <glyph glyph-name="uacute" unicode="&#xfa;" horiz-adv-x="417" 
d="M387 13q-52 -6 -75 -8h-3q-30 0 -30 30v39q-21 -35 -56 -55.5t-72 -20.5q-52 0 -88.5 31.5t-36.5 104.5v283q0 25 -4.5 41t-8.5 20t-13 10h107v-344q0 -57 19.5 -84.5t49.5 -27.5q29 0 58.5 23t44.5 58v304q0 25 -4.5 41t-8.5 20t-13 10h107v-415q0 -29 6 -41t21 -19z
M250 677l-66 -89h-20l56 89h30z" />
    <glyph glyph-name="ucircumflex" unicode="&#xfb;" horiz-adv-x="417" 
d="M387 13q-52 -6 -75 -8h-3q-30 0 -30 30v39q-21 -35 -56 -55.5t-72 -20.5q-52 0 -88.5 31.5t-36.5 104.5v283q0 25 -4.5 41t-8.5 20t-13 10h107v-344q0 -57 19.5 -84.5t49.5 -27.5q29 0 58.5 23t44.5 58v304q0 25 -4.5 41t-8.5 20t-13 10h107v-415q0 -29 6 -41t21 -19z
M268 588h-21l-54 73l-55 -73h-20l56 89h38z" />
    <glyph glyph-name="udieresis" unicode="&#xfc;" horiz-adv-x="417" 
d="M387 13q-52 -6 -75 -8h-3q-30 0 -30 30v39q-21 -35 -56 -55.5t-72 -20.5q-52 0 -88.5 31.5t-36.5 104.5v283q0 25 -4.5 41t-8.5 20t-13 10h107v-344q0 -57 19.5 -84.5t49.5 -27.5q29 0 58.5 23t44.5 58v304q0 25 -4.5 41t-8.5 20t-13 10h107v-415q0 -29 6 -41t21 -19z
M243 588q-18 0 -31 13t-13 31q0 19 13 32t31 13q19 0 32 -13t13 -32q0 -18 -13 -31t-32 -13zM142 588q-18 0 -31 13t-13 31q0 19 13 32t31 13q19 0 32 -13t13 -32q0 -18 -13 -31t-32 -13z" />
    <glyph glyph-name="yacute" unicode="&#xfd;" horiz-adv-x="407" 
d="M284 486h93q-30 -18 -48 -75l-131 -410q-14 -43 -28 -73.5t-36 -62.5t-53 -49t-69 -17l32 100q8 -2 21 -2q88 0 122 104q-106 307 -141 409q-22 65 -46 76h134q-12 -9 -12 -30q0 -15 9 -46l97 -281q68 211 90 281q4 12 4 26q0 40 -38 50zM246 677l-66 -89h-20l56 89h30z
" />
    <glyph glyph-name="thorn" unicode="&#xfe;" horiz-adv-x="417" 
d="M199 10q41 0 67 35q23 33 34 89q10 51 10 109q0 97 -34 161t-87 64q-27 0 -50 -19t-31 -57v-269q0 -46 26 -80q26 -33 65 -33zM107 485l1 1v-52q7 18 35 37q26 17 66 17q62 0 102 -34q38 -34 58 -90q18 -56 18 -121q0 -59 -18 -114q-18 -56 -59 -94q-40 -37 -111 -37
q-29 0 -47 7q-23 7 -32 13l-8 4l-2 1l-1 1h-1v-156q0 -35 7 -48q7 -15 19 -22h-134q12 7 20 21q7 13 7 49v426h-1q1 6 1 21v294q0 36 -7 49q-8 14 -20 21h134q-13 -7 -19 -21q-8 -14 -8 -49v-124z" />
    <glyph glyph-name="ydieresis" unicode="&#xff;" horiz-adv-x="407" 
d="M284 486h93q-30 -18 -48 -75l-131 -410q-14 -43 -28 -73.5t-36 -62.5t-53 -49t-69 -17l32 100q8 -2 21 -2q88 0 122 104q-106 307 -141 409q-22 65 -46 76h134q-12 -9 -12 -30q0 -15 9 -46l97 -281q68 211 90 281q4 12 4 26q0 40 -38 50zM239 588q-18 0 -31 13t-13 31
q0 19 13 32t31 13q19 0 32 -13t13 -32q0 -18 -13 -31t-32 -13zM138 588q-18 0 -31 13t-13 31q0 19 13 32t31 13q19 0 32 -13t13 -32q0 -18 -13 -31t-32 -13z" />
    <glyph glyph-name="Amacron" unicode="&#x100;" horiz-adv-x="466" 
d="M390 77q17 -59 46 -77h-144q19 15 19 45q0 14 -5 32q-3 12 -16.5 58.5l-22.5 77.5h-173q-6 -20 -14 -50.5t-13.5 -51t-9.5 -34.5q-3 -12 -3 -22q0 -39 40 -55h-94q32 21 47 77l162 600h10q129 -450 171 -600zM97 223h168l-87 303zM260 852h-92v20h92v-20z" />
    <glyph glyph-name="amacron" unicode="&#x101;" horiz-adv-x="382" 
d="M325 354v-283q0 -26 4.5 -41.5t9 -20t13.5 -9.5h-87q-9 0 -15 6t-6 14v31q-35 -53 -114 -53q-56 0 -93 35.5t-37 103.5q0 83 71.5 147t172.5 64v6q0 54 -20.5 88t-58.5 34q-33 0 -61 -25t-40 -78l-54 61q21 22 66 38t89 16q63 0 111.5 -35t48.5 -99zM244 76v257
q-59 0 -113 -55.5t-54 -145.5q0 -44 26.5 -70t68.5 -26q23 0 41 10t25 20zM208 622h-92v20h92v-20z" />
    <glyph glyph-name="Abreve" unicode="&#x102;" horiz-adv-x="466" 
d="M390 77q17 -59 46 -77h-144q19 15 19 45q0 14 -5 32q-3 12 -16.5 58.5l-22.5 77.5h-173q-6 -20 -14 -50.5t-13.5 -51t-9.5 -34.5q-3 -12 -3 -22q0 -39 40 -55h-94q32 21 47 77l162 600h10q129 -450 171 -600zM97 223h168l-87 303zM218 821q-22 0 -37.5 16t-15.5 38h20
q0 -14 9.5 -23.5t23.5 -9.5t23.5 9.5t9.5 23.5h21q0 -23 -16 -38.5t-38 -15.5z" />
    <glyph glyph-name="abreve" unicode="&#x103;" horiz-adv-x="382" 
d="M325 354v-283q0 -26 4.5 -41.5t9 -20t13.5 -9.5h-87q-9 0 -15 6t-6 14v31q-35 -53 -114 -53q-56 0 -93 35.5t-37 103.5q0 83 71.5 147t172.5 64v6q0 54 -20.5 88t-58.5 34q-33 0 -61 -25t-40 -78l-54 61q21 22 66 38t89 16q63 0 111.5 -35t48.5 -99zM244 76v257
q-59 0 -113 -55.5t-54 -145.5q0 -44 26.5 -70t68.5 -26q23 0 41 10t25 20zM176 591q-22 0 -38 15.5t-16 38.5h21q0 -14 9.5 -23.5t23.5 -9.5t23.5 9.5t9.5 23.5h20q0 -22 -15.5 -38t-37.5 -16z" />
    <glyph glyph-name="Aogonek" unicode="&#x104;" horiz-adv-x="466" 
d="M178 525q0 -2 -2 -8t-4.5 -16.5t-5.5 -21.5q-7 -23 -31 -117q-7 -26 -20 -73.5t-18 -65.5h168q-14 47 -40 139q-19 69 -33 117h-1v3h-1v3l-1 1v1q0 1 -1 2v2q0 1 -1 2v1q-2 7 -4 14.5t-3.5 11.5t-1.5 5zM401 0h-109q15 14 18 34q1 4 1 13q0 13 -5 30q-17 61 -39 136h-173
q-3 -9 -37 -136q-3 -12 -3 -22q0 -38 40 -55h-94q35 26 47 77q18 72 42 157q28 105 54 200q19 72 47 172v4h1v3h1v4q1 0 1 1v3h1v3q1 1 1 2v1q0 1 1 1v3l1 1v2q0 1 1 1v2q3 9 5.5 18.5t4 14t1.5 6.5v1h10v-1q1 -3 21 -70q7 -27 24.5 -87.5t24.5 -84.5q32 -113 57 -200
q11 -39 27 -97t17 -60q16 -58 46 -77h-17v-20h-2q-13 0 -20 -6q-9 -8 -9 -15q0 -9 9 -15q7 -7 20 -7q9 0 19 5l8 -18q-11 -7 -27 -7q-22 0 -35 13q-15 12 -15 29q0 27 34 39v2z" />
    <glyph glyph-name="aogonek" unicode="&#x105;" horiz-adv-x="382" 
d="M244 333q-33 0 -73 -23q-39 -22 -66 -68q-28 -44 -28 -110q0 -44 27 -70q26 -26 68 -26q20 0 33 6q11 5 22 14q7 6 13 14l2 4l1 1l1 1v257zM313 0h-48q-9 0 -15 6t-6 14v31q-14 -20 -41 -36q-29 -17 -73 -17q-53 0 -91 34q-39 34 -39 105q0 53 32 102q30 46 88 79
q56 30 124 30v6q0 52 -20 87t-59 35q-29 0 -58 -23q-30 -25 -43 -80l-54 61q20 20 67 38q42 16 88 16q36 0 75 -14q36 -13 61 -44q24 -30 24 -76v-283q0 -28 4 -40q5 -15 10 -20q3 -4 11 -10q1 0 2 -1h-21v-20h-2q-12 0 -21 -6q-9 -8 -9 -15q0 -9 9 -15q8 -7 21 -7
q10 0 18 5l9 -18q-11 -7 -27 -7q-22 0 -35 13q-15 12 -15 29q0 27 34 39v2z" />
    <glyph glyph-name="Cacute" unicode="&#x106;" horiz-adv-x="480" 
d="M435 155h15q-29 -73 -82 -115.5t-126 -42.5q-114 0 -178 98t-64 243q0 146 64 244t178 98q128 0 194 -127l-58 -31q-20 69 -55 108.5t-81 39.5q-74 0 -117.5 -95t-43.5 -237q0 -133 56 -215.5t135 -82.5q117 0 163 115zM299 907l-66 -89h-20l56 89h30z" />
    <glyph glyph-name="cacute" unicode="&#x107;" horiz-adv-x="422" 
d="M373 123h19q-23 -58 -70.5 -91.5t-114.5 -33.5q-99 0 -153 70.5t-54 174.5t54 174.5t153 70.5q112 0 168 -91l-52 -34q-16 53 -46 84t-70 31q-60 0 -95.5 -67t-35.5 -168q0 -107 48 -161t114 -54q43 0 79 24.5t56 70.5zM264 677l-66 -89h-20l56 89h30z" />
    <glyph glyph-name="Ccircumflex" unicode="&#x108;" horiz-adv-x="480" 
d="M435 155h15q-29 -73 -82 -115.5t-126 -42.5q-114 0 -178 98t-64 243q0 146 64 244t178 98q128 0 194 -127l-58 -31q-20 69 -55 108.5t-81 39.5q-74 0 -117.5 -95t-43.5 -237q0 -133 56 -215.5t135 -82.5q117 0 163 115zM317 818h-21l-54 73l-55 -73h-20l56 89h38z" />
    <glyph glyph-name="ccircumflex" unicode="&#x109;" horiz-adv-x="422" 
d="M373 123h19q-23 -58 -70.5 -91.5t-114.5 -33.5q-99 0 -153 70.5t-54 174.5t54 174.5t153 70.5q112 0 168 -91l-52 -34q-16 53 -46 84t-70 31q-60 0 -95.5 -67t-35.5 -168q0 -107 48 -161t114 -54q43 0 79 24.5t56 70.5zM282 588h-21l-54 73l-55 -73h-20l56 89h38z" />
    <glyph glyph-name="Cdotaccent" unicode="&#x10a;" horiz-adv-x="480" 
d="M435 155h15q-29 -73 -82 -115.5t-126 -42.5q-114 0 -178 98t-64 243q0 146 64 244t178 98q128 0 194 -127l-58 -31q-20 69 -55 108.5t-81 39.5q-74 0 -117.5 -95t-43.5 -237q0 -133 56 -215.5t135 -82.5q117 0 163 115zM242 818q-18 0 -31 13t-13 31q0 19 13 32t31 13
q19 0 32 -13t13 -32q0 -18 -13 -31t-32 -13z" />
    <glyph glyph-name="cdotaccent" unicode="&#x10b;" horiz-adv-x="422" 
d="M373 123h19q-23 -58 -70.5 -91.5t-114.5 -33.5q-99 0 -153 70.5t-54 174.5t54 174.5t153 70.5q112 0 168 -91l-52 -34q-16 53 -46 84t-70 31q-60 0 -95.5 -67t-35.5 -168q0 -107 48 -161t114 -54q43 0 79 24.5t56 70.5zM207 588q-18 0 -31 13t-13 31q0 19 13 32t31 13
q19 0 32 -13t13 -32q0 -18 -13 -31t-32 -13z" />
    <glyph glyph-name="Ccaron" unicode="&#x10c;" horiz-adv-x="480" 
d="M435 155h15q-29 -73 -82 -115.5t-126 -42.5q-114 0 -178 98t-64 243q0 146 64 244t178 98q128 0 194 -127l-58 -31q-20 69 -55 108.5t-81 39.5q-74 0 -117.5 -95t-43.5 -237q0 -133 56 -215.5t135 -82.5q117 0 163 115zM167 907h20l55 -74l54 74h21l-56 -89h-38z" />
    <glyph glyph-name="ccaron" unicode="&#x10d;" horiz-adv-x="422" 
d="M373 123h19q-23 -58 -70.5 -91.5t-114.5 -33.5q-99 0 -153 70.5t-54 174.5t54 174.5t153 70.5q112 0 168 -91l-52 -34q-16 53 -46 84t-70 31q-60 0 -95.5 -67t-35.5 -168q0 -107 48 -161t114 -54q43 0 79 24.5t56 70.5zM132 677h20l55 -74l54 74h21l-56 -89h-38z" />
    <glyph glyph-name="Dcaron" unicode="&#x10e;" horiz-adv-x="481" 
d="M0 677h210q114 0 177.5 -97t63.5 -242q0 -144 -63.5 -241t-177.5 -97h-210q14 9 20 23t6 47v537q0 10 -1 19t-2 15t-3 11.5t-3.5 8.5t-4.5 6.5t-4.5 4t-4.5 2.5zM107 10h73q75 0 132.5 95.5t57.5 232.5t-57.5 233t-132.5 96h-73v-657zM146 907h20l55 -74l54 74h21
l-56 -89h-38z" />
    <glyph glyph-name="dcaron" unicode="&#x10f;" horiz-adv-x="417" 
d="M387 10l-83 -8h-4q-21 0 -21 22q-37 -26 -91 -26q-97 0 -142.5 64t-45.5 161q0 67 20.5 126t64.5 99t103 40q31 0 56 -16.5t35 -37.5v133q0 25 -4.5 41t-8.5 19.5t-13 9.5q36 5 63 19q28 14 44 32v-607q0 -26 5 -41.5t8.5 -19t13.5 -10.5zM188 10q39 0 65 32.5t26 79.5
v280q-9 29 -32 47.5t-49 18.5q-51 0 -86 -73t-35 -172q0 -59 9.5 -104.5t35.5 -77t66 -31.5zM419 593q11 6 13 23q-6 -3 -12 -3q-13 0 -23 8.5t-10 22.5t10 23t23 9q18 0 27.5 -11t9.5 -27q0 -18 -10.5 -31.5t-27.5 -13.5z" />
    <glyph glyph-name="Dcroat" unicode="&#x110;" horiz-adv-x="481" 
d="M107 325v-315h73q76 3 133 96t57 232q0 140 -57 233t-133 96h-73v-315h91v-27h-91zM26 352v255q0 28 -4 40q-5 15 -10 20q-7 7 -10 9l-2 1h210q118 -5 180 -102q61 -98 61 -237q0 -138 -61 -235q-61 -98 -180 -103h-210q12 7 20 21q6 13 6 49v255h-119v27h119z" />
    <glyph glyph-name="dcroat" unicode="&#x111;" horiz-adv-x="417" 
d="M188 10q39 0 65 32q24 30 26 80v280q-11 30 -32 48q-22 18 -49 18q-52 0 -87 -74q-34 -72 -34 -171q0 -57 10 -104q11 -50 35 -79q24 -30 66 -30zM360 571v-490q0 -28 4 -40q5 -15 10 -20q3 -4 11 -10q1 0 2 -1l-83 -8h-4q-8 0 -14 3q-7 4 -7 19h-1q0 -1 -1 -1
q-1 -1 -2 -1l-3 -2l-4 -2q-10 -6 -32 -13q-20 -7 -48 -7q-69 0 -110 32q-42 32 -60 84q-18 51 -18 109q0 66 22 126q21 61 63 100q41 39 103 39q32 0 57 -17q22 -15 34 -37v137h-139v27h137l-1 9q-4 13 -10 20q-6 6 -12 9q0 1 -1 1q24 2 63 19q32 18 44 32v-90h70v-27h-70z
" />
    <glyph glyph-name="Emacron" unicode="&#x112;" horiz-adv-x="423" 
d="M108 10h63q74 0 136 36t86 91l-12 -137h-381q14 9 20.5 23t6.5 47v537q0 26 -6 42.5t-9 19t-12 8.5h360l11 -112q-23 45 -75.5 73.5t-124.5 28.5h-63v-283h62q119 0 150 102v-215q-31 103 -150 103h-62v-364zM243 852h-92v20h92v-20z" />
    <glyph glyph-name="emacron" unicode="&#x113;" horiz-adv-x="433" 
d="M403 258h-326v-15q0 -107 47.5 -161t113.5 -54q43 0 79.5 24.5t56.5 70.5h19q-23 -58 -70.5 -91.5t-114.5 -33.5q-100 0 -154 70.5t-54 174.5t54 174.5t154 70.5q92 0 140.5 -65t54.5 -165zM208 478q-57 0 -91.5 -59t-39.5 -151h250q-6 94 -35 152t-84 58zM253 622h-92
v20h92v-20z" />
    <glyph glyph-name="Ebreve" unicode="&#x114;" horiz-adv-x="423" 
d="M108 10h63q74 0 136 36t86 91l-12 -137h-381q14 9 20.5 23t6.5 47v537q0 26 -6 42.5t-9 19t-12 8.5h360l11 -112q-23 45 -75.5 73.5t-124.5 28.5h-63v-283h62q119 0 150 102v-215q-31 103 -150 103h-62v-364zM199 822q-23 0 -38.5 16t-15.5 38h20q0 -14 10 -23.5t24 -9.5
t23.5 9.5t9.5 23.5h20q0 -22 -15.5 -38t-37.5 -16z" />
    <glyph glyph-name="ebreve" unicode="&#x115;" horiz-adv-x="433" 
d="M403 258h-326v-15q0 -107 47.5 -161t113.5 -54q43 0 79.5 24.5t56.5 70.5h19q-23 -58 -70.5 -91.5t-114.5 -33.5q-100 0 -154 70.5t-54 174.5t54 174.5t154 70.5q92 0 140.5 -65t54.5 -165zM208 478q-57 0 -91.5 -59t-39.5 -151h250q-6 94 -35 152t-84 58zM202 591
q-22 0 -38 15.5t-16 38.5h21q0 -14 9.5 -23.5t23.5 -9.5t23.5 9.5t9.5 23.5h20q0 -22 -15.5 -38t-37.5 -16z" />
    <glyph glyph-name="Edotaccent" unicode="&#x116;" horiz-adv-x="423" 
d="M108 10h63q74 0 136 36t86 91l-12 -137h-381q14 9 20.5 23t6.5 47v537q0 26 -6 42.5t-9 19t-12 8.5h360l11 -112q-23 45 -75.5 73.5t-124.5 28.5h-63v-283h62q119 0 150 102v-215q-31 103 -150 103h-62v-364zM197 818q-18 0 -31 13t-13 31q0 19 13 32t31 13q19 0 32 -13
t13 -32q0 -18 -13 -31t-32 -13z" />
    <glyph glyph-name="edotaccent" unicode="&#x117;" horiz-adv-x="433" 
d="M403 258h-326v-15q0 -107 47.5 -161t113.5 -54q43 0 79.5 24.5t56.5 70.5h19q-23 -58 -70.5 -91.5t-114.5 -33.5q-100 0 -154 70.5t-54 174.5t54 174.5t154 70.5q92 0 140.5 -65t54.5 -165zM208 478q-57 0 -91.5 -59t-39.5 -151h250q-6 94 -35 152t-84 58zM207 588
q-18 0 -31 13t-13 31q0 19 13 32t31 13q19 0 32 -13t13 -32q0 -18 -13 -31t-32 -13z" />
    <glyph glyph-name="Eogonek" unicode="&#x118;" horiz-adv-x="423" 
d="M351 0h-351q12 7 20 21q7 13 7 49v537q0 28 -4 40t-10 20q-5 5 -11 9q-1 1 -2 1h360l11 -112q-22 43 -73 73q-53 29 -127 29h-63v-283h62q63 0 100 27t50 75v-215q-13 47 -50 76q-38 27 -100 27h-62v-364h63q75 0 137 36q61 36 85 91l-12 -137h-12v-20h-2q-12 0 -21 -6
q-9 -8 -9 -15q0 -9 9 -15q8 -7 21 -7q10 0 18 5l8 -18q-11 -7 -26 -7q-22 0 -35 13q-15 12 -15 29q0 27 34 39v2z" />
    <glyph glyph-name="eogonek" unicode="&#x119;" horiz-adv-x="433" 
d="M208 478q-59 0 -92 -59q-35 -60 -39 -151h250q-3 62 -16 106q-14 48 -39 76t-64 28zM236 -1q-9 -1 -28 -1q-69 0 -115 34q-48 36 -70 90q-23 57 -23 121t23 121q22 54 70 90q46 34 115 34q65 0 108 -32q40 -32 63 -84q21 -52 24 -114h-326v-15q0 -78 24 -124
q24 -47 61 -69t76 -22q42 0 78 24q35 22 58 71h19q-23 -55 -69 -90q-32 -24 -70 -31v-22h-3q-13 0 -20 -6q-9 -8 -9 -15q0 -9 9 -15q7 -7 20 -7q11 0 19 5l8 -18q-11 -7 -27 -7q-21 0 -34 13q-15 12 -15 29q0 27 34 39v1z" />
    <glyph glyph-name="Ecaron" unicode="&#x11a;" horiz-adv-x="423" 
d="M108 10h63q74 0 136 36t86 91l-12 -137h-381q14 9 20.5 23t6.5 47v537q0 26 -6 42.5t-9 19t-12 8.5h360l11 -112q-23 45 -75.5 73.5t-124.5 28.5h-63v-283h62q119 0 150 102v-215q-31 103 -150 103h-62v-364zM122 907h20l55 -74l54 74h21l-56 -89h-38z" />
    <glyph glyph-name="ecaron" unicode="&#x11b;" horiz-adv-x="433" 
d="M403 258h-326v-15q0 -107 47.5 -161t113.5 -54q43 0 79.5 24.5t56.5 70.5h19q-23 -58 -70.5 -91.5t-114.5 -33.5q-100 0 -154 70.5t-54 174.5t54 174.5t154 70.5q92 0 140.5 -65t54.5 -165zM208 478q-57 0 -91.5 -59t-39.5 -151h250q-6 94 -35 152t-84 58zM132 677h20
l55 -74l54 74h21l-56 -89h-38z" />
    <glyph glyph-name="Gcircumflex" unicode="&#x11c;" horiz-adv-x="506" 
d="M332 384h144q-14 -10 -20 -24.5t-6 -46.5v-138q0 -74 -60.5 -126t-148.5 -52q-76 0 -132 47.5t-82.5 123.5t-26.5 170q0 145 63.5 243.5t177.5 98.5q129 0 195 -127l-58 -31q-20 69 -55 108.5t-82 39.5q-74 0 -117 -95t-43 -237t43 -236.5t117 -94.5q52 0 90 32.5
t38 108.5v165q0 13 -2 23.5t-4.5 16.5t-7.5 12.5t-7 8t-9 6.5zM313 818h-21l-54 73l-55 -73h-20l56 89h38z" />
    <glyph glyph-name="gcircumflex" unicode="&#x11d;" horiz-adv-x="461" 
d="M107 106h103q96 0 156 -44.5t60 -109.5q0 -66 -58.5 -110t-157.5 -44q-75 0 -136 32t-74 81l51 102q0 -33 7.5 -65.5t24.5 -65t49.5 -52t77.5 -19.5q60 0 98 40t38 101t-37.5 102.5t-98.5 41.5h-121l32 53q-46 21 -71 64t-25 96q0 77 49.5 128t135.5 51q61 0 107 -27
q29 45 66 45q24 0 48 -18l-31 -42q-15 35 -39 35q-20 0 -36 -26q71 -49 71 -146q0 -77 -49.5 -127.5t-136.5 -50.5q-43 0 -79 14zM210 479q-50 0 -77 -48t-27 -122t27 -121.5t77 -47.5q51 0 78 47.5t27 121.5t-27 122t-78 48zM284 590h-21l-54 73l-55 -73h-20l56 89h38z" />
    <glyph glyph-name="Gbreve" unicode="&#x11e;" horiz-adv-x="506" 
d="M332 384h144q-14 -10 -20 -24.5t-6 -46.5v-138q0 -74 -60.5 -126t-148.5 -52q-76 0 -132 47.5t-82.5 123.5t-26.5 170q0 145 63.5 243.5t177.5 98.5q129 0 195 -127l-58 -31q-20 69 -55 108.5t-82 39.5q-74 0 -117 -95t-43 -237t43 -236.5t117 -94.5q52 0 90 32.5
t38 108.5v165q0 13 -2 23.5t-4.5 16.5t-7.5 12.5t-7 8t-9 6.5zM238 821q-22 0 -37.5 16t-15.5 38h20q0 -14 9.5 -23.5t23.5 -9.5t23.5 9.5t9.5 23.5h21q0 -23 -16 -38.5t-38 -15.5z" />
    <glyph glyph-name="gbreve" unicode="&#x11f;" horiz-adv-x="461" 
d="M107 106h103q96 0 156 -44.5t60 -109.5q0 -66 -58.5 -110t-157.5 -44q-75 0 -136 32t-74 81l51 102q0 -33 7.5 -65.5t24.5 -65t49.5 -52t77.5 -19.5q60 0 98 40t38 101t-37.5 102.5t-98.5 41.5h-121l32 53q-46 21 -71 64t-25 96q0 77 49.5 128t135.5 51q61 0 107 -27
q29 45 66 45q24 0 48 -18l-31 -42q-15 35 -39 35q-20 0 -36 -26q71 -49 71 -146q0 -77 -49.5 -127.5t-136.5 -50.5q-43 0 -79 14zM210 479q-50 0 -77 -48t-27 -122t27 -121.5t77 -47.5q51 0 78 47.5t27 121.5t-27 122t-78 48zM215 591q-22 0 -37.5 16t-15.5 38h20
q0 -14 9.5 -23.5t23.5 -9.5t24 9.5t10 23.5h20q0 -23 -15.5 -38.5t-38.5 -15.5z" />
    <glyph glyph-name="Gdotaccent" unicode="&#x120;" horiz-adv-x="506" 
d="M332 384h144q-14 -10 -20 -24.5t-6 -46.5v-138q0 -74 -60.5 -126t-148.5 -52q-76 0 -132 47.5t-82.5 123.5t-26.5 170q0 145 63.5 243.5t177.5 98.5q129 0 195 -127l-58 -31q-20 69 -55 108.5t-82 39.5q-74 0 -117 -95t-43 -237t43 -236.5t117 -94.5q52 0 90 32.5
t38 108.5v165q0 13 -2 23.5t-4.5 16.5t-7.5 12.5t-7 8t-9 6.5zM238 818q-18 0 -31 13t-13 31q0 19 13 32t31 13q19 0 32 -13t13 -32q0 -18 -13 -31t-32 -13z" />
    <glyph glyph-name="gdotaccent" unicode="&#x121;" horiz-adv-x="461" 
d="M107 106h103q96 0 156 -44.5t60 -109.5q0 -66 -58.5 -110t-157.5 -44q-75 0 -136 32t-74 81l51 102q0 -33 7.5 -65.5t24.5 -65t49.5 -52t77.5 -19.5q60 0 98 40t38 101t-37.5 102.5t-98.5 41.5h-121l32 53q-46 21 -71 64t-25 96q0 77 49.5 128t135.5 51q61 0 107 -27
q29 45 66 45q24 0 48 -18l-31 -42q-15 35 -39 35q-20 0 -36 -26q71 -49 71 -146q0 -77 -49.5 -127.5t-136.5 -50.5q-43 0 -79 14zM210 479q-50 0 -77 -48t-27 -122t27 -121.5t77 -47.5q51 0 78 47.5t27 121.5t-27 122t-78 48zM215 591q-18 0 -31 13t-13 31q0 19 13 32t31 13
q19 0 32 -13t13 -32q0 -18 -13 -31t-32 -13z" />
    <glyph glyph-name="gcedilla" unicode="&#x123;" horiz-adv-x="461" 
d="M107 106h103q96 0 156 -44.5t60 -109.5q0 -66 -58.5 -110t-157.5 -44q-75 0 -136 32t-74 81l51 102q0 -33 7.5 -65.5t24.5 -65t49.5 -52t77.5 -19.5q60 0 98 40t38 101t-37.5 102.5t-98.5 41.5h-121l32 53q-46 21 -71 64t-25 96q0 77 49.5 128t135.5 51q61 0 107 -27
q29 45 66 45q24 0 48 -18l-31 -42q-15 35 -39 35q-20 0 -36 -26q71 -49 71 -146q0 -77 -49.5 -127.5t-136.5 -50.5q-43 0 -79 14zM210 479q-50 0 -77 -48t-27 -122t27 -121.5t77 -47.5q51 0 78 47.5t27 121.5t-27 122t-78 48zM211 676q-11 -6 -13 -23q6 3 12 3q13 0 23 -8.5
t10 -22.5t-10 -23t-23 -9q-18 0 -27.5 11t-9.5 27q0 18 10.5 31.5t27.5 13.5z" />
    <glyph glyph-name="Itilde" unicode="&#x128;" 
d="M107 607v-537q0 -33 6.5 -47t20.5 -23h-134q14 9 20 23t6 47v537q0 33 -6 47t-20 23h134q-14 -9 -20.5 -23t-6.5 -47zM101 832q-12 0 -22 7q-3 2 -18 17q-16 20 -35 20q-15 0 -38 -14q16 30 46 30q10 0 21 -6q8 -4 24 -20.5t28 -17.5h2q13 0 37 14q-14 -30 -45 -30z" />
    <glyph glyph-name="itilde" unicode="&#x129;" 
d="M0 0q14 9 20.5 23.5t6.5 47.5v293q0 25 -5 41t-9 20t-13 10q33 2 63 18q27 15 44 32v-414q0 -33 8 -49q4 -11 19 -22h-134zM137 602q-12 0 -22 7q-3 2 -18 17q-16 20 -35 20q-15 0 -38 -14q16 30 46 30q10 0 21 -6q8 -4 24 -20.5t28 -17.5h2q13 0 37 14q-14 -30 -45 -30z
" />
    <glyph glyph-name="Imacron" unicode="&#x12a;" 
d="M107 607v-537q0 -33 6.5 -47t20.5 -23h-134q14 9 20 23t6 47v537q0 33 -6 47t-20 23h134q-14 -9 -20.5 -23t-6.5 -47zM110 822h-92v20h92v-20z" />
    <glyph glyph-name="imacron" unicode="&#x12b;" 
d="M0 0q14 9 20.5 23.5t6.5 47.5v293q0 25 -5 41t-9 20t-13 10q33 2 63 18q27 15 44 32v-414q0 -33 8 -49q4 -11 19 -22h-134zM98 591h-92v20h92v-20z" />
    <glyph glyph-name="Ibreve" unicode="&#x12c;" 
d="M107 607v-537q0 -33 6.5 -47t20.5 -23h-134q14 9 20 23t6 47v537q0 33 -6 47t-20 23h134q-14 -9 -20.5 -23t-6.5 -47zM64 820q-22 0 -38 16t-16 38h20q0 -14 10 -23.5t24 -9.5t23.5 9.5t9.5 23.5h20q0 -22 -15.5 -38t-37.5 -16z" />
    <glyph glyph-name="ibreve" unicode="&#x12d;" 
d="M0 0q14 9 20.5 23.5t6.5 47.5v293q0 25 -5 41t-9 20t-13 10q33 2 63 18q27 15 44 32v-414q0 -33 8 -49q4 -11 19 -22h-134zM54 591q-22 0 -38 15.5t-16 38.5h20q0 -14 10 -23.5t24 -9.5t23.5 9.5t9.5 23.5h20q0 -22 -15.5 -38t-37.5 -16z" />
    <glyph glyph-name="Iogonek" unicode="&#x12e;" 
d="M97 0h-97q11 7 19 21q7 13 7 49v537q0 36 -7 49q-8 14 -19 21h134q-12 -7 -20 -21q-7 -13 -7 -49v-537q0 -36 7 -49q8 -14 20 -21h-19v-19h-2q-13 0 -20 -6q-9 -7 -9 -15q0 -9 9 -15q7 -7 20 -7q11 0 19 5l8 -18q-11 -7 -27 -7q-22 0 -35 13q-15 12 -15 29q0 27 34 39v1z
" />
    <glyph glyph-name="iogonek" unicode="&#x12f;" 
d="M107 584q0 -21 -15 -36t-36 -15t-36 15q-16 15 -16 36q0 22 16 37q15 15 36 15t36 -15t15 -37zM95 -1v1h-95q12 7 20 21q7 13 7 50v293q0 29 -4 41q-4 13 -9 19q-4 4 -12 10q-1 0 -2 1q24 1 63 18q30 17 44 32v-414q0 -35 8 -49q6 -15 19 -22h-21v-19h-3q-12 0 -20 -6
q-9 -7 -9 -15q0 -9 9 -15q7 -7 20 -7q11 0 19 5l8 -18q-11 -7 -27 -7q-21 0 -34 13q-15 12 -15 29q0 27 34 39z" />
    <glyph glyph-name="Idotaccent" unicode="&#x130;" 
d="M107 607v-537q0 -33 6.5 -47t20.5 -23h-134q14 9 20 23t6 47v537q0 33 -6 47t-20 23h134q-14 -9 -20.5 -23t-6.5 -47zM67 818q-18 0 -31 13t-13 31q0 19 13 32t31 13q19 0 32 -13t13 -32q0 -18 -13 -31t-32 -13z" />
    <glyph glyph-name="idotless" unicode="&#x131;" 
d="M0 0q14 9 20.5 23.5t6.5 47.5v293q0 25 -5 41t-9 20t-13 10q33 2 63 18q27 15 44 32v-414q0 -33 8 -49q4 -11 19 -22h-134z" />
    <glyph glyph-name="Lslash" unicode="&#x141;" horiz-adv-x="403" 
d="M108 325v-315h42q76 0 137 36q60 35 86 91l-13 -137h-360q1 0 2 1q7 3 12 10q4 6 9 20q4 12 4 39v255h-120v27h120v255q0 36 -7 49q-8 14 -20 21h134q-12 -7 -19 -22q-7 -13 -7 -48v-255h90v-27h-90z" />
    <glyph glyph-name="lslash" unicode="&#x142;" 
d="M212 330h-105v-259q0 -36 7 -49q8 -15 20 -22h-134q11 7 19 21q7 13 7 50v259h-105v27h105v210q0 27 -3 40q-4 13 -10 20q-6 6 -12 9q0 1 -1 1q24 2 63 19q32 18 44 32v-331h105v-27z" />
    <glyph glyph-name="Nacute" unicode="&#x143;" horiz-adv-x="433" 
d="M329 677h74q-13 -8 -18 -13t-9.5 -19t-4.5 -38v-607h-10l-319 620v-550q0 -35 8 -49q6 -9 23 -21h-73q13 8 18 13t9.5 19t4.5 38v537q0 23 -11 43t-21 27h104l257 -501v431q0 14 -2 25t-4 17.5t-6.5 12t-6 7t-7.5 5.5zM259 907l-66 -89h-20l56 89h30z" />
    <glyph glyph-name="nacute" unicode="&#x144;" horiz-adv-x="416" 
d="M386 0h-134q14 9 20.5 23.5t6.5 47.5v273q0 57 -19.5 84.5t-49.5 27.5q-29 0 -58.5 -23t-44.5 -58v-304q0 -35 7 -49q4 -11 19 -22h-133q14 9 20 23.5t6 47.5v293q0 25 -4.5 41t-8.5 20t-13 10q32 2 62 18q25 13 45 33v-72q20 35 55 54.5t73 19.5q52 0 88.5 -30.5
t36.5 -103.5v-283q0 -35 7 -49q4 -11 19 -22zM250 677l-66 -89h-20l56 89h30z" />
    <glyph glyph-name="Ncaron" unicode="&#x147;" horiz-adv-x="433" 
d="M329 677h74q-13 -8 -18 -13t-9.5 -19t-4.5 -38v-607h-10l-319 620v-550q0 -35 8 -49q6 -9 23 -21h-73q13 8 18 13t9.5 19t4.5 38v537q0 23 -11 43t-21 27h104l257 -501v431q0 14 -2 25t-4 17.5t-6.5 12t-6 7t-7.5 5.5zM127 907h20l55 -74l54 74h21l-56 -89h-38z" />
    <glyph glyph-name="ncaron" unicode="&#x148;" horiz-adv-x="416" 
d="M386 0h-134q14 9 20.5 23.5t6.5 47.5v273q0 57 -19.5 84.5t-49.5 27.5q-29 0 -58.5 -23t-44.5 -58v-304q0 -35 7 -49q4 -11 19 -22h-133q14 9 20 23.5t6 47.5v293q0 25 -4.5 41t-8.5 20t-13 10q32 2 62 18q25 13 45 33v-72q20 35 55 54.5t73 19.5q52 0 88.5 -30.5
t36.5 -103.5v-283q0 -35 7 -49q4 -11 19 -22zM118 677h20l55 -74l54 74h21l-56 -89h-38z" />
    <glyph glyph-name="Omacron" unicode="&#x14c;" horiz-adv-x="513" 
d="M241 680q114 0 178 -98t64 -244q0 -145 -64 -243t-178 -98q-76 0 -132 47.5t-82.5 123.5t-26.5 170q0 145 63.5 243.5t177.5 98.5zM241 7q74 0 117.5 94.5t43.5 236.5t-43.5 237t-117.5 95t-117 -95t-43 -237t43 -236.5t117 -94.5zM287 822h-92v20h92v-20z" />
    <glyph glyph-name="omacron" unicode="&#x14d;" horiz-adv-x="446" 
d="M208 488q99 0 153.5 -70.5t54.5 -174.5t-54.5 -174.5t-153.5 -70.5t-153.5 70.5t-54.5 174.5t54.5 174.5t153.5 70.5zM208 8q60 0 95.5 67t35.5 168t-35.5 168t-95.5 67t-95.5 -67t-35.5 -168t35.5 -168t95.5 -67zM255 592h-92v20h92v-20z" />
    <glyph glyph-name="Obreve" unicode="&#x14e;" horiz-adv-x="513" 
d="M241 680q114 0 178 -98t64 -244q0 -145 -64 -243t-178 -98q-76 0 -132 47.5t-82.5 123.5t-26.5 170q0 145 63.5 243.5t177.5 98.5zM241 7q74 0 117.5 94.5t43.5 236.5t-43.5 237t-117.5 95t-117 -95t-43 -237t43 -236.5t117 -94.5zM242 820q-22 0 -38 16t-16 38h20
q0 -14 10 -23.5t24 -9.5t23.5 9.5t9.5 23.5h20q0 -22 -15.5 -38t-37.5 -16z" />
    <glyph glyph-name="obreve" unicode="&#x14f;" horiz-adv-x="446" 
d="M208 488q99 0 153.5 -70.5t54.5 -174.5t-54.5 -174.5t-153.5 -70.5t-153.5 70.5t-54.5 174.5t54.5 174.5t153.5 70.5zM208 8q60 0 95.5 67t35.5 168t-35.5 168t-95.5 67t-95.5 -67t-35.5 -168t35.5 -168t95.5 -67zM208 591q-22 0 -37.5 16t-15.5 38h20q0 -14 9.5 -23.5
t23.5 -9.5t23.5 9.5t9.5 23.5h20q0 -22 -15.5 -38t-37.5 -16z" />
    <glyph glyph-name="Odoubleacute" unicode="&#x150;" horiz-adv-x="513" 
d="M241 680q114 0 178 -98t64 -244q0 -145 -64 -243t-178 -98q-76 0 -132 47.5t-82.5 123.5t-26.5 170q0 145 63.5 243.5t177.5 98.5zM241 7q74 0 117.5 94.5t43.5 236.5t-43.5 237t-117.5 95t-117 -95t-43 -237t43 -236.5t117 -94.5zM285 907l-66 -89h-20l56 89h30z
M326 907l-66 -89h-20l56 89h30z" />
    <glyph glyph-name="odoubleacute" unicode="&#x151;" horiz-adv-x="446" 
d="M208 488q99 0 153.5 -70.5t54.5 -174.5t-54.5 -174.5t-153.5 -70.5t-153.5 70.5t-54.5 174.5t54.5 174.5t153.5 70.5zM208 8q60 0 95.5 67t35.5 168t-35.5 168t-95.5 67t-95.5 -67t-35.5 -168t35.5 -168t95.5 -67zM252 677l-66 -89h-20l56 89h30zM293 677l-66 -89h-20
l56 89h30z" />
    <glyph glyph-name="OE" unicode="&#x152;" horiz-adv-x="709" 
d="M311 41q2 16 2 29v537q0 13 -2 29q-33 34 -77 34q-50 0 -86 -45q-35 -44 -55 -120q-19 -73 -19 -167q0 -93 19 -166q20 -77 55 -120q36 -45 86 -45q44 0 77 34zM394 71v-61h62q76 0 137 36q60 35 86 91l-12 -137h-381l6 4q-25 -7 -58 -7q-79 0 -132 47q-54 46 -81 125
q-28 77 -28 169q0 93 28 170q27 79 81 125q53 47 132 47q33 0 58 -7q0 1 -2 2l-2 1q-1 1 -2 1h360l11 -112q-22 43 -73 73q-53 29 -128 29h-62v-282h80q50 3 82 26q37 27 50 75v-215q-13 47 -50 76q-32 23 -81 26q1 -11 1 -35q0 -91 -27 -169q-22 -59 -55 -98z" />
    <glyph glyph-name="oe" unicode="&#x153;" horiz-adv-x="773" 
d="M208 8q62 0 97 69q34 67 34 166q0 98 -34 166q-35 69 -97 69t-97 -69q-34 -68 -34 -166q0 -99 34 -166q35 -69 97 -69zM548 478q-59 0 -92 -59q-35 -60 -39 -151h250q-5 65 -17 106q-14 50 -38 76q-25 28 -64 28zM378 92q-23 -37 -55 -60q-46 -34 -115 -34t-115 34
q-47 34 -69 90q-24 56 -24 121t24 121q22 56 69 90q46 34 115 34t115 -34q30 -22 55 -60q23 38 55 60q46 34 115 34q64 0 107 -32q41 -31 64 -84q21 -52 24 -114h-326v-15q0 -78 24 -124q24 -47 61 -69t76 -22q42 0 78 24q35 22 58 71h19q-23 -55 -69 -90q-47 -35 -116 -35
t-115 34q-34 23 -55 60z" />
    <glyph glyph-name="Racute" unicode="&#x154;" horiz-adv-x="471" 
d="M264 278q46 -11 75 -48.5t39 -78t26 -86t37 -65.5h-102q-24 18 -35 54t-15.5 72t-13 70t-34.5 55.5t-73 21.5h-60v-203q0 -54 26 -70h-134q14 9 20.5 23t6.5 47v537q0 26 -6 42.5t-9 19t-12 8.5h219q83 0 137.5 -58.5t54.5 -143.5q0 -72 -41 -127t-106 -70zM168 667h-60
v-384h60q77 0 119.5 54.5t42.5 137.5t-42.5 137.5t-119.5 54.5zM273 907l-66 -89h-20l56 89h30z" />
    <glyph glyph-name="racute" unicode="&#x155;" horiz-adv-x="342" 
d="M216 488q46 0 96 -41l-66 -74q-7 25 -26.5 42.5t-41.5 17.5q-25 0 -44.5 -28.5t-25.5 -90.5v-243q0 -35 7 -49q4 -11 19 -22h-134q14 9 20.5 23.5t6.5 47.5v293q0 25 -5 41t-9 20t-13 10q33 2 63 18q24 13 45 32v-107q12 48 42 79t66 31zM213 677l-66 -89h-20l56 89h30z
" />
    <glyph glyph-name="Rcaron" unicode="&#x158;" horiz-adv-x="471" 
d="M264 278q46 -11 75 -48.5t39 -78t26 -86t37 -65.5h-102q-24 18 -35 54t-15.5 72t-13 70t-34.5 55.5t-73 21.5h-60v-203q0 -54 26 -70h-134q14 9 20.5 23t6.5 47v537q0 26 -6 42.5t-9 19t-12 8.5h219q83 0 137.5 -58.5t54.5 -143.5q0 -72 -41 -127t-106 -70zM168 667h-60
v-384h60q77 0 119.5 54.5t42.5 137.5t-42.5 137.5t-119.5 54.5zM141 907h20l55 -74l54 74h21l-56 -89h-38z" />
    <glyph glyph-name="rcaron" unicode="&#x159;" horiz-adv-x="342" 
d="M216 488q46 0 96 -41l-66 -74q-7 25 -26.5 42.5t-41.5 17.5q-25 0 -44.5 -28.5t-25.5 -90.5v-243q0 -35 7 -49q4 -11 19 -22h-134q14 9 20.5 23.5t6.5 47.5v293q0 25 -5 41t-9 20t-13 10q33 2 63 18q24 13 45 32v-107q12 48 42 79t66 31zM81 677h20l55 -74l54 74h21
l-56 -89h-38z" />
    <glyph glyph-name="Sacute" unicode="&#x15a;" horiz-adv-x="473" 
d="M443 178q0 -26 -11.5 -55t-35 -58.5t-68 -48.5t-102.5 -19q-104 0 -159.5 56t-66.5 135l69 37q0 -40 7 -75.5t23.5 -69t49 -53.5t77.5 -20q51 0 93 38.5t42 101.5q0 50 -36.5 86t-88 58.5t-103 47.5t-88 69t-36.5 107q0 29 10.5 56t32 52.5t61.5 41t93 15.5
q62 0 113.5 -33.5t67.5 -83.5l-66 -35q0 63 -33.5 102.5t-81.5 39.5q-47 0 -80.5 -36t-33.5 -90q0 -46 36 -79.5t87.5 -56.5t103.5 -49t88 -71.5t36 -109.5zM279 907l-66 -89h-20l56 89h30z" />
    <glyph glyph-name="Scircumflex" unicode="&#x15c;" horiz-adv-x="473" 
d="M443 178q0 -26 -11.5 -55t-35 -58.5t-68 -48.5t-102.5 -19q-104 0 -159.5 56t-66.5 135l69 37q0 -40 7 -75.5t23.5 -69t49 -53.5t77.5 -20q51 0 93 38.5t42 101.5q0 50 -36.5 86t-88 58.5t-103 47.5t-88 69t-36.5 107q0 29 10.5 56t32 52.5t61.5 41t93 15.5
q62 0 113.5 -33.5t67.5 -83.5l-66 -35q0 63 -33.5 102.5t-81.5 39.5q-47 0 -80.5 -36t-33.5 -90q0 -46 36 -79.5t87.5 -56.5t103.5 -49t88 -71.5t36 -109.5zM297 818h-21l-54 73l-55 -73h-20l56 89h38z" />
    <glyph glyph-name="scircumflex" unicode="&#x15d;" horiz-adv-x="358" 
d="M328 128q0 -63 -43 -96.5t-123 -33.5q-139 0 -162 137l64 33q0 -32 3 -55t12 -49.5t30 -40.5t53 -14q35 0 61 24t26 62q0 36 -25 65t-60.5 49t-71.5 40t-61 50.5t-25 68.5q0 55 40.5 87.5t111.5 32.5q48 0 84.5 -24t45.5 -60l-58 -31q0 47 -19.5 75.5t-52.5 28.5
q-29 0 -50.5 -24.5t-21.5 -62.5q0 -33 25 -57t60.5 -40.5t71 -35t60.5 -51t25 -78.5zM239 588h-21l-54 73l-55 -73h-20l56 89h38z" />
    <glyph glyph-name="Scedilla" unicode="&#x15e;" horiz-adv-x="473" 
d="M204 -29l10 26q-69 3 -111 29q-47 28 -72 73q-25 43 -31 89l69 37q0 -51 13 -99q14 -51 47 -84q35 -35 97 -35q30 0 62 17t52 47q21 31 21 76q0 44 -23 73q-23 28 -60 49q-40 23 -80 39q-50 23 -90 46q-42 24 -71 63q-28 37 -28 98q0 36 19 74q19 39 61 65q44 26 117 26
q63 0 114 -33q51 -35 67 -84l-66 -35q-1 66 -35 104q-33 38 -80 38q-45 0 -80 -35q-34 -35 -34 -91q0 -40 22 -65q23 -28 57 -47q35 -20 76 -38q48 -21 93 -48q46 -28 74 -66q29 -41 29 -102q0 -29 -20 -74q-19 -43 -67 -75q-45 -30 -124 -32l-5 -9q29 -14 29 -38
q0 -17 -14 -29q-14 -13 -36 -13q-15 0 -26 7l8 18q8 -5 18 -5q13 0 21 7q9 6 9 15q0 8 -9 15q-9 6 -21 6h-2z" />
    <glyph glyph-name="scedilla" unicode="&#x15f;" horiz-adv-x="358" 
d="M151 -29l10 27q-54 0 -86 19q-35 20 -52 50q-19 33 -23 68l64 33q0 -34 6 -72q4 -36 26 -62q21 -25 66 -25q33 0 61 23q26 23 26 63q0 33 -17 56q-18 23 -45 42q-23 15 -57 34q-21 11 -59 37q-29 20 -46 44q-19 25 -19 60q0 55 41 88q41 32 111 32q48 0 85 -23
q35 -24 45 -61l-58 -31q-5 104 -72 104q-28 0 -50 -24q-22 -23 -22 -63q0 -28 16 -47q15 -19 39 -33q27 -15 52 -27q39 -19 64 -35q33 -20 51 -47q20 -29 20 -73q0 -64 -43 -97q-37 -29 -105 -33l-6 -10q29 -14 29 -38q0 -17 -14 -29q-14 -13 -36 -13q-15 0 -26 7l8 18
q8 -5 18 -5q13 0 21 7q9 6 9 15q0 8 -9 15q-9 6 -21 6h-2z" />
    <glyph glyph-name="Scaron" unicode="&#x160;" horiz-adv-x="473" 
d="M443 178q0 -26 -11.5 -55t-35 -58.5t-68 -48.5t-102.5 -19q-104 0 -159.5 56t-66.5 135l69 37q0 -40 7 -75.5t23.5 -69t49 -53.5t77.5 -20q51 0 93 38.5t42 101.5q0 50 -36.5 86t-88 58.5t-103 47.5t-88 69t-36.5 107q0 29 10.5 56t32 52.5t61.5 41t93 15.5
q62 0 113.5 -33.5t67.5 -83.5l-66 -35q0 63 -33.5 102.5t-81.5 39.5q-47 0 -80.5 -36t-33.5 -90q0 -46 36 -79.5t87.5 -56.5t103.5 -49t88 -71.5t36 -109.5zM147 907h20l55 -74l54 74h21l-56 -89h-38z" />
    <glyph glyph-name="scaron" unicode="&#x161;" horiz-adv-x="358" 
d="M328 128q0 -63 -43 -96.5t-123 -33.5q-139 0 -162 137l64 33q0 -32 3 -55t12 -49.5t30 -40.5t53 -14q35 0 61 24t26 62q0 36 -25 65t-60.5 49t-71.5 40t-61 50.5t-25 68.5q0 55 40.5 87.5t111.5 32.5q48 0 84.5 -24t45.5 -60l-58 -31q0 47 -19.5 75.5t-52.5 28.5
q-29 0 -50.5 -24.5t-21.5 -62.5q0 -33 25 -57t60.5 -40.5t71 -35t60.5 -51t25 -78.5zM89 677h20l55 -74l54 74h21l-56 -89h-38z" />
    <glyph glyph-name="Tcaron" unicode="&#x164;" horiz-adv-x="477" 
d="M437 677l10 -153q-26 50 -73.5 93t-109.5 49v-596q0 -30 7 -49q7 -14 20 -21h-134q14 9 20 23t6 47v596q-61 -6 -109.5 -49t-73.5 -93l10 153h427zM149 907h20l55 -74l54 74h21l-56 -89h-38z" />
    <glyph glyph-name="tcaron" unicode="&#x165;" horiz-adv-x="238" 
d="M122 475v-389q0 -50 42 -50q10 0 21 3t17 5l6 3q-5 -5 -13 -13.5t-32.5 -22t-47.5 -13.5q-74 0 -74 98v379h-41v10q45 7 75.5 44.5t35.5 86.5h11v-131h86v-10h-86zM240 536q11 6 13 23q-6 -3 -12 -3q-13 0 -23 8.5t-10 22.5t10 23t23 9q18 0 27.5 -11t9.5 -27
q0 -18 -10.5 -31.5t-27.5 -13.5z" />
    <glyph glyph-name="Utilde" unicode="&#x168;" horiz-adv-x="433" 
d="M329 677h74q-13 -8 -18 -13t-9.5 -19t-4.5 -38v-435q0 -71 -50.5 -121.5t-121.5 -50.5q-72 0 -122.5 50.5t-50.5 121.5v435q0 33 -6 47t-20 23h134q-9 -6 -13.5 -10t-9 -19t-4.5 -41v-420q0 -71 39.5 -109t97.5 -38t87.5 44t29.5 103v420q0 14 -2 25t-4 17.5t-6.5 12
t-6 7t-7.5 5.5zM235 832q-12 0 -22 7q-3 2 -18 17q-16 20 -35 20q-15 0 -38 -14q16 30 46 30q10 0 21 -6q8 -4 24 -20.5t28 -17.5h2q13 0 37 14q-14 -30 -45 -30z" />
    <glyph glyph-name="utilde" unicode="&#x169;" horiz-adv-x="417" 
d="M387 13q-52 -6 -75 -8h-3q-30 0 -30 30v39q-21 -35 -56 -55.5t-72 -20.5q-52 0 -88.5 31.5t-36.5 104.5v283q0 25 -4.5 41t-8.5 20t-13 10h107v-344q0 -57 19.5 -84.5t49.5 -27.5q29 0 58.5 23t44.5 58v304q0 25 -4.5 41t-8.5 20t-13 10h107v-415q0 -29 6 -41t21 -19z
M227 602q-12 0 -22 7q-3 2 -18 17q-16 20 -35 20q-15 0 -38 -14q16 30 46 30q10 0 21 -6q8 -4 24 -20.5t28 -17.5h2q13 0 37 14q-14 -30 -45 -30z" />
    <glyph glyph-name="Umacron" unicode="&#x16a;" horiz-adv-x="433" 
d="M329 677h74q-13 -8 -18 -13t-9.5 -19t-4.5 -38v-435q0 -71 -50.5 -121.5t-121.5 -50.5q-72 0 -122.5 50.5t-50.5 121.5v435q0 33 -6 47t-20 23h134q-9 -6 -13.5 -10t-9 -19t-4.5 -41v-420q0 -71 39.5 -109t97.5 -38t87.5 44t29.5 103v420q0 14 -2 25t-4 17.5t-6.5 12
t-6 7t-7.5 5.5zM246 821h-92v20h92v-20z" />
    <glyph glyph-name="umacron" unicode="&#x16b;" horiz-adv-x="417" 
d="M387 13q-52 -6 -75 -8h-3q-30 0 -30 30v39q-21 -35 -56 -55.5t-72 -20.5q-52 0 -88.5 31.5t-36.5 104.5v283q0 25 -4.5 41t-8.5 20t-13 10h107v-344q0 -57 19.5 -84.5t49.5 -27.5q29 0 58.5 23t44.5 58v304q0 25 -4.5 41t-8.5 20t-13 10h107v-415q0 -29 6 -41t21 -19z
M238 591h-92v20h92v-20z" />
    <glyph glyph-name="Ubreve" unicode="&#x16c;" horiz-adv-x="433" 
d="M329 677h74q-13 -8 -18 -13t-9.5 -19t-4.5 -38v-435q0 -71 -50.5 -121.5t-121.5 -50.5q-72 0 -122.5 50.5t-50.5 121.5v435q0 33 -6 47t-20 23h134q-9 -6 -13.5 -10t-9 -19t-4.5 -41v-420q0 -71 39.5 -109t97.5 -38t87.5 44t29.5 103v420q0 14 -2 25t-4 17.5t-6.5 12
t-6 7t-7.5 5.5zM199 819q-23 0 -38.5 15.5t-15.5 38.5h20q0 -14 10 -23.5t24 -9.5t23.5 9.5t9.5 23.5h20q0 -22 -15.5 -38t-37.5 -16z" />
    <glyph glyph-name="ubreve" unicode="&#x16d;" horiz-adv-x="417" 
d="M387 13q-52 -6 -75 -8h-3q-30 0 -30 30v39q-21 -35 -56 -55.5t-72 -20.5q-52 0 -88.5 31.5t-36.5 104.5v283q0 25 -4.5 41t-8.5 20t-13 10h107v-344q0 -57 19.5 -84.5t49.5 -27.5q29 0 58.5 23t44.5 58v304q0 25 -4.5 41t-8.5 20t-13 10h107v-415q0 -29 6 -41t21 -19z
M193 591q-22 0 -37.5 16t-15.5 38h20q0 -14 9.5 -23.5t23.5 -9.5t23.5 9.5t9.5 23.5h21q0 -23 -15.5 -38.5t-38.5 -15.5z" />
    <glyph glyph-name="Uring" unicode="&#x16e;" horiz-adv-x="433" 
d="M329 677h74q-13 -8 -18 -13t-9.5 -19t-4.5 -38v-435q0 -71 -50.5 -121.5t-121.5 -50.5q-72 0 -122.5 50.5t-50.5 121.5v435q0 33 -6 47t-20 23h134q-9 -6 -13.5 -10t-9 -19t-4.5 -41v-420q0 -71 39.5 -109t97.5 -38t87.5 44t29.5 103v420q0 14 -2 25t-4 17.5t-6.5 12
t-6 7t-7.5 5.5zM201 818q-18 0 -31 13t-13 31q0 19 13 32t31 13q19 0 32 -13t13 -32q0 -18 -13 -31t-32 -13zM201 886q-10 0 -17 -7t-7 -17t7 -17t17 -7t17 7t7 17t-7 17t-17 7z" />
    <glyph glyph-name="uring" unicode="&#x16f;" horiz-adv-x="417" 
d="M387 13q-52 -6 -75 -8h-3q-30 0 -30 30v39q-21 -35 -56 -55.5t-72 -20.5q-52 0 -88.5 31.5t-36.5 104.5v283q0 25 -4.5 41t-8.5 20t-13 10h107v-344q0 -57 19.5 -84.5t49.5 -27.5q29 0 58.5 23t44.5 58v304q0 25 -4.5 41t-8.5 20t-13 10h107v-415q0 -29 6 -41t21 -19z
M193 588q-18 0 -31 13t-13 31q0 19 13 32t31 13q19 0 32 -13t13 -32q0 -18 -13 -31t-32 -13zM193 656q-10 0 -17 -7t-7 -17t7 -17t17 -7t17 7t7 17t-7 17t-17 7z" />
    <glyph glyph-name="Udoubleacute" unicode="&#x170;" horiz-adv-x="433" 
d="M329 677h74q-13 -8 -18 -13t-9.5 -19t-4.5 -38v-435q0 -71 -50.5 -121.5t-121.5 -50.5q-72 0 -122.5 50.5t-50.5 121.5v435q0 33 -6 47t-20 23h134q-9 -6 -13.5 -10t-9 -19t-4.5 -41v-420q0 -71 39.5 -109t97.5 -38t87.5 44t29.5 103v420q0 14 -2 25t-4 17.5t-6.5 12
t-6 7t-7.5 5.5zM245 907l-66 -89h-20l56 89h30zM286 907l-66 -89h-20l56 89h30z" />
    <glyph glyph-name="udoubleacute" unicode="&#x171;" horiz-adv-x="417" 
d="M387 13q-52 -6 -75 -8h-3q-30 0 -30 30v39q-21 -35 -56 -55.5t-72 -20.5q-52 0 -88.5 31.5t-36.5 104.5v283q0 25 -4.5 41t-8.5 20t-13 10h107v-344q0 -57 19.5 -84.5t49.5 -27.5q29 0 58.5 23t44.5 58v304q0 25 -4.5 41t-8.5 20t-13 10h107v-415q0 -29 6 -41t21 -19z
M237 677l-66 -89h-20l56 89h30zM278 677l-66 -89h-20l56 89h30z" />
    <glyph glyph-name="Uogonek" unicode="&#x172;" horiz-adv-x="433" 
d="M234 3q-16 -3 -35 -3q-73 0 -122 51q-51 50 -51 121v435q0 36 -7 49q-8 14 -19 21h134q-1 0 -2 -1q-7 -3 -11 -9q-6 -7 -10 -20q-4 -12 -4 -40v-420q0 -75 42 -111q41 -36 95 -36q43 0 68 22q27 24 38 56q11 36 11 69v420q0 28 -4 40t-11 19q-6 6 -12 9q-1 0 -2.5 0.5
t-2.5 1.5h74l-1 -1q-2 0 -2 -1q-13 -7 -21 -20t-8 -48v-435q0 -71 -50 -121q-31 -31 -68 -43v-28h-2q-13 0 -20 -6q-9 -8 -9 -15q0 -9 9 -15q7 -7 20 -7q10 0 18 5l9 -18q-11 -7 -27 -7q-22 0 -35 13q-15 12 -15 29q0 27 34 39z" />
    <glyph glyph-name="uogonek" unicode="&#x173;" horiz-adv-x="417" 
d="M360 10q-35 -4 -48 -5h-3q-12 0 -21 6q-9 7 -9 24v39q-23 -37 -57 -56q-35 -20 -71 -20q-29 0 -58 12t-48 42q-19 28 -19 82v283q0 27 -3 41q-4 13 -9 19q-4 4 -12 10q-1 0 -2 1h107v-344q0 -62 21 -88q20 -24 47 -24h17q17 2 44 23q27 22 43 58v304q0 27 -3 41
q-4 14 -10 19q-4 4 -12 10q-1 0 -1 1h107v-415q0 -31 7 -42q6 -12 20 -18l-8 -1v-32h-2q-12 0 -21 -6q-9 -8 -9 -15q0 -9 9 -15q8 -7 21 -7q10 0 18 5l8 -18q-11 -7 -26 -7q-22 0 -35 13q-15 12 -15 29q0 27 34 39z" />
    <glyph glyph-name="Wcircumflex" unicode="&#x174;" horiz-adv-x="737" 
d="M613 677h94q-33 -23 -46 -77l-163 -600h-10q-79 276 -134 467l-126 -467h-11q-129 450 -171 600q-17 59 -46 77h144q-18 -15 -18 -46q0 -18 4 -31l128 -449q47 173 91 336q-18 64 -32 113q-17 59 -46 77h144q-19 -15 -19 -45q0 -14 5 -32l128 -449q91 337 121 449
q3 12 3 22q0 40 -40 55zM429 818h-21l-54 73l-55 -73h-20l56 89h38z" />
    <glyph glyph-name="wcircumflex" unicode="&#x175;" horiz-adv-x="572" 
d="M449 485h93q-32 -20 -48 -75l-111 -410h-11q-54 159 -98 287l-77 -287h-11q-105 307 -141 409q-13 36 -19 47q-12 22 -26 29h134q-13 -9 -13 -30q0 -18 10 -46l90 -269q24 86 46 166q-27 78 -36 103q-22 65 -45 76h134q-12 -9 -12 -30q0 -15 9 -46l90 -269q54 196 76 269
q4 12 4 26q0 40 -38 50zM346 588h-21l-54 73l-55 -73h-20l56 89h38z" />
    <glyph glyph-name="Ycircumflex" unicode="&#x176;" horiz-adv-x="454" 
d="M258 21q5 -12 19 -21h-134q14 9 20.5 23t6.5 47v271q-92 198 -123 264q-24 52 -47 72h134q-9 -7 -9 -27t11 -45l109 -234l112 234q5 9 5 23q0 35 -32 49h94q-32 -21 -56 -72l-117 -246v-289q0 -34 7 -49zM287 818h-21l-54 73l-55 -73h-20l56 89h38z" />
    <glyph glyph-name="ycircumflex" unicode="&#x177;" horiz-adv-x="407" 
d="M284 486h93q-30 -18 -48 -75l-131 -410q-14 -43 -28 -73.5t-36 -62.5t-53 -49t-69 -17l32 100q8 -2 21 -2q88 0 122 104q-106 307 -141 409q-22 65 -46 76h134q-12 -9 -12 -30q0 -15 9 -46l97 -281q68 211 90 281q4 12 4 26q0 40 -38 50zM264 588h-21l-54 73l-55 -73h-20
l56 89h38z" />
    <glyph glyph-name="Ydieresis" unicode="&#x178;" horiz-adv-x="454" 
d="M258 21q5 -12 19 -21h-134q14 9 20.5 23t6.5 47v271q-92 198 -123 264q-24 52 -47 72h134q-9 -7 -9 -27t11 -45l109 -234l112 234q5 9 5 23q0 35 -32 49h94q-32 -21 -56 -72l-117 -246v-289q0 -34 7 -49zM262 818q-18 0 -31 13t-13 31q0 19 13 32t31 13q19 0 32 -13
t13 -32q0 -18 -13 -31t-32 -13zM161 818q-18 0 -31 13t-13 31q0 19 13 32t31 13q19 0 32 -13t13 -32q0 -18 -13 -31t-32 -13z" />
    <glyph glyph-name="Zacute" unicode="&#x179;" horiz-adv-x="414" 
d="M91 10h93q72 0 124.5 28.5t75.5 73.5l-10 -112h-374l271 667h-51q-72 0 -124.5 -28.5t-75.5 -73.5l10 112h333zM249 907l-66 -89h-20l56 89h30z" />
    <glyph glyph-name="zacute" unicode="&#x17a;" horiz-adv-x="364" 
d="M95 10h81q54 0 95.5 30.5t62.5 77.5v-118h-334l234 475h-66q-102 0 -150 -89l12 99h299zM224 677l-66 -89h-20l56 89h30z" />
    <glyph glyph-name="Zdotaccent" unicode="&#x17b;" horiz-adv-x="414" 
d="M91 10h93q72 0 124.5 28.5t75.5 73.5l-10 -112h-374l271 667h-51q-72 0 -124.5 -28.5t-75.5 -73.5l10 112h333zM192 818q-18 0 -31 13t-13 31q0 19 13 32t31 13q19 0 32 -13t13 -32q0 -18 -13 -31t-32 -13z" />
    <glyph glyph-name="zdotaccent" unicode="&#x17c;" horiz-adv-x="364" 
d="M95 10h81q54 0 95.5 30.5t62.5 77.5v-118h-334l234 475h-66q-102 0 -150 -89l12 99h299zM167 588q-18 0 -31 13t-13 31q0 19 13 32t31 13q19 0 32 -13t13 -32q0 -18 -13 -31t-32 -13z" />
    <glyph glyph-name="Zcaron" unicode="&#x17d;" horiz-adv-x="414" 
d="M91 10h93q72 0 124.5 28.5t75.5 73.5l-10 -112h-374l271 667h-51q-72 0 -124.5 -28.5t-75.5 -73.5l10 112h333zM117 907h20l55 -74l54 74h21l-56 -89h-38z" />
    <glyph glyph-name="zcaron" unicode="&#x17e;" horiz-adv-x="364" 
d="M95 10h81q54 0 95.5 30.5t62.5 77.5v-118h-334l234 475h-66q-102 0 -150 -89l12 99h299zM92 677h20l55 -74l54 74h21l-56 -89h-38z" />
    <glyph glyph-name="AEacute" unicode="&#x1fc;" horiz-adv-x="663" 
d="M178 525q0 -2 -2 -8t-4.5 -16.5t-5.5 -21.5q-7 -23 -31 -117q-7 -26 -20 -73.5t-18 -65.5h168q-14 47 -40 139q-19 69 -33 117h-1v3h-1v3l-1 1v1q0 1 -1 2v2q0 1 -1 2v1q-2 7 -4 14.5t-3.5 11.5t-1.5 5zM347 231q10 -34 24 -85t19 -69q12 -44 33 -67q69 3 124 36
q60 35 86 91l-13 -137h-380q11 7 19 21q7 13 7 49v143h-172q-3 -9 -37 -136q-3 -12 -3 -22q0 -38 40 -55h-94q35 26 47 77q18 72 42 157q28 105 54 200q19 72 47 172v4h1v3h1v4q1 0 1 1v3h1v3q1 1 1 2v1q0 1 1 1v3l1 1v2q0 1 1 1v2q3 9 5.5 18.5t4 14t1.5 6.5v1h10v-1
q1 -3 21 -70q8 -30 26 -92v93q0 28 -4 40q-5 15 -10 20q-7 7 -10 9q-1 1 -2 1h360l10 -112q-22 43 -73 73q-53 29 -127 29h-63v-283h63q62 0 99 27t50 75v-215q-13 47 -50 76q-37 27 -99 27h-63v-143zM382 907l-66 -89h-20l56 89h30z" />
    <glyph glyph-name="aeacute" unicode="&#x1fd;" horiz-adv-x="644" 
d="M337 13l2 -2q3 -4 11 -10q1 0 2 -1h-87q-9 0 -15 6t-6 14v31q-14 -20 -41 -36q-29 -17 -73 -17q-53 0 -91 34q-39 34 -39 105q0 53 32 102q30 46 88 79q48 26 108 30l6 16l8 18q-3 33 -18 59q-20 35 -59 35q-29 0 -58 -23q-30 -25 -43 -80l-54 61q20 20 67 38
q42 16 88 16q36 0 75 -14q26 -10 49 -31q3 2 7 5.5t7 5.5q46 34 115 34q65 0 108 -32q42 -32 63 -84q20 -51 25 -114h-289v-163q19 -29 48 -45q37 -22 76 -22q41 0 78 24q36 22 57 71h19q-23 -57 -68 -90q-47 -35 -117 -35q-45 0 -81 15zM317 401q8 -22 8 -47v-86h212
q-3 62 -16 106q-14 48 -39 76t-64 28q-57 0 -92 -59zM244 100l-10 22q-23 57 -23 121q0 46 12 88q-25 -4 -52 -21q-39 -22 -66 -68q-28 -44 -28 -110q0 -44 27 -70q26 -26 68 -26q20 0 33 6q11 5 22 14q7 6 13 14l2 4l1 1l1 1v24zM364 677l-66 -89h-20l56 89h30z" />
    <glyph glyph-name="circumflexmod" unicode="&#x2c6;" horiz-adv-x="180" 
d="M150 588h-21l-54 73l-55 -73h-20l56 89h38z" />
    <glyph glyph-name="caronmod" unicode="&#x2c7;" horiz-adv-x="180" 
d="M0 677h20l55 -74l54 74h21l-56 -89h-38z" />
    <glyph glyph-name="brevemod" unicode="&#x2d8;" horiz-adv-x="137" 
d="M54 591q-22 0 -38 15.5t-16 38.5h20q0 -14 10 -23.5t24 -9.5t23.5 9.5t9.5 23.5h20q0 -22 -15.5 -38t-37.5 -16z" />
    <glyph glyph-name="dotaccentmod" unicode="&#x2d9;" horiz-adv-x="119" 
d="M44 588q-18 0 -31 13t-13 31q0 19 13 32t31 13q19 0 32 -13t13 -32q0 -18 -13 -31t-32 -13z" />
    <glyph glyph-name="ringmod" unicode="&#x2da;" horiz-adv-x="119" 
d="M44 588q-18 0 -31 13t-13 31q0 19 13 32t31 13q19 0 32 -13t13 -32q0 -18 -13 -31t-32 -13zM44 656q-10 0 -17 -7t-7 -17t7 -17t17 -7t17 7t7 17t-7 17t-17 7z" />
    <glyph glyph-name="ogonekmod" unicode="&#x2db;" horiz-adv-x="106" 
d="M49 -83q-20 0 -34.5 12.5t-14.5 29.5q0 13 9.5 24t24.5 15l-3 16h21v-34h-3q-12 0 -20.5 -6.5t-8.5 -14.5q0 -9 8.5 -15.5t20.5 -6.5q11 0 19 5l8 -18q-11 -7 -27 -7z" />
    <glyph glyph-name="tildemod" unicode="&#x2dc;" horiz-adv-x="188" 
d="M113 602q-12 0 -22 7q-3 2 -18 17q-16 20 -35 20q-15 0 -38 -14q16 30 46 30q10 0 21 -6q8 -4 24 -20.5t28 -17.5h2q13 0 37 14q-14 -30 -45 -30z" />
    <glyph glyph-name="doubleacutemod" unicode="&#x2dd;" horiz-adv-x="157" 
d="M86 677l-66 -89h-20l56 89h30zM127 677l-66 -89h-20l56 89h30z" />
    <glyph glyph-name="gravecomb" unicode="&#x300;" horiz-adv-x="116" 
d="M0 677h30l56 -89h-20z" />
    <glyph glyph-name="acutecomb" unicode="&#x301;" horiz-adv-x="116" 
d="M86 677l-66 -89h-20l56 89h30z" />
    <glyph glyph-name="circumflexcomb" unicode="&#x302;" horiz-adv-x="180" 
d="M150 588h-21l-54 73l-55 -73h-20l56 89h38z" />
    <glyph glyph-name="tildecomb" unicode="&#x303;" horiz-adv-x="188" 
d="M113 602q-12 0 -22 7q-3 2 -18 17q-16 20 -35 20q-15 0 -38 -14q16 30 46 30q10 0 21 -6q8 -4 24 -20.5t28 -17.5h2q13 0 37 14q-14 -30 -45 -30z" />
    <glyph glyph-name="macroncomb" unicode="&#x304;" horiz-adv-x="122" 
d="M92 622h-92v20h92v-20z" />
    <glyph glyph-name="dotaccentcomb" unicode="&#x307;" horiz-adv-x="119" 
d="M44 588q-18 0 -31 13t-13 31q0 19 13 32t31 13q19 0 32 -13t13 -32q0 -18 -13 -31t-32 -13z" />
    <glyph glyph-name="dieresiscomb" unicode="&#x308;" horiz-adv-x="220" 
d="M145 588q-18 0 -31 13t-13 31q0 19 13 32t31 13q19 0 32 -13t13 -32q0 -18 -13 -31t-32 -13zM44 588q-18 0 -31 13t-13 31q0 19 13 32t31 13q19 0 32 -13t13 -32q0 -18 -13 -31t-32 -13z" />
    <glyph glyph-name="ringcomb" unicode="&#x30a;" horiz-adv-x="119" 
d="M44 588q-18 0 -31 13t-13 31q0 19 13 32t31 13q19 0 32 -13t13 -32q0 -18 -13 -31t-32 -13zM44 656q-10 0 -17 -7t-7 -17t7 -17t17 -7t17 7t7 17t-7 17t-17 7z" />
    <glyph glyph-name="caroncomb" unicode="&#x30c;" horiz-adv-x="180" 
d="M0 677h20l55 -74l54 74h21l-56 -89h-38z" />
    <glyph glyph-name="cedillacomb" unicode="&#x327;" horiz-adv-x="106" 
d="M57 14l-10 -17q29 -12 29 -38q0 -17 -14.5 -29.5t-35.5 -12.5q-15 0 -26 7l8 18q8 -5 18 -5q12 0 21 6.5t9 15.5q0 8 -9 14.5t-21 6.5h-2l13 34h20z" />
    <glyph glyph-name="endash" unicode="&#x2013;" horiz-adv-x="275" 
d="M0 156v27h245v-27h-245z" />
    <glyph glyph-name="emdash" unicode="&#x2014;" horiz-adv-x="518" 
d="M0 156v27h488v-27h-488z" />
    <glyph glyph-name="quoteleft" unicode="&#x2018;" horiz-adv-x="100" 
d="M38 676q-11 -6 -13 -23q6 3 12 3q13 0 23 -8.5t10 -22.5t-10 -23t-23 -9q-18 0 -27.5 11t-9.5 27q0 18 10.5 31.5t27.5 13.5z" />
    <glyph glyph-name="quoteright" unicode="&#x2019;" horiz-adv-x="100" 
d="M32 593q11 6 13 23q-6 -3 -12 -3q-13 0 -23 8.5t-10 22.5t10 23t23 9q18 0 27.5 -11t9.5 -27q0 -18 -10.5 -31.5t-27.5 -13.5z" />
    <glyph glyph-name="quotesinglbase" unicode="&#x201a;" horiz-adv-x="100" 
d="M32 -21q11 6 13 23q-6 -3 -12 -3q-13 0 -23 8.5t-10 22.5t10 23t23 9q18 0 27.5 -11t9.5 -27q0 -18 -10.5 -31.5t-27.5 -13.5z" />
    <glyph glyph-name="quotedblleft" unicode="&#x201c;" horiz-adv-x="178" 
d="M116 676q-11 -6 -13 -23q6 3 12 3q13 0 23 -8.5t10 -22.5t-10 -23t-23 -9q-18 0 -27.5 11t-9.5 27q0 18 10.5 31.5t27.5 13.5zM38 676q-11 -6 -13 -23q6 3 12 3q13 0 23 -8.5t10 -22.5t-10 -23t-23 -9q-18 0 -27.5 11t-9.5 27q0 18 10.5 31.5t27.5 13.5z" />
    <glyph glyph-name="quotedblright" unicode="&#x201d;" horiz-adv-x="178" 
d="M32 593q11 6 13 23q-6 -3 -12 -3q-13 0 -23 8.5t-10 22.5t10 23t23 9q18 0 27.5 -11t9.5 -27q0 -18 -10.5 -31.5t-27.5 -13.5zM110 593q11 6 13 23q-6 -3 -12 -3q-13 0 -23 8.5t-10 22.5t10 23t23 9q18 0 27.5 -11t9.5 -27q0 -18 -10.5 -31.5t-27.5 -13.5z" />
    <glyph glyph-name="quotedblbase" unicode="&#x201e;" horiz-adv-x="178" 
d="M32 -21q11 6 13 23q-6 -3 -12 -3q-13 0 -23 8.5t-10 22.5t10 23t23 9q18 0 27.5 -11t9.5 -27q0 -18 -10.5 -31.5t-27.5 -13.5zM110 -21q11 6 13 23q-6 -3 -12 -3q-13 0 -23 8.5t-10 22.5t10 23t23 9q18 0 27.5 -11t9.5 -27q0 -18 -10.5 -31.5t-27.5 -13.5z" />
    <glyph glyph-name="dagger" unicode="&#x2020;" horiz-adv-x="310" 
d="M145 -1h-11l-10 531l-124 -9v32l134 -10l-11 134h33l-10 -134l134 10v-32l-124 9z" />
    <glyph glyph-name="daggerdbl" unicode="&#x2021;" horiz-adv-x="309" 
d="M156 -1h-33l10 134l-133 -10v32l124 -9l10 192l-10 192l-124 -9v32l133 -10l-10 134h33l-10 -134l133 10v-32l-123 9l-11 -192l11 -192l123 9v-32l-133 10z" />
    <glyph glyph-name="bullet" unicode="&#x2022;" 
d="M134 262q0 -28 -19.5 -47.5t-47.5 -19.5t-47.5 19.5t-19.5 47.5t19.5 47.5t47.5 19.5t47.5 -19.5t19.5 -47.5z" />
    <glyph glyph-name="ellipsis" unicode="&#x2026;" horiz-adv-x="845" 
d="M108 53q0 -22 -16 -38t-38 -16t-38 15.5t-16 38.5t16 38.5t38 15.5t38 -16t16 -38zM460 53q0 -22 -16 -38t-38 -16t-38 15.5t-16 38.5t16 38.5t38 15.5t38 -16t16 -38zM815 53q0 -22 -16 -38t-38 -16q-23 0 -38.5 15.5t-15.5 38.5t15.5 38.5t38.5 15.5q22 0 38 -16
t16 -38z" />
    <glyph glyph-name="perthousand" unicode="&#x2030;" horiz-adv-x="875" 
d="M407 676h33l-283 -677h-33zM123 676q61 0 92 -57t31 -139t-31 -139.5t-92 -57.5t-92 57.5t-31 139.5t31 139t92 57zM123 289q37 0 56.5 53.5t19.5 137.5t-19.5 137.5t-56.5 53.5t-57 -54t-20 -137t20 -137t57 -54zM442 392q60 0 91.5 -57.5t31.5 -138.5
q0 -82 -31.5 -139.5t-91.5 -57.5q-61 0 -92 57.5t-31 139.5t31 139t92 57zM442 5q37 0 56.5 53.5t19.5 137.5q0 83 -19.5 136.5t-56.5 53.5t-57 -53.5t-20 -136.5q0 -84 20 -137.5t57 -53.5zM722 5q37 0 56.5 53.5t19.5 137.5q0 83 -19.5 136.5t-56.5 53.5t-57 -53.5
t-20 -136.5q0 -84 20 -137.5t57 -53.5zM722 392q60 0 91.5 -57.5t31.5 -138.5q0 -82 -31.5 -139.5t-91.5 -57.5q-61 0 -92 57.5t-31 139.5t31 139t92 57z" />
    <glyph glyph-name="guilsinglleft" unicode="&#x2039;" horiz-adv-x="227" 
d="M197 235l-136 -66l136 -66l-11 -24l-186 90l186 90z" />
    <glyph glyph-name="guilsinglright" unicode="&#x203a;" horiz-adv-x="227" 
d="M0 103l136 66l-136 66l11 24l186 -90l-186 -90z" />
    <glyph glyph-name="fraction" unicode="&#x2044;" horiz-adv-x="196" 
d="M139 677h27l-139 -678h-27z" />
    <glyph glyph-name="fraction" unicode="&#x2215;" horiz-adv-x="196" 
d="M139 677h27l-139 -678h-27z" />
    <glyph glyph-name="frenchfrancsign" unicode="&#x20a3;" horiz-adv-x="441" 
d="M175 -1h-134q14 9 20 23t6 47v73l-67 1v27l67 -1v437q0 54 -26 70h360l10 -112q-23 45 -75.5 73.5t-124.5 28.5h-63v-313h63q118 0 149 102v-215q-31 103 -149 103h-63v-174l212 -2v-27l-212 2v-73q0 -26 4.5 -41t9 -19t13.5 -10z" />
    <glyph glyph-name="lirasign" unicode="&#x20a4;" horiz-adv-x="481" 
d="M438 -1h-360q9 6 13.5 10t9 19t4.5 41v189h-105v27h105v109l-105 1v27l105 -1v73q0 86 47 135.5t127 49.5q61 0 102.5 -32.5t57.5 -84.5l-66 -35q0 66 -24 104t-70 38q-44 0 -68.5 -47t-24.5 -128v-73l174 -1v-27l-174 1v-110l174 -1v-27l-174 1v-248h42q75 0 137 36.5
t86 91.5z" />
    <glyph glyph-name="euro" unicode="&#x20ac;" horiz-adv-x="535" 
d="M296 -4q-96 0 -157 73t-78 189h-61v27h58q-3 25 -3 53t3 57h-58v27h61q17 114 78 185.5t157 71.5q129 0 195 -127l-58 -31q-20 69 -55 108.5t-82 39.5q-62 0 -102.5 -68.5t-52.5 -179.5l219 -1v-27l-222 1l-2 -56q0 -28 3 -54l221 -1v-27l-218 1q16 -99 67.5 -158
t117.5 -59q117 0 163 114h15q-29 -73 -82.5 -115.5t-126.5 -42.5z" />
    <glyph glyph-name="numerosign" unicode="&#x2116;" horiz-adv-x="857" 
d="M329 677h74q-13 -8 -18 -13t-9.5 -19t-4.5 -38v-607h-10l-319 620v-550q0 -35 8 -49q6 -9 23 -21h-73q13 8 18 13t9.5 19t4.5 38v537q0 23 -11 43t-21 27h104l257 -501v431q0 14 -2 25t-4 17.5t-6.5 12t-6 7t-7.5 5.5zM619 585q99 0 153.5 -70.5t54.5 -174.5
t-54.5 -174.5t-153.5 -70.5t-153.5 70.5t-54.5 174.5t54.5 174.5t153.5 70.5zM619 105q60 0 95.5 67t35.5 168t-35.5 168t-95.5 67t-95.5 -67t-35.5 -168t35.5 -168t95.5 -67zM470 32v27h291v-27h-291z" />
    <glyph glyph-name="trademark" unicode="&#x2122;" horiz-adv-x="168" 
d="M138 590h-17q3 2 3 9v73l-22 -82h-1l-27 80v-71q0 -5 4 -9h-9q4 2 4 9v69q0 5 -4 9h14l23 -68l18 68h14q-3 -3 -3 -9v-69q0 -7 3 -9zM37 590h-17q4 2 4 9v76q-14 -1 -24 -18l1 20h55l2 -20q-10 17 -24 18v-76q0 -7 3 -9z" />
    <glyph glyph-name="minus" unicode="&#x2212;" horiz-adv-x="275" 
d="M0 156v27h245v-27h-245z" />
    <glyph glyph-name="almostequalto" unicode="&#x2248;" horiz-adv-x="188" 
d="M113 282q-12 0 -22 7q-3 2 -18 17q-16 20 -35 20q-15 0 -38 -14q16 30 46 30q10 0 21 -6q8 -4 24 -20.5t28 -17.5h2q13 0 37 14q-14 -30 -45 -30zM113 221q-12 0 -22 7q-3 2 -18 17q-16 20 -35 20q-15 0 -38 -14q16 30 46 30q10 0 21 -6q8 -4 24 -20.5t28 -17.5h2
q13 0 37 14q-14 -30 -45 -30z" />
    <glyph glyph-name="lessthanorequalto" unicode="&#x2264;" horiz-adv-x="227" 
d="M197 235l-135 -66l135 -66l-11 -24l-186 90l186 90zM0 0v27h197v-27h-197z" />
    <glyph glyph-name="greaterthanorequalto" unicode="&#x2265;" horiz-adv-x="227" 
d="M0 103l136 66l-136 66l11 24l186 -90l-186 -90zM197 0h-197v27h197v-27z" />
    <glyph glyph-name="A.SALT1" unicode="&#xe000;" horiz-adv-x="466" 
d="M436 0h-144q18 15 18 46q0 18 -4 31q-16 58 -39 136h-36q1 2 1 5q0 4 -1 5h33l-86 303q-45 -165 -82 -303h24q-1 -1 -1 -5q0 -3 1 -5h-27q-7 -29 -19.5 -75t-16.5 -61q-3 -12 -3 -22q0 -39 39 -55h-93q31 22 46 77l162 601h11q128 -451 171 -601q17 -59 46 -77zM195 227
l26 -7q1 0 1 -2t-1 -2l-26 -7q-6 -1 -7.5 -2.5t-2.5 -7.5l-7 -26l-2 -2q-1 0 -3 2l-7 26q-2 8 -10 10l-26 7q-1 0 -1 2t1 2l26 7q6 1 7 2.5t3 8.5l7 25q2 2 3 2l2 -2l7 -25q1 -7 2.5 -8.5t7.5 -2.5z" />
    <glyph glyph-name="B.SALT1" horiz-adv-x="441" 
d="M259 400q68 -13 110 -68.5t42 -129.5q0 -84 -54.5 -143t-137.5 -59h-219q14 9 20.5 23.5t6.5 47.5v536q0 26 -6 42.5t-9.5 20t-11.5 8.5h219q58 0 99.5 -41.5t41.5 -100.5q0 -48 -28 -85t-73 -51zM168 668h-60v-263h60q53 0 82 37t29 94t-29 94.5t-82 37.5zM330 202
q0 83 -42.5 138t-119.5 55h-60v-385h60q77 0 119.5 54.5t42.5 137.5zM222 211l25 -6q2 -2 2 -3q0 -2 -2 -2l-25 -7q-8 -2 -11 -10l-7 -26q0 -1 -2 -1t-2 1l-7 26q-1 6 -2.5 7.5t-7.5 2.5l-26 7q-2 0 -2 2q0 1 2 3l26 6q8 3 10 11l7 25q0 2 2 2t2 -2l7 -25q3 -8 11 -11z" />
    <glyph glyph-name="C.SALT1" horiz-adv-x="480" 
d="M435 155h15q-30 -74 -83 -116t-126 -42q-114 0 -177.5 98.5t-63.5 243.5t63.5 243t177.5 98q129 0 195 -127l-58 -30q-20 69 -55 108t-82 39q-74 0 -117 -94.5t-43 -236.5q0 -133 55.5 -215.5t134.5 -82.5q116 0 164 114zM291 348l26 -7q1 0 1 -2t-1 -2l-26 -7
q-6 -2 -7.5 -3t-2.5 -8l-7 -25l-2 -2q-1 0 -3 2l-7 25q-1 5 -2 6.5t-2.5 2.5t-5.5 2l-26 7q-1 0 -1 2t1 2l26 7q8 2 10 10l7 26q2 2 3 2l2 -2l7 -26q1 -6 2.5 -7t7.5 -3z" />
    <glyph glyph-name="D.SALT1" horiz-adv-x="481" 
d="M0 678h210q114 0 177.5 -97t63.5 -242t-63.5 -242t-177.5 -97h-210q14 9 20.5 23.5t6.5 47.5v536q0 26 -6 42.5t-9.5 20t-11.5 8.5zM108 10h72q75 0 133 96t58 233q0 136 -58 232t-133 97h-72v-658zM247 348l26 -7q2 0 2 -2t-2 -2l-26 -7q-6 -2 -7.5 -3t-2.5 -8l-7 -25
q0 -2 -2 -2t-2 2l-7 25q-2 7 -3.5 8t-7.5 3l-25 7q-2 0 -2 2t2 2l25 7q8 2 11 10l7 26q0 2 2 2t2 -2l7 -26q1 -6 2.5 -7t7.5 -3z" />
    <glyph glyph-name="E.SALT1" horiz-adv-x="423" 
d="M298 398l58 -15q2 -2 2 -4q0 -1 -2 -3l-58 -15l-16 -93q0 -3 -3 -3t-3 3l-16 93l-58 15q-3 2 -3 3q0 3 3 4l58 15l16 93q0 3 3 3t3 -3zM107 10h63q75 0 137 36.5t86 91.5l-13 -138h-380q14 9 20 23.5t6 47.5v536q0 26 -6 43t-9 19.5t-11 8.5h360l10 -113q-23 45 -75.5 74
t-124.5 29h-63v-284h83v-2q-1 -2 -1 -3l1 -2v-3h-83v-364z" />
    <glyph glyph-name="F.SALT1" horiz-adv-x="400" 
d="M370 565q-22 45 -75 74t-125 29h-62v-314h53l-1 -2v-3v-3l1 -2h-53v-273q0 -35 7 -49q4 -11 19 -22h-134q14 9 20.5 23.5t6.5 47.5v536q0 26 -6 42.5t-9.5 20t-11.5 8.5h360zM269 368l58 -16q2 0 2 -3t-2 -3l-58 -16l-16 -93q0 -2 -3 -2q-2 0 -4 2l-15 93l-58 16
q-3 0 -3 3t3 3l58 16l15 93q3 3 4 3q3 0 3 -3z" />
    <glyph glyph-name="G.SALT1" horiz-adv-x="507" 
d="M333 384h144q-14 -9 -20.5 -23t-6.5 -47v-139q0 -73 -60 -125.5t-148 -52.5q-114 0 -178 98.5t-64 243.5t64 243t178 98q128 0 194 -127l-58 -30q-20 69 -55 108t-81 39q-74 0 -117.5 -94.5t-43.5 -236.5t43.5 -237t117.5 -95q51 0 89 33t38 108v166q0 11 -1 20.5t-4 16
t-5.5 11t-6.5 8.5t-6.5 6t-7 4.5t-5.5 3.5zM258 348l26 -7q1 0 1 -2t-1 -2l-26 -7q-6 -2 -7 -3t-3 -8l-7 -25l-2 -2q-1 0 -3 2l-7 25q-1 7 -2.5 8t-7.5 3l-26 7q-1 0 -1 2t1 2l26 7q8 2 10 10l7 26q2 2 3 2l2 -2l7 -26q2 -8 10 -10z" />
    <glyph glyph-name="H.SALT1" horiz-adv-x="457" 
d="M108 384h52q-1 -1 -1 -5q0 -3 1 -5h-52v-303q0 -33 6 -47.5t20 -23.5h-134q14 9 20.5 23.5t6.5 47.5v536q0 33 -6.5 47t-20.5 24h134q-14 -10 -20 -24.5t-6 -46.5v-223zM401 607v-536q0 -33 6 -47.5t20 -23.5h-133q14 9 20 23.5t6 47.5v303h-49q1 2 1 5q0 4 -1 5h49v223
q0 32 -6 46.5t-20 24.5h133q-14 -10 -20 -24.5t-6 -46.5zM235 388l26 -6q1 -1 1 -3t-1 -2l-26 -7q-8 -2 -10 -10l-7 -26q-1 -1 -3 -1q-1 0 -2 1l-7 26q-2 8 -10 10l-26 7q-1 0 -1 2t1 3l26 6q8 3 10 11l7 25l2 2q1 0 3 -2l7 -25q2 -8 10 -11z" />
    <glyph glyph-name="I.SALT1" 
d="M108 607v-536q0 -34 6 -48t20 -23h-134q14 9 20.5 23.5t6.5 47.5v536q0 33 -6.5 47t-20.5 24h134q-14 -10 -20 -24t-6 -47zM48 753l-26 7q-2 0 -2 2t2 2l26 7q6 1 7 2.5t3 7.5l7 26q0 2 2 2t2 -2l7 -26q2 -8 10 -10l26 -7q2 0 2 -2t-2 -2l-26 -7q-6 -1 -7 -2.5t-3 -8.5
l-7 -25q0 -2 -2 -2t-2 2l-7 25q-1 5 -2 6.5t-2.5 2.5t-5.5 2z" />
    <glyph glyph-name="J.SALT1" 
d="M0 678h134q-14 -10 -20.5 -24t-6.5 -47v-506q0 -73 -34 -112t-89 -44q25 24 33.5 53.5t8.5 92.5v516q0 35 -7 49q-6 12 -19 22zM46 753l-25 7q-2 0 -2 2t2 2l25 7q6 1 7 2.5t3 7.5l7 26q2 2 3 2q2 0 2 -2l7 -26q1 -6 2.5 -7.5t7.5 -2.5l26 -7q1 0 1 -2t-1 -2l-26 -7
q-6 -1 -7 -2.5t-3 -8.5l-7 -25q0 -2 -2 -2q-1 0 -3 2l-7 25q-1 7 -2.5 8.5t-7.5 2.5z" />
    <glyph glyph-name="K.SALT1" horiz-adv-x="467" 
d="M156 324h58q52 0 87 -26t51.5 -67.5t27 -84.5t24 -85t33.5 -61h-103q-24 18 -35 58.5t-15.5 82.5t-13 82t-34.5 65.5t-72 25.5h-15l-20 -32t-22 -34v-177q0 -33 6.5 -47.5t20.5 -23.5h-134q14 9 20 23.5t6 47.5v536q0 32 -6 46.5t-20 24.5h134q-14 -10 -20.5 -24
t-6.5 -47v-341q60 94 172 270q14 22 14 55q0 28 -10.5 52.5t-27.5 34.5h154q-19 -9 -54 -53t-67 -93q-19 -31 -71 -112t-61 -96zM212 147l25 -7q2 0 2 -2t-2 -2l-25 -7q-7 -1 -8.5 -2.5t-2.5 -7.5l-7 -26q0 -2 -2 -2t-2 2l-7 26q-1 6 -2.5 7.5t-7.5 2.5l-26 7q-2 0 -2 2t2 2
l26 7q6 1 7.5 2.5t2.5 7.5l7 26q0 2 2 2t2 -2l7 -26q1 -6 2.5 -7.5t8.5 -2.5z" />
    <glyph glyph-name="L.SALT1" horiz-adv-x="402" 
d="M107 10h42q75 0 137 36.5t86 91.5l-12 -138h-360q9 6 13 10t8.5 20t4.5 41v536q0 32 -6 46.5t-20 24.5h133q-13 -10 -19 -22q-7 -14 -7 -49v-597zM204 334l-25 7q-2 0 -2 2t2 2l25 7q8 2 10 10l7 26q2 2 3 2q2 0 2 -2l7 -26q1 -6 2.5 -7t7.5 -3l26 -7q1 0 1 -2t-1 -2
l-26 -7q-6 -2 -7.5 -3t-2.5 -8l-7 -25q0 -2 -2 -2q-1 0 -3 2l-7 25q-1 5 -2 6.5t-2.5 2.5t-5.5 2z" />
    <glyph glyph-name="M.SALT1" horiz-adv-x="571" 
d="M50 21q4 -8 23 -21h-73q13 10 17 13.5t9 18t5 38.5v135q2 -1 5 -1q4 0 5 1v-135q0 -34 9 -49zM515 607v-536q0 -33 6.5 -47.5t20.5 -23.5h-134q9 6 13 10t8.5 20t4.5 41v573l-174 -644h-10q-206 615 -209 622v-306q-2 2 -5 2q-1 0 -5 -2v291q0 17 -2 29.5t-6.5 19.5
t-7 10.5t-8.5 7t-7 4.5h110q24 -83 69 -214.5t79 -221.5l33 -90q93 344 142 526h109q-10 -7 -13.5 -10.5t-8.5 -19t-5 -41.5zM56 270l25 -7q2 0 2 -2q0 -1 -2 -3l-25 -6q-8 -3 -11 -11l-6 -25q-2 -2 -3 -2q-2 0 -2 2l-7 25q-2 8 -10 11l-26 6q-1 1 -1 3t1 2l26 7q8 2 10 10
l7 26q0 1 2 1t3 -1l6 -26q3 -8 11 -10z" />
    <glyph glyph-name="N.SALT1" horiz-adv-x="433" 
d="M50 21q4 -8 23 -21h-73q13 10 17 13.5t9 18t5 38.5v135q2 -1 5 -1q4 0 5 1v-135q0 -34 9 -49zM329 678h73q-13 -9 -18 -13.5t-9.5 -19t-4.5 -38.5v-607h-10l-319 621v-305q-2 2 -5 2q-1 0 -5 -2v291q0 23 -10.5 43t-20.5 28h103l257 -501v430q0 34 -8 50q-4 8 -23 21z
M56 270l25 -7q2 0 2 -2q0 -1 -2 -3l-25 -6q-7 -2 -8.5 -3.5t-2.5 -7.5l-7 -25q0 -2 -2 -2t-2 2l-7 25q-2 8 -10 11l-26 6q-2 2 -2 3q0 2 2 2l26 7q8 2 10 10l7 26q0 1 2 1t2 -1l7 -26q1 -6 2.5 -7t8.5 -3z" />
    <glyph glyph-name="O.SALT1" horiz-adv-x="512" 
d="M241 680q76 0 132 -47.5t82.5 -123.5t26.5 -170t-26.5 -170t-82.5 -124t-132 -48q-114 0 -177.5 98.5t-63.5 243.5t63.5 243t177.5 98zM241 7q74 0 117 95t43 237t-43 236.5t-117 94.5t-117.5 -94.5t-43.5 -236.5t43.5 -237t117.5 -95zM260 348l26 -7q2 0 2 -2t-2 -2
l-26 -7q-6 -2 -7.5 -3t-2.5 -8l-7 -25q0 -2 -2 -2t-2 2l-7 25q-2 7 -3.5 8t-7.5 3l-25 7q-2 0 -2 2t2 2l25 7q8 2 11 10l7 26q0 2 2 2t2 -2l7 -26q2 -8 10 -10z" />
    <glyph glyph-name="P.SALT1" horiz-adv-x="440" 
d="M0 678h218q83 0 137.5 -59t54.5 -144q0 -84 -54.5 -143t-137.5 -59h-111v-202q0 -26 6 -43t9 -19.5t12 -8.5h-134q14 9 20 23.5t6 47.5v536q0 26 -6 43t-9 19.5t-11 8.5zM330 475q0 84 -42.5 138.5t-119.5 54.5h-61v-385h61q77 0 119.5 54.5t42.5 137.5zM221 485l25 -7
q2 -2 2 -3q0 -2 -2 -2l-25 -7q-8 -2 -11 -10l-6 -26q-1 -1 -3 -1t-2 1l-7 26q-2 8 -10 10l-26 7q-1 0 -1 2t1 3l26 7q6 1 7 2.5t3 7.5l7 25q0 2 2 2q1 0 3 -2l6 -25q3 -8 11 -10z" />
    <glyph glyph-name="Q.SALT1" horiz-adv-x="639" 
d="M502 -80q31 0 58 7.5t38 14.5l11 8q-1 -4 -3.5 -11t-12 -24.5t-21.5 -31t-32 -24.5t-44 -11q-31 0 -60 15t-51 37t-43.5 44t-47 37.5t-51.5 15.5h-2q-9 0 -21 1t-37 8.5t-47.5 20t-48 38.5t-44 60.5t-31 90t-12.5 123.5q0 94 26.5 170t82.5 123.5t132 47.5q114 0 178 -98
t64 -243q0 -130 -52 -224t-145 -113q26 -7 60 -29t71 -37.5t85 -15.5zM81 339q0 -142 43 -237t117 -95t117.5 95t43.5 237t-43.5 236.5t-117.5 94.5t-117 -94.5t-43 -236.5zM261 348l26 -7q1 0 1 -2t-1 -2l-26 -7q-6 -2 -7.5 -3t-2.5 -8l-7 -25q-2 -2 -3 -2q-2 0 -2 2l-7 25
q-1 7 -2.5 8t-7.5 3l-26 7q-1 0 -1 2t1 2l26 7q8 2 10 10l7 26q0 2 2 2q1 0 3 -2l7 -26q1 -6 2.5 -7t7.5 -3z" />
    <glyph glyph-name="R.SALT1" horiz-adv-x="471" 
d="M263 278q46 -11 75 -48t39 -77.5t26 -86t38 -66.5h-103q-24 18 -35 54t-15.5 72t-13 70t-34.5 55.5t-72 21.5h-61v-202q0 -26 6 -43t9 -19.5t12 -8.5h-134q14 9 20 23.5t6 47.5v536q0 26 -6 43t-9 19.5t-11 8.5h218q83 0 137.5 -59t54.5 -144q0 -72 -40.5 -126.5
t-106.5 -70.5zM168 668h-61v-385h61q77 0 119 54.5t42 137.5q0 84 -42 138.5t-119 54.5zM196 466l-26 7q-2 0 -2 2q0 1 2 3l26 7q6 1 7 2.5t3 7.5l7 25q0 2 2 2t2 -2l7 -25q3 -8 11 -10l25 -7q2 -2 2 -3q0 -2 -2 -2l-25 -7q-8 -2 -11 -10l-7 -26q0 -1 -2 -1t-2 1l-7 26
q-2 8 -10 10z" />
    <glyph glyph-name="S.SALT1" horiz-adv-x="474" 
d="M92 545q0 -46 36.5 -80t88 -57t103 -48.5t88 -71t36.5 -109.5q0 -26 -11.5 -55.5t-35.5 -59t-68.5 -48.5t-102.5 -19q-54 0 -96.5 17t-68.5 45.5t-41 60.5t-20 68l70 37q0 -40 7 -75.5t23.5 -69t48.5 -53.5t77 -20q51 0 93 39t42 101q0 37 -19.5 66t-50.5 48.5
t-68.5 36.5t-75 35.5t-68.5 41t-50.5 58.5t-19.5 82q0 64 48 114.5t149 50.5q63 0 114 -33.5t67 -83.5l-66 -34q0 63 -33.5 102t-81.5 39q-47 0 -80.5 -35.5t-33.5 -89.5zM203 132l-26 7q-2 2 -2 3q0 2 2 2l26 7q6 1 7.5 2.5t2.5 7.5l7 26q0 1 2 1t2 -1l7 -26q1 -6 2.5 -7.5
t7.5 -2.5l26 -7q2 0 2 -2q0 -1 -2 -3l-26 -7q-8 -2 -10 -10l-7 -25q0 -2 -2 -2t-2 2l-7 25q-1 6 -2.5 7t-7.5 3z" />
    <glyph glyph-name="U.SALT1" horiz-adv-x="433" 
d="M361 188v172q4 -2 5 -2q3 0 5 2v-188q0 -71 -50 -121q-51 -51 -122 -51q-72 0 -122.5 50.5t-50.5 121.5v435q0 32 -6 46.5t-20 24.5h134q-10 -7 -13.5 -10.5t-8.5 -19t-5 -41.5v-419q0 -71 39.5 -109t97.5 -38t87.5 44t29.5 103zM353 657q-5 8 -24 21h74
q-13 -9 -18 -13.5t-9.5 -19t-4.5 -38.5v-136q-1 1 -5 1q-3 0 -5 -1v136q0 34 -8 50zM386 424l25 -6q2 -2 2 -3q0 -2 -2 -2l-25 -7q-5 -1 -6.5 -2t-2.5 -2.5t-2 -5.5l-7 -26q0 -1 -2 -1t-2 1l-7 26q-1 6 -2.5 7t-7.5 3l-26 7q-2 0 -2 2q0 1 2 3l26 6q8 3 10 11l7 25q0 2 2 2
t2 -2l7 -25q1 -6 2.5 -7.5t8.5 -3.5z" />
    <glyph glyph-name="V.SALT1" horiz-adv-x="465" 
d="M342 678h93q-32 -23 -46 -78l-162 -600h-11q-128 450 -171 600q-17 61 -45 78h143q-18 -15 -18 -46q0 -14 5 -32l127 -448q91 336 122 448q3 12 3 22q0 40 -40 56zM235 518l-26 7q-2 2 -2 3q0 2 2 2l26 7q6 1 7.5 2.5t2.5 7.5l7 26q0 1 2 1t2 -1l7 -26q1 -6 2.5 -7.5
t7.5 -2.5l26 -7q2 0 2 -2q0 -1 -2 -3l-26 -7q-8 -2 -10 -10l-7 -25q0 -2 -2 -2t-2 2l-7 25q-1 6 -2.5 7t-7.5 3z" />
    <glyph glyph-name="W.SALT1" horiz-adv-x="737" 
d="M613 678h94q-32 -23 -47 -78l-162 -600h-10q-79 276 -134 468l-127 -468h-10q-129 450 -171 601q-17 59 -46 77h144q-19 -16 -19 -46q0 -14 5 -31l128 -449l91 335q-8 26 -19 65.5t-13 47.5q-17 60 -46 78h144q-19 -16 -19 -46q0 -14 5 -32l128 -448q91 336 121 448
q3 12 3 23q0 40 -40 55zM503 487l-26 7q-1 0 -1 2t1 3l26 6q8 3 10 11l7 25q0 2 2 2q1 0 3 -2l6 -25q3 -8 11 -11l25 -6q2 -2 2 -3q0 -2 -2 -2l-25 -7q-8 -2 -11 -10l-6 -26q-1 -1 -3 -1t-2 1l-7 26q-1 6 -2.5 7.5t-7.5 2.5z" />
    <glyph glyph-name="X.SALT1" horiz-adv-x="459" 
d="M429 0h-143q16 11 16 32q0 13 -8 35l-105 257q-93 -193 -124 -257q-9 -18 -9 -31q0 -25 34 -36h-90q17 9 28 22.5t26 44.5l130 270l-110 272q-20 49 -48 69h143q-16 -11 -16 -34q0 -16 8 -35l81 -199q72 149 96 199q8 17 8 32q0 30 -33 37h89q-27 -18 -53 -69l-102 -211
q100 -249 134 -331q19 -47 48 -67zM209 115l26 -7q2 -2 2 -3q0 -2 -2 -2l-26 -7q-8 -2 -10 -10l-7 -26q0 -1 -2 -1t-2 1l-7 26q-1 6 -2.5 7t-7.5 3l-26 7q-2 0 -2 2q0 1 2 3l26 7q6 1 7.5 2.5t2.5 7.5l7 26q0 1 2 1t2 -1l7 -26q1 -6 2.5 -7.5t7.5 -2.5z" />
    <glyph glyph-name="Y.SALT1" horiz-adv-x="453" 
d="M330 678h93q-32 -24 -55 -72l-118 -246v-289q0 -31 7 -49q6 -11 20 -22h-134q14 9 20 23t6 48v271q-91 198 -122 264q-25 53 -47 72h134q-10 -7 -10 -26t12 -46l109 -234l111 234q5 9 5 23q0 35 -31 49zM222 594l-25 7q-2 0 -2 2t2 2l25 7q8 2 10 10l7 26q2 2 3 2
q2 0 2 -2l7 -26q1 -6 2.5 -7t7.5 -3l26 -7q1 0 1 -2t-1 -2l-26 -7q-8 -2 -10 -10l-7 -26q0 -2 -2 -2q-1 0 -3 2l-7 26q-2 8 -10 10z" />
    <glyph glyph-name="Z.SALT1" horiz-adv-x="415" 
d="M92 10h92q73 0 125.5 29t75.5 74l-11 -113h-374l272 668h-51q-72 0 -124.5 -29t-75.5 -74l10 113h332zM306 214l26 -7q2 0 2 -2t-2 -2l-26 -7q-8 -2 -10 -10l-7 -26q0 -2 -2 -2t-2 2l-7 26q-3 8 -11 10l-25 7q-2 0 -2 2t2 2l25 7q6 2 7.5 3t3.5 8l7 25q0 2 2 2t2 -2
l7 -25q1 -5 2 -6.5t2.5 -2.5t5.5 -2z" />
    <glyph glyph-name="E.SALT2" horiz-adv-x="423" 
d="M108 10h62q75 0 137 36.5t86 91.5l-13 -138h-380q14 9 20.5 23.5t6.5 47.5v536q0 26 -6 42.5t-9.5 20t-11.5 8.5h360l10 -113q-22 45 -75 74t-125 29h-62v-284h62q119 0 150 103v-215q-31 102 -150 102h-62v-364zM248 184l26 -7q2 0 2 -2t-2 -2l-26 -7q-8 -2 -10 -10
l-7 -26q0 -2 -2 -2t-2 2l-7 26q-2 6 -3 7t-8 3l-25 7q-2 0 -2 2t2 2l25 7q5 1 6.5 2t2.5 2.5t2 5.5l7 26q0 2 2 2t2 -2l7 -26q2 -8 10 -10z" />
    <glyph glyph-name="F.SALT2" horiz-adv-x="400" 
d="M108 668v-314h62q119 0 150 102v-214q-31 102 -150 102h-62v-273q0 -25 4.5 -41t8.5 -20t13 -10h-134q14 9 20.5 23.5t6.5 47.5v536q0 25 -5 41t-8.5 19.5t-13.5 10.5h360l10 -113q-23 45 -75.5 74t-124.5 29h-62zM199 501l-25 7q-2 0 -2 2q0 1 2 3l25 6q8 3 11 11l6 25
q2 2 3 2q2 0 2 -2l7 -25q2 -8 10 -11l26 -6q1 -1 1 -3t-1 -2l-26 -7q-6 -1 -7 -2.5t-3 -7.5l-7 -26q0 -1 -2 -1t-3 1l-6 26q-3 8 -11 10z" />
    <glyph glyph-name="i.salt3" 
d="M135 0h-134q14 9 20 23.5t6 47.5v293q0 25 -4.5 41t-8.5 20t-13 10q33 2 63 18q28 16 44 33v-415q0 -31 7 -49q6 -13 20 -22zM26 565l-2 1q-2 1 -3 2l-21 11q-4 2 -4 5q0 4 4 6l21 11q4 2 5 3q6 3 7 4t4 7q1 1 3 5l11 21q2 4 6 4t6 -4l11 -21q2 -4 3 -5q1 -5 3 -7
q1 -1 7 -4l6 -3l21 -11q3 -2 3 -6t-3 -5l-21 -11l-6 -3q-6 -3 -7 -4q-2 -2 -3 -7q-1 -1 -3 -5l-11 -21q-1 -4 -6 -4t-6 4l-11 21q-2 4 -3 5q-3 6 -4 7t-7 4z" />
    <glyph glyph-name="j.salt3" 
d="M0 435q33 2 63 18q25 13 45 33v-532q0 -73 -34 -112.5t-89 -43.5q24 24 33 54t9 92v420q0 26 -4.5 41.5t-9 20t-13.5 9.5zM92 601l21 -11q4 -2 4 -6q0 -3 -4 -5l-21 -11q-1 -1 -3 -2l-2 -1q-6 -3 -7 -4t-4 -7q-1 -1 -3 -5l-11 -21q-1 -4 -6 -4q-4 0 -5 4l-11 21
q-3 3 -3 5q-3 6 -4 7t-7 4l-2 1l-4 2l-20 11q-4 1 -4 5q0 5 4 6l20 11q4 1 6 3q6 3 7 4t4 7q0 2 3 5l11 21q2 4 5 4q4 0 6 -4l11 -21q2 -4 3 -5q3 -6 4 -7t7 -4q1 -1 5 -3z" />
    <glyph glyph-name="c.salt4" horiz-adv-x="422" 
d="M464 268l50 -102q-8 -27 -25.5 -54t-47.5 -54t-79.5 -43.5t-111.5 -16.5q-112 0 -181 67.5t-69 177.5q0 104 54 174.5t153 70.5q112 0 168 -91l-52 -34q-16 53 -46 84t-70 31q-60 0 -95.5 -67t-35.5 -168q0 -111 51 -171t133 -60q57 0 99.5 28t63.5 71t31 82.5t10 74.5z
" />
    <glyph glyph-name="e.salt4" horiz-adv-x="433" 
d="M479 268l50 -102q-47 -168 -250 -168q-131 0 -205 68.5t-74 176.5q0 104 54.5 174.5t153.5 70.5q93 0 141.5 -65t53.5 -165h-326v-15q0 -114 66.5 -172.5t166.5 -58.5q169 0 169 256zM208 478q-57 0 -91.5 -59t-38.5 -151h249q-6 94 -35 152t-84 58z" />
    <glyph glyph-name="a.salt5" horiz-adv-x="382" 
d="M512 94l51 -103q-31 -112 -150 -112q-74 0 -121 31t-47 90v51q-35 -53 -115 -53q-56 0 -93 35.5t-37 103.5q0 83 72 147t173 64v6q0 54 -21 88t-59 34q-32 0 -60.5 -25t-39.5 -78l-54 61q22 22 66 38t89 16q63 0 111.5 -35t48.5 -99v-354q0 -50 23 -79t64 -29
q28 0 47.5 12.5t29 29t15 44.5t6.5 47.5t1 50.5v18zM245 76v257q-59 0 -113 -55.5t-54 -146.5q0 -44 26 -69.5t69 -25.5q23 0 41 10t24 20z" />
    <glyph glyph-name="d.salt5" horiz-adv-x="417" 
d="M546 94l50 -103q-31 -112 -149 -112q-74 0 -121 31t-47 90v24l-5 -2q-4 -3 -12.5 -7t-19 -8t-25.5 -6.5t-30 -2.5q-96 0 -141.5 64t-45.5 161q0 106 50 185.5t137 79.5q31 0 56 -16.5t36 -37.5v133q0 25 -5 41t-9 19.5t-13 9.5q36 5 63 19q26 13 45 32v-688
q0 -51 22.5 -79.5t64.5 -28.5q28 0 47.5 13t29 30t15 45.5t6.5 48.5t1 51v14zM279 122v280q-10 29 -32.5 47.5t-49.5 18.5q-51 0 -86 -73t-35 -172q0 -59 9.5 -104.5t35.5 -77t66 -31.5q39 0 65 32.5t27 79.5z" />
    <glyph glyph-name="h.salt5" horiz-adv-x="417" 
d="M547 94l50 -103q-31 -112 -149 -112q-74 0 -121.5 31t-47.5 90v344q0 57 -19.5 84.5t-49.5 27.5q-29 0 -58 -23t-44 -58v-304q0 -35 7 -49q4 -11 19 -22h-134q14 9 20.5 23.5t6.5 47.5v496q0 26 -4.5 41t-9 19t-13.5 10q36 5 63 19q25 12 45 32v-274q20 35 55 54.5
t73 19.5q52 0 88 -30.5t36 -103.5v-354q0 -50 23 -79t65 -29q28 0 47.5 13t29 30t15 45.5t6.5 48.5t1 51v14z" />
    <glyph glyph-name="k.salt5" horiz-adv-x="412" 
d="M562 94l51 -103q-13 -49 -48 -81q-34 -31 -102 -31q-82 0 -121 41q-39 40 -61 146q0 2 -0.5 5.5t-1.5 5.5q-13 63 -25 99q-14 39 -38 58q-26 18 -75 18q-14 -15 -33 -38v-143q0 -36 7 -49q9 -16 19 -22h-134q12 7 20 21q7 13 7 50v496q0 29 -4 41q-4 13 -9 19q-6 6 -13 9
q0 1 -1 1q24 1 63 18q31 17 45 33v-458q26 30 41 47q11 13 35 40.5t36 41.5q33 38 55 64q14 17 14 30q0 23 -28 33h94q-10 -7 -33 -28q-16 -15 -33 -35q-31 -35 -63 -73q-13 -15 -38 -44t-38 -43h31q44 0 74 -13q31 -13 59 -58q27 -48 49 -135l6 -21q16 -72 35 -111
q16 -37 62 -37h5q26 0 44 23q25 29 34 68q7 23 10 52l3 30v22q1 2 1 6t-1 5z" />
    <glyph glyph-name="m.salt5" horiz-adv-x="669" 
d="M799 94l50 -103q-31 -112 -150 -112q-74 0 -121 31t-47 90v344q0 57 -19.5 84.5t-49.5 27.5q-29 0 -58.5 -23t-44.5 -59q1 -6 1 -20v-283q0 -35 7 -49q4 -11 19 -22h-134q14 9 20.5 23.5t6.5 47.5v273q0 57 -19.5 84.5t-49.5 27.5q-29 0 -58.5 -23t-44.5 -58v-304
q0 -31 7 -49q6 -13 20 -22h-134q14 9 20 23.5t6 47.5v293q0 25 -4.5 41t-8.5 20t-13 10q33 2 63 18q28 16 44 33v-72q20 35 55.5 54.5t73.5 19.5q96 0 118 -84q20 39 57 61.5t77 22.5q52 0 88 -31t36 -103v-354q0 -50 23 -79t64 -29q23 0 41 8t28.5 24t17 32t9 40.5
t3.5 41.5t1 42v14z" />
    <glyph glyph-name="n.salt5" horiz-adv-x="416" 
d="M547 94l50 -103q-31 -112 -149 -112q-74 0 -121.5 31t-47.5 90v344q0 57 -19.5 84.5t-49.5 27.5q-29 0 -58 -23t-44 -58v-304q0 -35 7 -49q4 -11 19 -22h-134q14 9 20.5 23.5t6.5 47.5v293q0 26 -4.5 41.5t-9 20t-13.5 9.5q33 2 63 18q25 13 45 33v-72q20 35 55 54.5
t73 19.5q52 0 88 -30.5t36 -103.5v-354q0 -50 23 -79t65 -29q28 0 47.5 13t29 30t15 45.5t6.5 48.5t1 51v14z" />
    <glyph glyph-name="t.salt5" horiz-adv-x="238" 
d="M308 94l50 -103q-31 -112 -149 -112q-74 0 -121 31t-48 90v475h-40v11q45 7 75.5 44t35.5 86h10v-130h86v-11h-86v-475q0 -50 23 -79t65 -29q28 0 47.5 13t29 30t15 45.5t6.5 48.5t1 51v14z" />
    <glyph glyph-name="u.salt5" horiz-adv-x="417" 
d="M546 94l51 -103q-31 -112 -150 -112q-74 0 -121 31t-47 90v74q-21 -35 -56 -55.5t-72 -20.5q-52 0 -88.5 31.5t-36.5 104.5v283q0 25 -4.5 41t-8.5 20t-13 10h107v-344q0 -57 19.5 -84.5t49.5 -27.5q29 0 58.5 23t44.5 58v304q0 25 -4.5 41t-8.5 20t-13 10h107v-488
q0 -51 22.5 -79.5t64.5 -28.5q28 0 47.5 12.5t29 29t15 44.5t6.5 47.5t1 50.5v18z" />
    <glyph glyph-name="f_l" horiz-adv-x="342" 
d="M312 -1h-134q14 10 20.5 24t6.5 47v405h-84v-405q0 -30 7 -49q6 -13 20 -22h-134q26 19 26 71v405h-40v10h40q0 206 115 206q63 0 97 -52.5t34 -122.5v-446q0 -34 7 -49q4 -11 19 -22zM164 485h41v31q0 77 -20 117.5t-46 40.5q-18 0 -30.5 -21t-12.5 -57q0 -31 10 -68
q8 -27 20.5 -35t37.5 -8z" />
    <glyph glyph-name="c_h" horiz-adv-x="825" 
d="M795 -1h-134q14 10 20.5 24t6.5 47v274q0 57 -19.5 84.5t-49.5 27.5q-29 0 -58.5 -23t-44.5 -58v-305q0 -34 7 -49q6 -13 20 -22h-134q14 10 20 24.5t6 46.5v578q0 30 -3 48.5t-17.5 34.5t-41.5 16q-51 0 -84.5 -40t-33.5 -92q0 -35 14 -66.5t32.5 -52t41 -48.5t33.5 -52
l-53 -34q-15 53 -45 84t-70 31q-61 0 -96 -67t-35 -168q0 -107 47.5 -160.5t113.5 -53.5q43 0 79.5 24t56.5 70h19q-24 -57 -71 -91t-114 -34q-100 0 -154 70.5t-54 174.5t54 174.5t154 70.5q28 0 52 -6q-45 69 -45 134q0 61 44 102t114 41q60 0 101.5 -35.5t41.5 -87.5
v-222q20 35 55 54.5t74 19.5q52 0 88 -30.5t36 -102.5v-284q0 -34 7 -49q4 -11 19 -22z" />
    </font>
</defs>
</svg>
